<svg version="1" xmlns="http://www.w3.org/2000/svg" width="672" height="672" viewBox="0 0 504.000000 504.000000"><path d="M246.3 1.4c1 .8 1.7 2.7 1.7 4.7 0 2.6.3 3 1 1.9.5-.8 1-3 1-4.8 0-2.8-.3-3.2-2.7-3.2-2.5.1-2.6.2-1 1.4zM253.1 2.2c0 1.3.4 4.1.8 6.3.8 3.8.9 3.7 1-2.3.1-3.5-.3-6.2-.9-6.2-.5 0-1 1-.9 2.2z"/><path d="M258 3.2c0 1.8.5 4.9 1 6.9.9 3.3 1.5 3.8 5.8 4.8 11.2 2.7 33.4 13.6 33.8 16.7.2.9 1 2.4 2 3.3 1.5 1.4 1.5 1.3-.1-1.2-.9-1.5-1.5-2.7-1.3-2.7.9 0 7.8 6.9 7.8 7.7 0 .5 2 2.9 4.5 5.3s4.5 4.9 4.5 5.4c0 .6-2-1-4.5-3.4s-4.5-4-4.5-3.4c0 2.2 7.1 8.2 9.5 8.1.6 0 1.8 1.5 2.8 3.4l1.9 3.4-2.1-2.3c-1.1-1.3-4.5-3.5-7.5-5.1l-5.5-2.7 3 3.3c1.6 1.9 2.9 3.8 2.9 4.3 0 2.1-5.2.9-7.6-1.8-5.7-6.3-9.8-10.6-7.8-8.2 3.1 3.7 6.7 10 6.1 10.6-.3.3-1.8-1.4-3.5-3.8-3.3-4.7-11.6-12.8-15.1-14.7-1.2-.7-2.9-1-3.7-.7-.8.3-3.6-.5-6.2-1.8s-6.2-2.7-7.9-3.1c-1.8-.3-3.5-1.1-3.8-1.6-.4-.5-2.7-.8-5.3-.8l-4.7.2 4 .7c9.2 1.7 26.8 11.1 32 17.1 2.4 2.7.9 1.9-5.8-2.9-7.1-5.1-15-7.2-26-7l-9.2.1 10.6.7c9.7.5 11.4 1 18.2 4.3 4.9 2.4 9.7 5.8 13.4 9.5l5.8 5.8 6.8-.4c6.4-.4 7-.3 12.1 3.1 5.7 3.8 11.3 10.1 14 15.7 1.8 3.8 1.2 3.1-4.9-5.4-2.6-3.6-5.7-6.5-8.9-8.2-2.7-1.5-4.6-2.2-4.2-1.5 1.1 1.7-.9 1.4-6.5-1-2.7-1.2-5.2-2-5.5-1.7-.2.3 1.7 1.4 4.4 2.5 4.6 2 10.2 7.4 16 16 2.7 3.9 2.9 5.3.2 2.2-3.7-4.5-2-.8 3.1 6.7 2.8 4.1 4.9 7.7 4.7 7.9-.3.3-3.2-3.4-6.5-8.3-3.4-4.8-7.7-10.2-9.7-12.1l-3.6-3.5 1.1 3.5c.6 1.9 1.3 4.3 1.7 5.4.8 2.8 11.5 14.6 12.2 13.5.8-1.2 7 4.7 7.1 6.8.4 4 .6 4.9 2.1 8.2.9 1.9 1.9 4.6 2.2 6 .6 2 .5 2.2-.4 1-1-1.2-1-1-.5 1 1.1 4.2 1.7 36.7.7 35-.6-.8-1.2-9.6-1.5-19.5-.3-13.3-.9-19.2-2.1-22.6-1.9-5.2-12.5-18.4-15.6-19.4-1.1-.4-1.8-1-1.5-1.4.5-.8-1.8-3.1-4.5-4.6-.9-.5-.7.1.5 1.6 1.2 1.3 2.9 4.2 3.8 6.4 1.6 3.7 1.6 3.8 0 1.7-.9-1.3-4.4-4.2-7.7-6.4-3.7-2.5-5.3-3.2-4.2-1.9 1.1 1.2 3.4 3 5.2 4.1 1.7 1.1 4.4 3.8 5.8 6.1 1.5 2.2 2.9 3.9 3.2 3.7.6-.7 12.4 10.3 13.7 12.7.5 1.1-3.3-1.9-8.5-6.8-5.3-4.8-9.8-8.7-10.2-8.7-2 0 2 4.9 8.3 10 10.1 8.2 7.5 7.6-3.7-1-5.1-3.8-9.2-6.7-9.2-6.5 0 .2 2 2.5 4.4 5.2 3.1 3.3 4.3 5.4 4 6.8-.3 1.4 1 3.8 4.1 7.5 5.6 6.7 8.1 11.1 3.1 5.5-4.1-4.6-4.7-4.2-1.2.9 1.9 2.8 2.6 5.8 3.5 15.3.7 6.5 1.6 12.5 2 13.3.4.8 2.4 1.6 4.5 1.8 2.1.2 3.6.8 3.6 1.6 0 2.1-2.7 3.8-4.9 3.1-1.7-.5-1.8-.2-1.1 2.9.8 3.8-.4 39.8-1.5 41.6-.3.6-.3 5.6.1 11.2.5 7.2.9 9.6 1.6 8.3.6-.9.7-3.6.4-5.9-.4-2.3-.3-5.3.2-6.6l.9-2.4 1.3 2.3c1.7 3.3.8 11.2-1.7 14.7-1.2 1.8-2.3 5.5-2.7 9.4-1 9.1-3.4 18.4-6.6 25.6-2.9 6.5-10.7 19.8-14.7 25-2 2.7-2.3 4.1-2.1 11.5l.2 8.4.5-9c.5-7.9.7-8.5 1.4-5 1 5.3-.5 21.4-3.8 40.5-1.5 8.5-2.4 17.1-2.1 19 .2 1.9 1 6.4 1.6 10 .9 5.9.9 6.7-1.1 9.5l-2 3 2.5-2.8c1.4-1.5 2.6-4 2.6-5.5.1-2.3.2-2.5 1.1-.9 1.7 3 .1 5.5-11.5 17.5-6.1 6.4-9.7 10.6-8.1 9.5 1.7-1.2 6.6-5.8 10.9-10.2 4.4-4.4 8.3-7.8 8.7-7.5.4.2 1.1-.1 1.5-.7.4-.8.3-.9-.4-.5-2 1.2-1.3-1 .8-2.9 2.3-2.1 2.5-1 .6 4.2-5.3 14.7-8 29.7-7.3 40.8.9 14.4 5.3 24.5 16 37l6 7-5.7-5.5c-9.6-9.2-15.3-20.1-17.6-33.7-1.3-7.4-1.3-9.1-.6-14.3l.5-3.5-1.2 3.7c-1.7 5.2-3.9 7.1-13.7 11.5-7.8 3.4-9.4 3.8-19 4.1-16.3.6-31.7-2.7-45.5-9.6-6.2-3.1-8.1-4.5-13-10.2l-4-4.5 5 3.9c7.6 6 8.3 6.3 4.3 2-3.7-3.9-5-6.3-2.5-4.7.6.4 3.7.8 6.7.9 3 0 7.1.5 9 1.1 1.9.5 4.1.8 4.8.6 2.3-.8.7-16.3-1.8-16.3-.4 0-1.3-2.3-1.9-5-.6-2.8-3.1-8.5-5.5-12.8-3-5.2-4.7-9.4-5.2-12.9-.4-2.9-1-5.3-1.5-5.3s-.9-3.5-.8-7.8c.1-5.4.3-6.9.9-5.2.7 2.3.8 2.3.9.4.1-2.2 2.5-3.5 4.9-2.7.6.3 1.2.9 1.2 1.3 0 .5 1 2 2.3 3.3 1.2 1.4 3.1 4.9 4.1 7.8 2.1 5.8 7.2 13.9 8.7 13.9.5 0 .9-1 1-2.3 0-2.1.1-2.1.8-.2l.8 2 .6-2c.8-2.9 1.1-7.8.4-9.5-2.4-6.7-3.2-15.6-1.7-19.5.5-1.4.6-2.4.1-2.1-.5.4-.7-.3-.4-1.3.3-1.1 1.2-2.2 2-2.5 1.8-.7.7-2.6-1.5-2.6-.9 0-4.2-1.2-7.2-2.6-5-2.3-8.8-4.5-23.5-13.9-2.7-1.7-6.2-3.5-7.7-3.8-3-.8-13.6-10.2-17-15.1-1.2-1.7 1.1 0 5.3 4 7.7 7.3 12.6 11 13.5 10.2.2-.3-.8-1.3-2.2-2.3-10-6.5-18.6-18-24.4-32.5-4.8-11.8-5.2-15.8-3.6-38.3l.9-12.8-3.4-3.6-3.4-3.5 5.8 4c7.9 5.5 14.5 7.6 23.7 7.6 8.7 0 15.9-2.1 22.2-6.6l4.3-3.1-4.5 4.7c-4 4.2-4.3 5.2-1.6 4.7.6-.1 2.1.3 3.4 1 2.8 1.5 4.2.1 4.2-4.2 0-1.5 1.6-5.1 3.6-8 1.9-2.9 3.8-6.7 4-8.3.3-1.7 1.2-5.8 2-9.2 1.2-5.3 1.2-6.6 0-9.5-.9-2.2-1.2-5.3-.9-8.7.5-4.7 1-5.5 4.6-8.2 4.8-3.5 10.8-4 15.5-1.3 2.3 1.3 3.2 2.8 4.1 6.8.6 2.7 1 7 .9 9.5-.2 5.1 5.9 22.3 9.7 27.4 1.2 1.7 3.1 4.7 4 6.6 1 1.9 2 3 2.2 2.3.2-.6-.7-3.4-2.2-6.2-1.4-2.8-2.5-5.4-2.6-5.8 0-.5-.9-1.7-1.9-2.8-1.8-1.9-7.3-13.5-6.7-14.1.1-.1 1.7 2.6 3.6 6.2 5.9 11.4 17.3 19.5 27 19.3 3.2-.1 3-.2-1.9-1.3-9.7-2.1-17.1-7.2-22.6-15.6-2.9-4.4-6.4-14.4-6.4-18.3 0-1.7-.5-4.6-1.2-6.4-1-2.7-1-3.8 0-5.1.7-.9 2.6-3.8 4.3-6.4 3.5-5.4 10.2-10.2 17.3-12.3 9.9-3 24.2-3 34.1-.1 1.1.4.5-.1-1.4-1-4.7-2.1-19.2-2.9-27.5-1.5-11.1 1.9-18.7 6.7-25.7 16l-2.6 3.5-5.2-2.3c-6-2.5-9.2-2.2-15.7 1.5-2.2 1.3-4.7 2.4-5.6 2.4-.8 0-2.9-1.8-4.6-3.9-2-2.5-5.7-5.2-9.9-7.3-6.3-3.1-7.2-3.2-17.2-3.2-9.4.1-16.2 1.2-24.8 4-1 .3-.3-.3 1.5-1.5 1.7-1.1 3.2-2.5 3.2-3.1 0-.5 1.1-1.7 2.5-2.6 2.4-1.6 3.3-1.6 13.3 0 9.8 1.6 24.2 4.4 26.7 5.1.6.2.2.4-.7.4-1.3.1-.4 1.3 2.9 4.3 2.5 2.4 5 4.2 5.5 4 .5-.1.7.2.3.8-1.1 1.9 2 1 5.8-1.5 4.9-3.4 4.7-4-.5-1.5l-4.3 2.1 2.8-2.1c3.4-2.7 3.4-3.7-.6-8.1-5.6-6.3-16.4-10.4-26-9.7-3 .1-5.3 0-5.1-.3.2-.4-3.1-1-7.4-1.3-12.8-1.1-13.5-1.4-12.7-4.4.4-1.5 2.8-7.2 5.4-12.7 2.7-5.5 5.4-11.8 6.1-14 1.7-5.3 4.7-11.3 7.5-15.1 4.5-6 19.8-13.4 31-15 4.6-.7 4.8-.8 2-1.4-3.2-.7-3.3-.7 12.5-4.1 5.9-1.3 5.7-2.9-.3-3-2.3 0-5.1-.4-6.2-.9-2.7-1.1 9.2-.1 12.5 1 1.4.5 4.7.9 7.4.8l4.9-.1-4.4-2.3c-4.4-2.2-4.9-2.2-23.6-1.4-10.8.4-19.9 1.3-21 1.9-1.5 1-1.3 1 1.2.6 1.7-.3.7.3-2 1.3-2.8 1-6.8 2.8-8.8 4.1-5.6 3.5-4.4 1.8 2.5-3.6l6.3-4.8 19.3-.9c20-.9 20.1-.9 31 3.3 3 1.1 6.1 1.7 6.9 1.4 1.2-.5 1.4-.3.8.7-.5.9-.4 1.1.4.6.6-.4 2.8.2 4.8 1.4 1.9 1.1 3.8 1.9 4 1.6.6-.6-9.2-7.8-14.2-10.4-2.2-1.2-3.3-2.1-2.5-2.1 4 0 20 11.2 20 13.9 0 1.1.5 2 1.1 2 3.8 0-5.1-14.2-11.4-18.3-4.5-2.9-26.7-8.3-26.7-6.5 0 .8 13.6 5.4 19.6 6.8 5 1.1 12.1 4.7 11.1 5.6-.2.3-2.1-.5-4.1-1.7-2.3-1.3-5.8-2.3-8.9-2.4-2.9-.2-8.3-.7-12.2-1.3-12.8-2-19.1-2.4-18-1.4.6.6 5 1.5 9.8 2.1 8.8 1 23.3 4.8 22.4 5.8-.3.3-3.1-.2-6.1-1.1-3.1-.9-9.2-2.1-13.7-2.7-4.4-.5-10.1-1.7-12.6-2.5-5.3-1.8-9.6-1.3-16.2 2.1-9.3 4.7-26 19.6-34.1 30.4-5.1 6.8-14.3 22.7-14.3 24.8 0 .7-.5.9-1 .6-.6-.4-.8 0-.4 1 .8 2.2-.2 4.9-1.6 4-.6-.4-.8 0-.4 1.1.4.9.3 1.5-.2 1.2-1.2-.8-2.2 2-1.5 4.1.5 1.4.4 1.5-.4.4s-1.1-.9-1.7.8c-.3 1.1-.3 2.6.1 3.3.4.7.4 1-.1.6-.4-.4-1.9 2.4-3.2 6.3-1.3 3.8-3.8 10-5.6 13.7-1.9 3.7-4.6 10.7-6.2 15.7-1.5 4.9-3.7 11.7-4.8 14.9-1 3.3-3.2 10.6-4.7 16.4-1.6 5.8-4.2 12.6-5.9 15.4-1.7 2.7-2.6 4.6-2.1 4.3 1.4-.9 1.2.7-.6 5-.8 2-1.3 4-.9 4.3.3.3-.5 1.6-1.7 2.9-1.2 1.3-1.7 2.3-1.2 2.3 1.3 0 5.8-4.8 7.3-7.7 1.6-3.1 7.9-20.6 9.7-26.8 2-7.1 2.4-7.6 1.7-2.5-.3 2.5-1.9 8.1-3.4 12.4-4.1 11.3-3.6 12.4 1.1 2.8 2.3-4.6 4.5-10.8 4.9-14l.9-5.7v4.5c.1 2.5-.8 7-1.9 10-1.1 3-2.7 7.5-3.4 10-.8 2.5-1.4 3.6-1.5 2.5-.1-1.2-.8-.3-1.8 2.5-1 2.5-3 6.9-4.5 9.7-1.5 2.9-3.4 7.7-4.1 10.7-1.4 5.1-4.2 11.6-5.1 11.6-.2 0 .2-1.9 1-4.3 3.3-9.6 5.6-18 5.1-18.4-.8-.8-4.3 6.9-6.6 14.7-1.3 4.1-3.1 8.6-4 10-.9 1.4-2 3.6-2.3 4.9-.5 2 .4 1.5 4.7-2.8 5.4-5.3 9.6-13 11.6-21 .6-2.3 1.3-4.1 1.5-4 .3.4-.9 8.5-2 13.6-.3 1.2-3.4 5.5-6.9 9.5-4.3 4.7-6.9 8.6-7.7 11.5-1.3 4.9-.8 6.2 1.8 4.2 1-.7.5.2-1.2 2-1.6 1.9-2.3 3-1.5 2.6 3.6-1.9 6.2-5.3 10.6-14.1 4.6-9.3 7-12.2 4-4.9-.9 2.1-1.6 5.2-1.6 7.1 0 4.9-1.6 8.3-6.5 13.5-3 3.2-4.6 5.9-5 8.5-.3 2.2-.8 5-1.1 6.4-.3 1.4-1.6 3.9-3 5.5l-2.5 3 2.1-4.2c1.1-2.3 2-5 2-6 0-2.2-4.4 7-5.4 11.2l-.7 3 3.8-4.1c5.5-6 14.5-17.2 17-21.3 1.3-2 2.3-3 2.3-2.3 0 2.2-2 5.4-7.8 12.2-3 3.6-6.6 8.2-8 10.3-1.3 2-2.8 3.7-3.3 3.7-.9 0-4.8 7.9-7.3 15-.9 2.5-2.5 5.6-3.6 7-1.6 2-1.5 1.4.6-3.4 2.3-5.2 2.6-6.7 2.1-12.9-.6-7.3.1-8.4 1.3-2 .7 3.4.8 3.2.9-2.3.1-4.5.6-6.8 2.1-8.7 2.1-2.6 5.9-10.9 4.4-9.4-.4.4-1.7 2.3-2.8 4.1-1.2 1.9-3.7 5.8-5.7 8.8-2 2.9-5.6 8.3-7.9 12-2.4 3.7-4.6 6.6-4.8 6.3-.2-.2 1.6-3.9 4.2-8.2 2.5-4.2 4.6-8.4 4.6-9.2 0-.8.4-2.8 1-4.5.5-1.7 1.9-6.2 3.1-10 2.2-6.9 5.7-14.1 6.6-13.2.2.2-.5 2.1-1.6 4.2-1.2 2.1-2.1 4.5-2.1 5.2 0 .7-.7 2.7-1.6 4.3-.8 1.7-1.3 3.6-1.1 4.2.2.7 1.5-1.1 2.9-4 1.3-2.9 2.1-5 1.6-4.7-1.3.8-.9-.4.9-3.3.9-1.4 1.8-4.5 1.8-6.9l.2-4.3-3.5 5.7c-1.9 3.1-4.2 7.5-5.2 9.7-1.9 4.2-9.9 13.8-10 11.9 0-.6 1.5-2.8 3.3-5 2.8-3.3 11-17 15.2-25.4 1.9-3.7 2.8-8.3 1.5-7.5-.5.3-1 1.3-1 2.2 0 2.1-5.1 11.3-6 10.8-1.4-.9-6 3.6-6.9 6.8l-.9 3.2-.1-2.8c-.1-2.1 1.2-4.1 5.2-8 6.6-6.7 11.3-17.2 10.2-23.5-.4-2.8 0-6.1 1.4-11 2.5-8.4 2.6-9.4.4-6.3-2.2 3.3-4.2 12.3-4.4 19.6 0 3.6-.8 7.6-1.9 10-2.2 4.8-2.6 3.2-.6-2.2.8-2.1 1.6-7.6 1.8-12.3.3-5.5 1-9.8 2.2-12 2.3-4.5 6.6-16 6.1-16-.3 0-1.2 1.4-2 3.1-.9 1.7-1.9 2.9-2.1 2.6-.8-.7 2.5-6.7 3.6-6.7 1.2 0 6.5-10.3 9.7-19 1.3-3.6 4.9-10.9 8-16.3 3-5.4 5.3-10 5.1-10.2-.5-.5-15.3 23.5-20.8 33.8-4.1 7.6-7.4 17.3-6.4 18.8.3.5-.4 3-1.6 5.6-2.3 5.5-6 19.6-6 23.3 0 2-.2 2.2-1 1-.9-1.3-1-1.3-1 0-.2 6.3-2.4 16-4.4 19-2.1 3.2-6.3 14.4-7.2 19.5-1.1 6.6-2.4 10.4-4.4 13.8-1.2 2-2 4.4-1.6 5.2.3.8-.6 4.4-1.9 8-2.1 5.4-5.2 17.2-8 30-.2 1.1-1.1 2.9-2 4l-1.5 2 .7-2c.5-1.7.1-1.5-2.4.8-4 3.7-7.4 13.9-8 24.4-.4 5.1-1 8-1.6 7.6-1.3-.8-.2-12.1 2.2-21.3 1.1-4.1 1.8-7.6 1.7-7.8-.2-.1-1.5 2.8-2.9 6.5l-2.6 6.8v-4.7c-.1-2.6-.5-4.9-.9-5.2-1.7-1-6.5 6.8-8 13.2-.9 3.7-1.8 6-2 5.1-.1-.8.4-4.1 1.2-7.3.9-3.2 1.3-6.3 1-6.8-.3-.5.8-3 2.4-5.6 1.6-2.6 3.5-6.4 4.2-8.4.6-2.1 1.6-4 2.1-4.3.5-.4.9-1.6.9-2.8-.1-1.8-.4-1.6-2 1.3-1.1 1.9-1.9 2.8-2 2-.1-3.8 2.3-8.6 6.5-13.1 2.5-2.6 4.5-5.4 4.5-6.1 0-.7-1.2 0-2.6 1.7-1.4 1.6-2.2 2.3-1.8 1.5 1.2-2.6 3.6-5 4.5-4.5.4.3 1.2-1 1.8-3 .5-1.9 3-5.9 5.6-8.7 4.5-5 8.4-11.6 10-16.8.4-1.4 3.6-8.6 7.1-16 6.4-13.5 11.9-30.1 13.1-38.8.9-7.1-.2-4.8-3.1 6.6-3.3 13-8.3 26.4-12.1 32.2-1.6 2.5-3 5.3-3.2 6.4-.5 2.6-3.5 7.6-4.8 7.6-1 0-3.3 2.9-4.7 6-.5 1.2-.7 1.2-.7-.2-.1-1 1.9-4 4.4-6.8 6.2-6.9 5.7-8.5-.7-2.5-5.8 5.6-4 2.9 3.8-5.5 2.8-3.1 5.8-6.9 6.6-8.5 4.1-8 12.4-35.7 11.3-37.6-.7-1 3-8.6 5.5-11.4 1-1.1 2.3-3.8 2.9-6 1.5-5.5 1.3-6.8-.4-2.2-.8 2.1-4.9 9-9.2 15.3-4.3 6.4-9.6 14.4-11.7 17.8-2.1 3.3-6.6 9.9-9.8 14.5-3.3 4.6-6.2 9.1-6.6 10-.9 2.4 5.1-4.7 8.2-9.7 1.5-2.4 3-4.1 3.3-3.8.6.6-3.2 7.2-6.2 10.6C77 275.9 69 288 69 289.3c.1.7.6.2 1.3-1 .7-1.2 4.5-5.8 8.5-10.2 4-4.5 6.9-8.1 6.3-8.1-.6 0-.1-1.6 1-3.5 1.2-1.9 1.9-4 1.6-4.7-.2-.7.9-3.6 2.4-6.4 2.9-5.5 13-18.6 13.7-17.9.5.5-3.2 5.9-7.4 10.7-1.8 2-3.8 5.6-4.4 8-.7 2.4-2.3 6.3-3.6 8.7-1.3 2.4-2.3 4.6-2.1 4.8 1 1 5.6-6.8 7.1-12.1 1-3.2 1.9-5.6 2.1-5.4.2.2-.3 2.8-1.2 5.8-1.7 5.9-4.9 10.4-15.4 22.1-7.5 8.4-16 23.4-16.4 29.2-.2 2.1-.8 4.4-1.3 5-1.8 2.3-6.1 15.3-8.2 24.9-1.8 8-2.7 10.1-5.4 12.7-2.9 2.8-3.4 3-6.8 2-2.2-.6-3.9-1.8-4.3-2.9-.8-2.6-1.5-2.5-8.5 1-3.3 1.6-7.1 3-8.5 3-1.9 0-2.9.8-4 3.5-.8 1.9-2.2 5.1-3 7-.8 1.9-1.9 3.5-2.5 3.5-.5 0-1-.2-1-.5 0-.6 4.9-11.4 6.1-13.5 2.1-3.5 2-4.2-.1-6.6-3.6-3.7-1.5-2.9 3.1 1.3l4.2 3.8 10.4-5.5c11.5-6 14.9-8.7 8.3-6.4-2.2.8-4.9 1.9-6 2.6-1.5 1-2.4.9-4.6-.2-2.7-1.5-4.1-3.6-3-4.7.3-.4 1.3.2 2.1 1.3 1.4 1.7 1.4 1.4 0-2.1-1.6-4-3-5.5-5.2-5.5-1.7 0-2.6 1.9-1.5 3.3 1.7 2.2 2 8.1.5 11.1l-1.5 2.8-2.7-2.6c-1.5-1.4-3.3-2.6-3.9-2.6-.7 0-2.6-1.3-4.4-3-3.8-3.7-5.4-3.9-3.2-.5 1.6 2.5 1.6 2.7-.6 5-3 3.2-4.3 3.2-2.8.1 1.1-2.6.5-5.6-1.2-5.6-.6 0-1 2.7-1 6.4 0 5.7.2 6.4 2.2 6.9 1.2.3 2.9.2 3.9-.4 2.3-1.2 6.2-1.2 5.4.1-.3.5-1.6 1-2.9 1-1.2 0-3.1.7-4.2 1.5-2.5 1.9-4 1.9-2.4 0 1-1.2 1-1.5-.3-1.5-2.2 0-2.2 7.8 0 8.2 1.5.3 1.5.5-.1 2.1-1 1-1.5 2.1-1.1 2.5.6.7 3.2-1.9 8.3-8.4l2.4-2.9-1.8 3C8 365.4 4.5 370 3.3 370c-.7 0-1.3.4-1.3 1 0 .5.5 1 1.2 1 .9 0 .9.3 0 1.2-.7.7-1.2 1.7-1.2 2.3 0 1.7 10 3.6 14 2.6 3.9-.9 14.3-6.1 13.6-6.8-.2-.2-3.1.9-6.5 2.6-3.3 1.7-6.3 3.1-6.7 3.1-1.5 0 4.4-3.9 9-5.9 5.5-2.4 6-2.5 5.1-1.1-1.4 2.2.6.7 6.1-4.5 6.2-5.9 6.4-7.2.5-2.9-2.9 2.1-2.8 1.8.9-1.5 5.7-5.2 9.7-7.7 6.1-3.7-1.4 1.4-2 2.6-1.5 2.6 1.5 0 11.1-10.3 11.7-12.5.3-1.1.8-3.1 1.2-4.5l.6-2.5-1.5 2.5c-1.9 3.2-2 1.2-.2-3.7.8-2.1 2.4-7.2 3.6-11.3 4.3-14.8 17.1-41.5 23.1-48l4.1-4.5-3.6 5.2c-5.3 7.8-12.4 22.4-16.7 34.6-2.2 5.9-4.7 12-5.6 13.5-1.7 2.6-1.7 2.6 0 1.3 2.5-2 4.9-7.1 8.1-17 2.4-7.3 8.6-19.1 10.1-19.1.3 0-1.5 3.7-4 8.3-5.2 9.6-5.9 12.3-1.5 5.7 3.6-5.5 3.9-4.6.5 2-1.4 2.7-2.5 5.6-2.5 6.4 0 .8-2.5 5.1-5.5 9.7-3.7 5.4-5.9 9.9-6.6 13.3-1.8 8.8-4.1 14.8-8 21-5 8.1-7.8 11.6-9.2 11.6-.6 0-.1-1 1-2.3 4.2-4.6 3.5-5-1.3-.7-4.3 3.9-4.7 4.6-3.2 5.4 2.1 1.1 8-3.1 10.8-7.6 1.4-2.4 1.9-2.6 2.4-1.3.9 2.4.7 3.2-.4 1.5-.7-1-1-1.1-1-.2 0 .7-1.9 3.3-4.1 5.7-2.3 2.5-3.6 4.5-2.9 4.5.7 0 1.8-.7 2.5-1.6.9-1.3 1.2.2 1.4 7.2.2 9.8 1.1 12.8 1.2 4.3 0-3 .4-7.4.9-9.9 1-4.9.6 6.7-.8 25.5-.7 8.9-1.1 10.5-4 14.9-3.7 5.8-4.4 5-.7-.9 1.9-3.2 2.4-5.2 2.3-10l-.1-6-.6 6c-.6 5.7-1 6.6-8.5 15.9-7.8 9.7-11.2 12.2-14.7 11.1-2.3-.8-5.9-6.5-5.9-9.5 0-1.3-.3-2.1-.6-1.7-.4.3-.3 2.8.1 5.4.5 3.8 1.5 5.6 4.7 8.6 2.2 2.1 3.8 4.1 3.5 4.3-.3.3-2.8-1.6-5.6-4.3-4.8-4.6-5.1-5.3-5.1-9.8 0-3.6-.3-4.6-1.1-3.8-.8.8-.8 2.5.1 6.2.9 4 2.2 5.9 5.7 9.1 5.1 4.5 5 4.7-.6 2.4-2.5-1-4.9-3-6.6-5.6-1.8-2.6-3.1-3.8-4.1-3.4-.9.3-2 .6-2.5.6s-.9 1.1-.9 2.4c0 1.9.7 2.6 2.9 3.1 1.6.3 3.7 1.7 4.5 3.1.9 1.3 2.6 2.4 3.9 2.4 3.5 0 6.7 1.1 6.7 2.4 0 .6-1.4 1.9-3 2.8-2.2 1.2-3 2.5-3 4.5-.1 2.6-.2 2.7-1.4 1-.8-1-3.1-2-5.2-2.2-3.7-.4-3.8-.4-1.2.7 4.6 2 6 9 3.3 16.3-.6 1.4-.5 1.7.3 1 1.5-1.4 4.5-8.8 3.3-8-.7.4-1.1-.4-1.1-1.9 0-1.4.5-2.6 1-2.6.6 0 1 .6 1 1.2 0 .7.6.2 1.3-1.2 2.2-4.2 6.7-11 7.2-11 .3 0-1 3-3 6.7-1.9 3.6-3.5 7.2-3.5 8 0 .8-.9 3.1-2 5.3-3.7 7.3-3.5 7.6 12 17.5 4.6 3 7.9 5.5 7.3 5.5-.6 0-3.3-1.5-6-3.4-2.7-1.8-6.8-4.3-9.1-5.5L14 478v3.1c0 4.5 3.3 9.3 7.7 11.2 6.5 2.7 13.6 4.6 17.8 4.7 4.9.2 16.3-2.9 23.9-6.3l5.6-2.6.1-7.8c.3-22.6 0-21.1 5.3-31.8 7.9-16.4 12.7-25.6 17.2-33.5 2.3-4.1 5.7-10.8 7.5-14.8 1.7-4 3.4-7 3.6-6.8.3.3-1.6 5-4.1 10.5-2.5 5.5-4.6 10.2-4.6 10.4 0 .2-2.2 4.1-5 8.7-2.7 4.6-5 8.8-5 9.3s1.8-.9 4-3.1c2.7-2.9 4.9-6.7 7-12.4 4.7-12.5 8.2-19.2 9.1-17.6.7 1 .9 1 .9-.1 0-.8.3-1.2.6-.8.3.3.1 1.4-.5 2.4-.8 1.4-1.1 1.5-1.1.3-.1-2.2-4.9 7.1-5 9.6 0 2-7.9 20.4-13.2 30.9-2.6 5.1-7.4 22.1-8.1 28.5-.4 3.4-.4 3.3-.5-.6-.3-6.4 4.4-22.9 9.3-32.9 4.4-8.8 4-8.9-2.3-.9-1.5 1.9-1.9 2.2-1.2.7 1.2-2.7 1.3-3.6.1-2.9-.4.3-1.9 3.4-3.1 6.8-1.3 3.5-3.7 8.5-5.4 11.3-3.1 4.9-3.1 5.1-3.4 20.6-.3 13.2-.6 16-2 17.2-2 1.6-13.2 6.1-18.1 7.2-1.8.4-5.3 1.6-7.8 2.7s-5.8 1.8-7.3 1.6c-2.5-.4-2.7-.2-1.6 1.4 1 1.6 2.5 1.8 13.4 1.7 11.7-.1 12.4-.2 11.9-2-.3-1-.1-2.1.4-2.4.4-.3 1.1.6 1.5 2 .5 2 1.2 2.5 3.9 2.5s3.5-.5 4.5-3c.7-1.6 1-4.4.8-6.2-.3-1.8 0-4.6.7-6.3.7-1.6 1.3-6.8 1.3-11.5.2-11.9 1.2-21 2.9-24.3.7-1.5 1.6-2.7 1.9-2.7.2 0 0 .8-.5 1.8s-1.5 8.3-2.1 16.2c-1.9 24.2-2.7 32.4-3.5 34.3-.5 1.2-.2 1.7.9 1.7.9 0 1.6-.3 1.7-.8.8-10.3 3.4-23.6 6.3-31.7 2-5.5 4.2-13 5-16.7 1-4.4 4.7-13.1 11.1-25.8 5.3-10.5 9.9-18.9 10.2-18.7.2.3-3.6 8.8-8.6 19C90 445.7 86 456.3 86 461c0 .8-.7 2.8-1.5 4.4-.8 1.5-1.5 3.3-1.5 3.8s-1.1 3.7-2.4 7.1c-1.4 3.4-2.8 7.5-3.1 9.2l-.6 3 1.7-3c.9-1.6 2.2-3.5 2.8-4.1 1.1-1.1 3.2-7.3 5.5-16.9 1-3.9 1-3.9.4 1-.9 8.3-3 15.3-5.7 18.8-3.2 4.2-5.6 9.9-5.4 12.9.1 1.3-.2 3.3-.6 4.5-1.6 4.8 1.1 2 4.9-5.2 2.2-4.1 4.1-7 4.3-6.5.2.5-.2 1.9-.8 3.2-.7 1.6-.1 1.2 2-1.2 1.6-1.9 3-2.9 3-2.2 0 .7-1.8 3-3.9 5.1-4.5 4.5-8.1 9.6-6.4 9 2.3-.8 12.2-13.2 12.8-16 .4-1.5 1.5-3.9 2.6-5.3 2.9-3.7 7.4-14.2 12.3-28.9 4-12.1 5.6-17.8 8.5-30.7 1-4.4 1-4.4.6-.5-.3 2.2-.5 7.6-.6 12-.1 6-.3 7-.8 4l-.6-4-2.2 7.7c-2.6 8.8-2.8 10.3-.8 6.8 1.7-3 2-2.1.3 1.5-.6 1.4-1.5 2.5-2 2.5s-.7.4-.3.9c.3.5-1.3 5.1-3.5 10.2s-3.9 9.8-3.7 10.4c.2.5-.7 2.7-2 4.8-1.4 2.2-2.3 4.1-2.1 4.3.5.4 6.6-6.8 9.1-10.7 3.8-5.8 10-27.9 11.7-41.6.6-4.8 1.6-11.1 2.1-13.8.7-3.5.7-6.4 0-9.5-.6-2.5-1-8.3-.9-13l.1-8.5 1.3 13c1.3 11.5 1.2 14.4-.1 25-2 14.8-4.7 28.1-7.4 35.9-3.1 8.9-2.5 9.1 1.3.4 3.9-8.8 6.2-15.6 7.6-21.9l.9-4.4-.4 5.1c-.3 2.8-1.8 8.9-3.4 13.6-3 8.8-14.7 32.8-16 32.8-.8 0-14.1 16.4-14.1 17.4 0 1.9 2.2-.1 6.3-5.7 2.5-3.4 5.4-7.1 6.4-8.2 3.3-3.6 6.4-8.4 11.4-17.8 6.1-11.6 6.4-10.7.4 1.6-5.1 10.4-9.3 17.7-11.6 20.4-2 2.1-4.9 7.8-4.9 9.3 0 .5 1.4 1 3 1 1.7 0 3-.4 3-1 0-.5 2.1-4.4 4.7-8.7 4.8-7.9 11.9-23.3 12.7-27.5.2-1.3 1.1-3.9 1.9-5.8 2-4.6 7.2-22 8.7-29.5 1.2-5.8 2.4-17 1.4-13-.3 1.1-1.8 6.2-3.5 11.3-1.6 5.1-2.9 10.3-2.9 11.6 0 3.1-3.9 14.5-6.3 18.1-2.2 3.5-1.9 1.9 1.6-7.8 2.8-7.6 5.7-26 5.8-37.5 0-4.3.7-12.2 1.4-17.7l1.4-10-.6 8.5c-.9 11.5-1 32.5-.1 30.3 1.8-4.9 3-13.7 2.5-17.5-.4-2.9-.1-5.9 1-8.8 1.2-3.1 1.7-8.2 1.8-16.5.2-7.6 1-16.3 2.5-23.8 2.6-13.9 3.8-15.1 1.5-1.6-1.9 10.9-3.7 35.8-4 54.4-.2 16.7-1.1 23.6-4.1 30.8-1.3 3.2-3.3 9.3-4.4 13.5-1.2 4.2-3.9 11.6-6.1 16.5-2.1 4.8-3.9 9-3.9 9.5 0 .4 2.9-4.5 6.5-10.8 3.6-6.3 6.5-11.2 6.5-10.8 0 1.6-4.1 9.8-7.9 15.8-2.2 3.6-6.6 10.6-9.6 15.7-3.1 5.1-6 9.5-6.5 9.8-2 1.3-.9 2.5 2.3 2.5 3.1 0 3.5-.4 5.6-5.8 1.3-3.1 4.1-8.4 6.2-11.8 2.2-3.3 3.9-6.3 3.9-6.7 0-.6 4.1-9.9 7.8-17.7 1.1-2.5 1.1-2.5.5.4-.7 3.6-9.7 23-12.3 26.6-1 1.4-2.9 5.3-4.3 8.8l-2.6 6.2h47.4l3.7-7.8c7.1-15.1 10.7-30.3 11.8-48.7l.7-13 .1 10c.3 16.9-3.7 36.2-10.2 49.5-2.2 4.7-4.2 8.8-4.4 9.2-.9 2 1.4.5 2.4-1.5.6-1.2 4.1-7.8 7.6-14.7 5.6-10.6 10.4-22.7 12.1-30.5.4-1.6.5-1.5.6.5.2 4.4-5 18.1-12.5 32.7l-7.2 14.3h3.8c2.8 0 4-.5 4.3-1.8.4-1.6.5-1.6.6 0 0 1 .8 1.8 1.6 1.8 1 0 1.5-1.1 1.6-3.8.1-2 .5-4.8 1-6.2.6-1.7.7-.6.4 3.7l-.5 6.3h3c2.4 0 3.1-.5 4-3.3l1-3.2-.5 3.2-.4 3.3H202l-.4-3.3c-.2-1.7-.7-4.8-1.1-6.7-1.2-6.5-1.3-7.5-1.4-8.8-.1-1.7-2.1-1.5-2.1.3 0 .9-.6 1.2-1.5.9-.9-.4-1.5-1.9-1.5-4 0-5.2-1.8-4.1-2.2 1.4l-.3 4.7-.9-3.8c-.4-2-.5-5.8 0-8.5.8-4.3.8-4.5 1.2-1.5.4 3.8 2.2 4.5 2.2.9 0-1.3.6-2.6 1.3-2.9.9-.3 1.1.6.9 3.4-.3 2.4 0 3.9.7 3.9.6 0 1.2-1.5 1.2-3.3.1-1.7.3-2.4.6-1.4.2.9.9 1.5 1.4 1.1.5-.3.7-.9.4-1.4-.3-.5.3-.8 1.4-.7 1.1 0 1.7.5 1.4 1-.3.5 1.4.7 3.7.6 3.1-.3 4.4.1 5.1 1.4 1.1 1.9 5 2.2 8 .7 1.4-.8 1.9-.8 1.7.1-.2.7.8 1.8 2.3 2.5 1.4.7 4.9 3.6 7.8 6.4 2.9 2.7 5.6 5 6.1 5 1.2 0 6 8.2 6 10.3 0 1.5 1.3 1.7 9 1.7 5 0 9-.2 9-.5 0-.8-2.9-5.2-7.5-11.5-2.2-3-5.1-7.6-6.5-10.1-1.4-2.6-5.1-7.6-8.3-11.1-5.3-6-11.3-14.1-14.5-19.7-1-1.7-1-2.6-.2-3.6s.7-1.4-.2-1.8c-1-.4-1-.7.1-1.5s.8-1.3-1.5-2.6l-2.9-1.6 3 .6c1.7.4 5.2 1.7 7.9 3 2.8 1.2 5.3 2.1 5.8 1.8.4-.3.8-.1.8.5 0 1.3 6.9 4.4 16 7.1 7.9 2.4 20.1 8.2 21.9 10.4.8 1 .8 2.2.1 4-1.6 4.2-1.2 4.4 1.6.8 1.4-1.7 3.2-3.2 4-3.2.8 0 3.9 1.6 6.9 3.5 3 1.9 8.3 4.9 11.7 6.6 3.5 1.7 8.6 4.8 11.3 6.8 8.3 6.1 15.4 10.1 18 10.1 2.2 0 2.4.2 1.4 2.6-1.6 4.4-.4 3.7 1.9-1.2 1.9-3.8 2-4.5.7-5-1.9-.8-1.9-2.4 0-2.4.8 0 1.5-.5 1.5-1 0-.6-.7-1-1.5-1s-1.4-.4-1.2-.8c.1-.5-6.5-4.3-14.7-8.6-14.9-7.7-28.7-15.7-31.6-18.2-2.3-2-16-6.6-17.6-6-.9.3-1.2.1-.9-.4.3-.6.1-1-.4-1-2.5 0-.9-1.9 2.2-2.6 3.2-.7 3.2-.7.7-1.6-1.9-.6-1.6-.7 1.4-.3 2.1.2 3.5.1 3.2-.3-.4-.4 3.5-1.4 8.6-2.4 8.2-1.4 9.6-1.5 12.3-.2l3 1.5-2.7-2.7-2.7-2.8-5.8 1.6c-15 4.2-35 4.8-45.3 1.4l-4.5-1.5 4.5.7c2.5.4 11 .7 19 .7 12.1 0 16-.4 23.7-2.4l9.1-2.4 2.9 3.3c4.4 5.2 5.6 7.1 4.8 7.8-.3.3-1 0-1.5-.8-.6-.9-1-1-1-.3 0 1.2 8.9 8.4 14.5 11.8 2.2 1.3 1.8.7-1.3-2-2.3-2-4.7-4.7-5.4-5.8-.6-1.2 1.8.5 5.3 3.7s9.6 8.2 13.4 11.1c11.8 8.9 20.5 19.5 27.6 33.7 2.1 4.1 3.5 5.8 4.9 5.8 2.2 0 2-.5-4.7-16.5-1.3-3.3-2.9-7.1-3.5-8.5-.9-2.1-.4-3.8 3-10.5 2.2-4.4 4.7-10.5 5.6-13.4 2-6.9 2.1-18.2 0-25-.8-2.9-1.3-5.5-1-5.8.6-.6 4.6 12.2 4.6 14.7 0 1.1.4 2.1.9 2.4 1.5 1 2.1 7 1.2 12-.6 3.1-.5 4.4.1 3.8.5-.5 1.2-3.7 1.5-7.1.3-3.6 1-5.8 1.6-5.4.5.3.7 2.6.4 5.2-.5 4.5-.5 4.6.8 1.6 1.9-4 1.8-8.7-.1-13.3-2.7-6.5.3-2 5 7.5 4.5 8.9 4.6 9.4 4.6 18.6 0 12.6-3 21.1-13.1 36.4-1.5 2.4-1.7 3.3-.7 3.3.7 0 1.8-1 2.4-2.3.6-1.2 3-5.6 5.4-9.7 2.4-4.1 5.2-9.5 6.2-12 1.8-4.2 1.9-4.3 1.3-1-.3 1.9-1.4 5.2-2.5 7.2-2.4 4.6-1.7 5 .9.7 1.8-2.9 1.9-2.9 1.8-.8 0 1.3.3 3.5.7 4.9.6 2.1-.1 3.6-3.4 7.8-5.4 6.7-3.9 6.7 2.1 0l4.5-5.2 2.7 2c1.6 1.2 2.7 3.1 3 5.4.3 1.9.4-1.2.3-7-.2-10.1-.2-10.3 1-5.5.7 2.7 1.3 7.4 1.3 10.2l.1 5.3h3.5c3.4 0 3.5-.1 3.5-3.8 0-2-.9-9.3-2.1-16-2-12-2.1-12.6-.4-18.5 1-3.4 1.8-8.8 1.9-12 .1-4.8.3-5.4 1.1-3.5.6 1.3 2.9 5.1 5.3 8.5 3.3 4.9 4.9 8.8 7.2 17.5 3.5 13.4 3.6 15.2 1 21.9-2 5-2 7.3 0 5.3.5-.5 1.6-2.7 2.3-4.9l1.4-3.9 1.4 4.7 1.3 4.7h13.1l.1-8.3c0-4.5.2-15.6.3-24.7.3-17-.2-20.5-6.9-48.5-.5-2.2-.9-5.3-.8-6.8 0-2.9.1-2.9 2-.9 1.1 1 2.8 5 3.8 8.8l1.9 6.9-.6-6c-.3-3.3-.9-6.8-1.4-7.7-1.6-3-1-2.9 4.1.8 5.6 4 12.7 12.5 16.6 19.9 9 17 15.3 26.3 23.2 34.2 4.6 4.6 8.6 8.3 9.1 8.3.4 0-3-3.9-7.6-8.6-7.9-8.1-16.4-20.6-25.3-36.6-2.1-3.9-7.1-10-13.2-16.1-5.3-5.4-8.4-9-6.8-8 6.7 3.9 17.8 16.7 23.1 26.3 13.1 24.2 23.6 36.7 35.7 42.7 7.6 3.8 7.7 3.9 8.3 8.3l.7 4.5-.2-5c-.1-4.9-.1-4.9-6.1-8.5-7.1-4.2-11.9-8.9-17-16.7-17.8-27.6-22.3-34.8-26-42.3-5.2-10.1-17.1-25.6-22.3-28.8-2-1.3-8.9-4.9-15.2-8.2-6.3-3.2-12.4-6.6-13.5-7.5l-2-1.6 2 .9c14.4 6.8 17.9 8.2 19.8 8.2 3.2 0 16.1 4.2 24.1 7.9 4.9 2.2 8.5 4.9 12.8 9.4 7.1 7.3 17.8 20.3 17.8 21.6 0 .4 2.2 4.1 4.9 8.2 2.6 4.1 6.5 11.9 8.5 17.4 3.6 9.6 7.6 17.8 8.3 17.1.2-.1-.4-2-1.3-4.2-.9-2.1-3.1-8-4.9-13-6-17.2-22.2-40.7-35.6-51.5-6.2-5-22.2-12.4-29.9-13.9-7.2-1.3-17.8-5.8-19.8-8.3-1.2-1.4-.8-1.4 2.5.2 2.1 1.1 8.1 2.9 13.3 4.1 5.2 1.2 11.3 3.2 13.5 4.3 2.2 1.1 5.1 2.1 6.5 2.3 3.1.4 12.7 4.6 15.5 6.8 1.8 1.5-5.1-1.2-12.9-5-2.9-1.4-3-1.4-1.1.1 1.1.9 4.1 2.8 6.8 4.1 10.4 5.4 27.8 25.8 38.4 45 2 3.8 4.7 8.4 5.9 10.2 2.8 4.1 6 14 6.8 20.9.4 2.8 1.3 6.9 2.1 9 1.3 3.6 1.4 3 1.3-10 0-10.6-.3-13.7-1.4-13.7-.7 0-2.7-3-4.4-6.8-1.6-3.7-4.8-10.2-7.1-14.6-2.2-4.3-3.8-8-3.5-8.3.2-.3 1 .6 1.6 1.9 3.3 6.3 6.7 10.7 8.2 10.8 3.5 0 6.8-1.9 6.8-4.1 0-2-.2-2.1-1.7-.7-1 .8-2.7 1.8-3.8 2.2-1.3.4-.7-.6 1.7-2.9 4.4-4.1 3.7-4.6-1.2-1l-3.4 2.5-2.2-2.2c-1.3-1.3-4-5.5-6.1-9.3-4.4-8.2-10.2-16.1-12.2-17-1.1-.4-1-.1.2 1.3 2.4 2.6 2.1 3.9-.3 1.7-1.1-1-2-1.3-2-.7 0 .6.4 1.3.9 1.7 1.9 1.1 13.9 21.3 17.9 30 4.9 10.6 2.8 8.5-3-3-8.6-17.1-14.7-25.9-27-39.3-7.2-7.8-17.4-12.3-41.3-18.2-6-1.4-10.5-2.9-10-3.2 1.3-.7 17.4 1.8 24.5 3.8 3 .9 7.8 2.7 10.5 4l5 2.5-3-2.6c-1.6-1.4-5-3.2-7.5-4.1-2.5-.9-7.4-2.9-11-4.4-3.6-1.6-8.5-3.1-11-3.5-9.2-1.4-6.5-2 7.8-1.7 14.4.3 28.7 2.3 30.7 4.3.7.7-.3.8-3 .5-2.2-.3-6.9-.8-10.5-1.1-3.6-.3-8-.8-9.7-1.2-2-.3-3.3-.1-3.3.5 0 1 7 2.1 17.7 2.7 20.2 1.2 21.3 1.4 45.3 9.1 11.3 3.7 11.8 3.8 8 1.6-2-1.1-6.5-2.8-10-3.7-14.7-3.9-15.7-4.6-9.2-6.5 2.5-.8 4.5-.8 6.2-.1 2.3.9 2.1 1-1.7 1-2.3.1-4.5.6-4.9 1.2-.5.9.9 1 5.2.5 3.2-.4 8.6-1 11.9-1.4l6-.7-5.5-1.4c-3-.8-7.9-2.2-10.9-3.3-3-1-8.4-2.3-12-2.9-8.9-1.4-9.9-2.8-1.4-1.7 6.8.7 25.1 4.4 28 5.5 1.1.4 1.4.2 1.1-.8-.6-1.7-12.8-4.2-31.3-6.4-18-2.1-18.5-2.2-9.4-2.4 7.1-.1 21.8 1.6 33.8 3.9 2.9.5 5.9 1 6.5.9 2-.2-6.9-2.7-9.9-2.8-1.6-.1-3.7-.6-4.5-1.2-1.1-.8-.1-.9 4-.6 6.1.5 11-.8 11-2.9 0-.8-.9-1.4-2.1-1.4-1.1 0-3.3-.8-4.7-1.9-3.4-2.3-6.6-3-17.1-3.6-4.7-.3-8.9-.9-9.5-1.5-.5-.5-1.5-1-2-1-.6.1-.2.8 1 1.8 2 1.7 1.8 1.7-5 1.5-3.9-.2-9.3-.8-12.1-1.4-2.7-.6-6.6-.9-8.5-.7l-3.5.4 4.5 1.1 4.5 1.1-4 .2c-3 .1-3.5.3-2.1.9 1.8.7 1.8.8-.5 1.4-1.3.4-6.8.7-12.1.7-5.4 0-9.8.4-9.8.8 0 .9 13.9 3.1 26 4.2 4.1.4 6.5.7 5.4.8-1.2.1-3.2 1.1-4.5 2.2l-2.4 2 4-1.6c5.2-2.1 16.2-1.2 18.1 1.5.7 1 3.3 2.1 5.6 2.5 8 1.4 12.3 2.3 11.3 2.6-.5.1-5.9.3-12 .4-10.6.2-10.8.2-7.5-1.3l3.5-1.6-4-.3c-2.2-.2-4.8-1.1-5.8-1.9-1.4-1.4-2.5-1.4-7-.6-2.8.6-12.6 1-21.7.9-16.3-.3-16.6-.3-22.7-3.4-4.1-2.1-6.8-4.2-7.8-6.2-2.1-4.1-2-4.2 2.1-1.5 4.2 2.8 8.4 3.2 11.7 1 2.6-1.7 16.8-5.5 20.4-5.5 1.3 0 3.5-.7 4.8-1.6 1.6-1.1 4.2-1.5 7.7-1.3 9.6.5 16.5 0 14.8-1.1-.8-.6-4.4-.8-8-.6-3.6.3-5.7.3-4.8 0 2.6-.8-5.1-7.3-10.5-8.9-6.2-1.8-8.1-.5-4.4 3.2 1.5 1.5 2.7 2.2 2.7 1.6 0-.7-1-1.9-2.2-2.7-2.8-2-.4-2.2 3.8-.4 3.8 1.7 4.3 4.5.9 5.4-4.1 1-13.3-.1-15.2-1.9-1-.8-3.1-1.8-4.8-2.1l-3-.6 2.5 1.2c1.4.7 3.6 2.3 4.8 3.6 1.9 1.9 3.3 2.2 9.5 2.2 8 0 7.8 1.9-.3 2.1-2.5 0-5.4.4-6.5.9-1.3.5-3.2.2-5.5-1-1.9-1-7.1-2.5-11.5-3.4-4.4-.9-9.2-2.5-10.7-3.6-2-1.4-2.6-1.6-2.2-.6.7 1.8 8.1 5.5 11.5 5.8 1.3 0 .2.4-2.6.8l-5 .6 3.5 1.7c5.4 2.5 9.8 5.7 7.9 5.7-.9 0-3-.7-4.5-1.5-1.6-.8-3.7-1.5-4.6-1.5-1.6 0-5.8-4.4-5.8-6.1 0-.5-2.7-5.7-6-11.7-6.4-11.7-13-27-13-30.3 0-1.1-.6-3.2-1.4-4.7-2.5-5.1-6.6-23.7-7.7-35.2-.5-6.3-1.4-18-1.8-26-.6-9.9-1.5-17-3.1-22.4-1.4-5.2-2-9.4-1.7-12 .3-2.2-.1-8.7-.8-14.5-.8-5.8-1.9-16.6-2.4-23.9-.6-7.3-1.8-16.3-2.6-19.9-.9-3.7-1.8-9.1-2-12-.3-3-3.2-13.4-6.5-23.1-3.3-9.7-6.8-20.2-7.6-23.2-.9-3-4.6-11.1-8.2-18-6.1-11.4-6.7-13.2-7.4-20.5-.7-7.8-2.6-40.2-2.7-45.8L319 0h-11.5c-7 0-11.5.4-11.5 1 0 1.4-2.6 1.3-5-.2-1.6-1.1-2.2-.9-3.4.7-2.2 2.9-1.9 3.6 1 2.9 1.9-.5 3.2 0 5.5 2.2 2.7 2.5 2.8 2.9 1.2 3.5-1 .4-4.5.3-7.7-.3-3.3-.5-6.5-.7-7.3-.4-1.6.6-1.7-.6-.2-2.1 1.3-1.3-3.4-4.3-9.9-6.3-3.9-1.2-4.4-1.2-5.7.6-1.3 1.7-1.4 1.7-1.5.1 0-1.1-.8-1.7-2.5-1.7-2.2 0-2.5.4-2.5 3.2zM277 6c-.2 2.9-15 6.4-15 3.5 0-4 1.1-4.5 8.1-4.3 3.8.2 6.9.5 6.9.8zm7 7.5c0 1.6 5.1 3.5 9.9 3.5 2 0 4.4.7 5.4 1.4 1.6 1.3 1.6 1.4-.3 1.9-2.3.6-12.4-.7-15.5-2-1.1-.4-3-1.5-4.2-2.3l-2.2-1.4 2.6-1.8c2.8-1.8 4.3-1.6 4.3.7zm-7 3.5c.8.5 1.1 1 .5 1-.5 0-1.7-.5-2.5-1s-1-1-.5-1c.6 0 1.7.5 2.5 1zm15.8 7c1.7 1.1 3.2 2.2 3.2 2.6 0 .4-6-2.8-7.9-4.3-1.6-1.2 2 .1 4.7 1.7zm18.1 9.4c1.2 2.5 2.1 5.4 1.9 6.3-.2.9-1.5-1.3-3-5-3-7.5-2.4-8.2 1.1-1.3zm-25.4 6.2c5.1 3.4 9.4 7.4 10.7 9.9.6 1.1-.9.1-3.2-2.3-2.3-2.4-6.3-5.6-8.8-7.2-2.6-1.6-4.2-3-3.7-3 .6 0 2.8 1.2 5 2.6zM325.4 66c5 7.9 6.7 11 6.3 11-.3 0-2-2.4-3.7-5.3-1.8-2.8-5.1-7.5-7.3-10.2-3.7-4.6-3.8-4.7-.8-2 1.8 1.6 4.3 4.6 5.5 6.5zm-92.2-7.2c-1.9 1.3-15.5 1.4-14.7.2.3-.5 4.1-1 8.3-1 4.3 0 7.1.4 6.4.8zm21.3 6.2c1.3.5 1.4.9.5.9-.8 0-2.4-.4-3.5-.9-1.3-.5-1.4-.9-.5-.9.8 0 2.4.4 3.5.9zM206 71.5c0 .2-1.3 1.1-3 2-3.8 1.9-4 1.1-.2-.9 3.1-1.7 3.2-1.8 3.2-1.1zm12.8 2.1c-.8.7-15.1 4.4-15.6 4-.3-.4 7.4-3 11.3-3.9 3.1-.7 4.9-.8 4.3-.1zm98.1 9.8c2.9 3.7 5 7 4.8 7.2-.6.6-7.2-7.6-9.8-12.2-2.9-5.1-1.3-3.5 5 5zm-144.7 29.8c-2.9 7.5-8.9 19.5-6.9 13.8 1.2-3.2 8-19.6 8.8-21.3 2.2-4 1.5-1.1-1.9 7.5zm165.7 16.3c2.4 9.5 4.4 25.6 3.8 30.5-.3 3-.4 2.9-.5-1.2-.3-7.2-2.1-19.5-4.1-27.3-2-7.6-3.8-18.5-2.1-13 .4 1.6 1.8 6.6 2.9 11zm-11.2 1.7c-.3.8-.6.5-.6-.6-.1-1.1.2-1.7.5-1.3.3.3.4 1.2.1 1.9zm-133 7.5c-2 .2-5.2.2-7 0-1.7-.2 0-.4 3.8-.4 3.9 0 5.3.2 3.2.4zm18.8 12c4.1 2.1 6.3 4.1 12.4 10.9 3.3 3.6 3.5 4.1 3.3 10.3-.6 16.3-4.3 26.2-12.6 33.8-6.6 6.1-13 8.3-23.5 8.3-18.8 0-33.3-14-36.3-34.9-.9-6.3-1.5-8-2.9-8.4-2.8-.7-2.3-2.7.9-3.8 1.6-.5 4.3-2.9 5.9-5.3 2.2-3.1 5-5.3 9.6-7.6 10.2-5 14.9-6 27.7-5.7 9.4.2 12.2.7 15.5 2.4zm-61.4 7.7c-2.6 7.1-5.1 18.8-5.1 24.3 0 4.6-2 7.1-2.1 2.6-.1-2.8-.1-2.7-1.4.7-2.2 5.7-1.7 2.3.9-5.9 1.3-4.2 3.4-11 4.6-15.1 2.6-9.2 4.1-13.2 4.7-12.6.3.3-.4 3-1.6 6zm195.6 25.8c-.2 2.4-.4.7-.4-3.7s.2-6.3.4-4.3c.2 2.1.2 5.7 0 8zm-18-2.5c-.3 1-.5.4-.5-1.2 0-1.7.2-2.4.5-1.8.2.7.2 2.1 0 3zm15 8.5c-.2 1.8-.4.4-.4-3.2s.2-5 .4-3.3c.2 1.8.2 4.8 0 6.5zm-4-.5c-.2 1.6-.4.5-.4-2.2 0-2.8.2-4 .4-2.8.2 1.3.2 3.5 0 5zm18.3 11.4c.5 6.3 1.8 15.2 2.8 19.9 1.3 5.8 2.1 14.2 2.5 26.5.6 17.9.6 17.9-.9 10.5-2.4-12.2-3.3-20-3.4-28.5 0-4.4-.7-10.9-1.5-14.5-1.4-6.1-2.1-27-1-25.8.3.3 1 5.7 1.5 11.9zm-20.5.9c-1.5 9.5-3.6 18.3-4.1 17.7-.2-.2.5-4.6 1.5-9.8 1-5.2 2.2-11.1 2.6-13.3.3-2.1.8-3.6 1-3.4.2.2-.2 4.2-1 8.8zm8.2 18.7c-.2 2.1-.4.4-.4-3.7 0-4.1.2-5.8.4-3.8.2 2.1.2 5.5 0 7.5zm-13 2.5c-.3.8-.6.5-.6-.6-.1-1.1.2-1.7.5-1.3.3.3.4 1.2.1 1.9zm-191 4.5c-.3 1-.5.4-.5-1.2 0-1.7.2-2.4.5-1.8.2.7.2 2.1 0 3zm-4 12.5c-.3.7-.5.2-.5-1.2s.2-1.9.5-1.3c.2.7.2 1.9 0 2.5zm205.1 4.5c-.4 4.2-10.5 27.9-11.4 27-.2-.2 2.1-5.7 5.1-12.3 3.6-7.7 5.5-13.2 5.5-15.6 0-2.1.3-3.8.6-3.8.4 0 .4 2.1.2 4.7zm-176.1.5c-.3.8-.6.5-.6-.6-.1-1.1.2-1.7.5-1.3.3.3.4 1.2.1 1.9zm186 0c-.3.8-.6.5-.6-.6-.1-1.1.2-1.7.5-1.3.3.3.4 1.2.1 1.9zm-205.1 15.1c-1.6 12.2-6.5 34-11.7 51.7-4.4 15.4-11 35.3-12.1 36.7-.5.7-.7 1.7-.3 2.3.4.6-.1 4.3-1 8.3-.9 3.9-2.3 11.7-3 17.2-1.7 12.2-5.7 33.8-7.9 42-1.9 7.1-6.7 20.2-8.5 23l-1.3 2 .8-2c.4-1.1 1.3-4.1 2-6.6.7-2.6 1.9-6 2.8-7.6 2-4 5.9-21.5 8.6-38.8 1.2-7.7 3.2-19.1 4.6-25.4 1.3-6.3 2.2-11.6 2-11.8-.7-.7-3.5 9-4.6 16.2-.6 3.8-1.5 8.6-2 10.5-1 3.7-9.8 16.6-10.7 15.6-.3-.3 1.2-2.9 3.4-5.8 5.1-6.8 7.1-12 7.9-20.5.3-3.7 2-10.4 3.6-14.8 1.7-4.4 3.8-10.7 4.8-14 1-3.3 3.9-11.9 6.5-19 5.8-16.1 12.9-44.9 15.2-61.5 1-6.9 1.9-11.8 2.1-10.9.2.9-.4 6.9-1.2 13.2zm203.8-1.3c.6 4.3.5 4.3-.9-1-.8-3-1.4-6.9-1.3-8.5 0-2.6.2-2.5.8 1 .5 2.2 1.1 6 1.4 8.5zm3.5 2c.1 2.8 4.4 18.1 9.6 34.2 1.9 5.9 3.5 11.6 3.5 12.5-.1 1.8-5.7-14.8-10.5-31.2-2.5-8.3-3.6-13.6-4.9-24-.5-3.6-.4-3.5.8 1 .8 2.7 1.5 6.1 1.5 7.5zm-31.9-.8c-1.7 3.6-4.5 8-6.1 9.9-2.8 3.2-3.1 2.2-.3-1.1 1.9-2.3 8.4-15.7 8.5-17.7.1-1.4.3-1.3.6.3.2 1.2-1 5-2.7 8.6zm-182.3-6c-.3.7-.5.2-.5-1.2s.2-1.9.5-1.3c.2.7.2 1.9 0 2.5zm-14.1 4.6c-1.4 2-3.7 5-5 6.7-2.1 2.5-2.4 2.6-2 .8.3-1.2 2.1-3.9 4-6s3.7-4.7 4.1-5.8c.4-1.3.8-1.5 1.1-.7.2.7-.8 3-2.2 5zm7.4 2.1c-1.1 2.3-2.3 4.1-2.5 4.1-.3 0 .4-1.8 1.5-4 1.1-2.1 2.1-5 2.1-6.2.2-2.2.2-2.3.6-.1.2 1.2-.5 4-1.7 6.2zm-26.3-.7c-.2 1.3-.4.5-.4-1.7-.1-2.2.1-3.2.4-2.3.2 1 .2 2.8 0 4zm230.3 4.5c-2.3 4.8-5.5 12.3-7.1 16.6-1.6 4.2-3.5 8.9-4.3 10.5-.7 1.5-2.6 7.2-4.2 12.7-1.6 5.5-3 9.3-3.2 8.5-.4-2.3 5-19 10.6-32.5 5.5-13.4 11.4-25.7 12-25 .2.2-1.5 4.4-3.8 9.2zm-197.3-4.5c-.3.7-.5.2-.5-1.2s.2-1.9.5-1.3c.2.7.2 1.9 0 2.5zm1 5c-.3.8-.6.5-.6-.6-.1-1.1.2-1.7.5-1.3.3.3.4 1.2.1 1.9zm31.3 1.3c0 .5-.5.3-1-.5s-1-2-1-2.5c0-.6.5-.3 1 .5s1 1.9 1 2.5zm-35.6 5.4c-.9 2.3-1.8 4-2.1 3.8-.2-.3.4-2.3 1.3-4.6s1.8-4 2.1-3.8c.2.3-.4 2.3-1.3 4.6zm1.6 5.1c-1.3 4.4-2.5 7.8-2.7 7.6-.3-.2.6-4 1.8-8.5 1.3-4.4 2.5-7.8 2.8-7.6.2.3-.6 4.1-1.9 8.5zm-33.6-2.7c-1.4 2.6-2.8 4.7-3 4.7-.6 0 2.5-7.1 3.8-8.7 2.2-2.7 1.8-.5-.8 4zm28.3-1.1c-.3.8-.6.5-.6-.6-.1-1.1.2-1.7.5-1.3.3.3.4 1.2.1 1.9zM86 280.7c-3.5 3.8-6.8 7.2-7.3 7.8-.7.6-.7.5-.2-.5 1.4-2.5 12.9-14.9 13.4-14.4.2.2-2.4 3.4-5.9 7.1zm39-1.2c-1.1 2.2-2 3.4-2 2.7 0-1.6 3-7.5 3.6-7 .2.3-.5 2.2-1.6 4.3zm202.6 3.2c-.8 1.5-1.5 2.5-1.6 2.1 0-1.2 2.3-5.8 2.7-5.4.3.2-.2 1.7-1.1 3.3zm-194.2 1.5c-.4 1.3-1.3 4.8-2 7.8-.7 3.1-1.2 4.4-1.3 2.9-.1-2.7 2.6-12.9 3.5-12.9.3 0 .2 1-.2 2.2zm220.3 1c-.3.8-.6.5-.6-.6-.1-1.1.2-1.7.5-1.3.3.3.4 1.2.1 1.9zm-184.6 28.3c-.6 2.7-1.5 9.7-2 15.5l-.9 10.5.5-12c.2-6.6.9-13.6 1.4-15.5.5-1.9 1-9.1 1.1-16l.2-12.5.4 12.5c.2 6.9-.1 14.7-.7 17.5zm156-24.8c-1.2 2-1.4 1.4-.5-1.2.4-.9.9-1.4 1.1-1.1.3.2 0 1.3-.6 2.3zm29.6.5c-.3.8-.6.5-.6-.6-.1-1.1.2-1.7.5-1.3.3.3.4 1.2.1 1.9zm-1.7 5.5c0 4.6 14.9 38.7 22.3 51.2 3.4 5.7 8.2 12.6 10.8 15.2 4.6 5 5.1 6.2 1.2 3.1-3.1-2.4-8-9.3-14.5-20.2-5.5-9-7.3-12.9-16.4-34.8l-3.9-9.3-1.1 6.4c-.7 3.5-2.5 9.5-4 13.3-3.1 7.9-11.2 24.4-11.9 24.4-.6 0 .9-3.5 7.4-17.2 6-12.5 8.1-20.5 8.1-30.8 0-5.2.3-7 1-6 .5.8 1 3 1 4.7zM126.8 298l-.1 4.5-.8-4.5c-.5-3.2-.7-1.5-.5 5.8.2 7.4-.1 11-1.1 13-.8 1.5-2.1 4.3-2.9 6.2l-1.4 3.5 3.6-4c2-2.2 4.5-5.4 5.5-7 1.1-1.7 1.9-2.5 1.9-1.9 0 1.1-4 6.7-13.5 18.7-5 6.3-5.8 8.3-2 4.7 4.2-4 2.8-1.2-3.2 6.1-5.3 6.4-7.5 9.1-14.1 17.5-2.8 3.6-1.9 1.5 2.4-5.1 1.8-2.8 4.8-6.6 6.8-8.4 2-1.9 3.6-3.9 3.6-4.5 0-.6-2 1-4.5 3.4-4.1 4.1-10.3 13-14.7 21.3-.9 1.8-1.7 2.5-1.8 1.7 0-1.7 8.9-16.8 13.1-22.1 1.6-2 2.9-4.7 2.9-5.8 0-1.2.9-3.9 1.9-6 1.8-3.5 1.9-4.2.6-9.1-1.2-4.7-1.2-6 .1-10.4 2.4-7.6 2.4-7.6 1.9-.6-.6 7.4.9 5.8 2.2-2.5l.8-5 .3 4.3c.2 2.9-.4 5.7-1.7 8.6-1.2 2.3-2.1 5.6-2 7.2l.1 2.9 1.3-3c.9-2 1.4-2.4 1.5-1.2 0 1-1.4 4.4-3.1 7.7-1.7 3.3-2.8 6.4-2.4 7 .9 1.5 2.7.1 2.1-1.7-.3-.8-.2-1.1.3-.8 1 .6 5.5-5.4 8.4-11.2 1.9-3.7 2.2-6.5 1.4-15.3l-.6-6.5 1.2 7c1.1 6.2 1.4 6.8 2.5 4.9.7-1.3 1-6.3.9-13.5-.2-11.3.8-16.4 2.4-12.3.4 1 .7 3.9.7 6.4zM378 333.5c4.4 7.1 10.5 15.5 13.4 18.5 7.8 8.2 8.9 10.4 1.7 3.5-8.9-8.6-23.4-31-31.7-49.3-1.9-4.1-3.7-7.2-4-6.9-.3.3 1.6 5.4 4.4 11.4 2.7 5.9 6 13.5 7.3 16.8 2.5 6.5 9.8 18.9 15.8 27 5.1 6.8 6 8.7 2.2 4.5-3.6-3.9-12.1-16.4-12.1-17.7 0-.4-1.4-2.8-3-5.3-1.7-2.5-3.9-7.2-4.9-10.5-1.1-3.3-4-10.2-6.5-15.4-2.7-5.6-4.4-10.2-4-11.3.3-1 .2-1.8-.3-1.8s-1-1.5-1.1-3.3c-.2-2.3 1.8 1 7.2 11.8 4.1 8.2 11.1 20.8 15.6 28zm-244.6-35.1c-1 3.1-1.9 5.4-2.2 5.2-.2-.2.4-2.9 1.4-6 1-3.1 1.9-5.4 2.2-5.2.2.2-.4 2.9-1.4 6zm-50.9 2c-1.4 3.2-2.8 5.6-3 5.4-.3-.3.7-3.3 2.2-6.7 1.5-3.5 2.9-5.9 3-5.4.2.5-.8 3.6-2.2 6.7zm14-3.4c-1.8 3.4-1.9 4.4-.4 3.4 1.2-.7-.9 3.5-4 8.1-1.2 1.6-2.1 2.5-2.1 1.9 0-.6 1.1-2.8 2.5-4.9 1.5-2 2.4-4 2.1-4.2-.3-.3-1.5 1.1-2.7 3.1-1.2 2-2.4 3.5-2.7 3.2-.5-.5 7.6-13.6 8.4-13.6.3 0-.2 1.3-1.1 3zm45.6.7c-1.2 2-1.4 1.4-.5-1.2.4-.9.9-1.4 1.1-1.1.3.2 0 1.3-.6 2.3zm176 10.2c-5 13.7-6.1 22.3-6 45.7l.2 20.9-3.7 10.7c-4.7 13.8-6.4 26.2-4.7 35.6.7 3.7 1.6 7.4 2.2 8.2.7 1.1.8.7.4-1.5-.3-1.7-.2-2.3.1-1.5.4.8 1.4 2.8 2.2 4.5 1.5 2.9 1.4 2.9-.4 1.5-1.4-1.2-1.3-.7.6 2.5 2.7 4.5 23.6 27.1 25.8 28 1.4.5-14.2-16.8-18.8-21-1.2-1.1-2.7-2.9-3.2-4-.6-1.1-.8-1.8-.5-1.5.3.3 4.2 3.9 8.6 8 4.5 4.1 8.6 7.5 9.2 7.5.6 0 3.3 2.5 6 5.5l5 5.5-4.3-5.6c-2.4-3.1-9.4-11.4-15.6-18.5-14.3-16.2-17.7-21.8-16.7-27.9.5-3.9 1.5-5.2 7.8-11 4.2-3.8 8.1-6.5 9.4-6.5 2.5 0 9.4 5.5 17.2 13.8 3.9 4.2 4.8 4.8 3.1 2.2-1.2-1.9-5.9-7-10.4-11.3-4.4-4.4-6.7-6.8-5.1-5.5 14 10.8 19.6 17.6 26.7 32.4 3.9 8 4.3 9.8 4.6 17.6.3 6.3-.1 10.1-1.3 14-2.1 6.3-6 14.3-8.7 17.7l-1.9 2.5-17.8-18c-20-20.1-23-24.5-25.2-37.5-1.7-10.3-.1-23.1 4.5-36.6l3.5-10.1-.1-21.3c-.1-23.8 1.4-33.7 6.8-47.7 3.9-9.8 4.2-7.6.5 2.7zm-218.6-6.7c-.4 1.3-1.9 4.1-3.5 6.3-3.2 4.7-10 19.1-10 21.4-.1.9-.8 2.7-1.6 4.1-.8 1.4-1.3 1.7-1 .8.3-.9.8-3.4 1.2-5.5.7-3.8 5.8-14.4 11.7-24 3.5-5.8 4.1-6.4 3.2-3.1zm18.1 1.9c-.9 2-1.5 2.7-1.6 1.6 0-2 1.9-6.1 2.6-5.4.2.2-.2 1.9-1 3.8zM65.8 305c-1.1 2.8-2.3 4.8-2.5 4.6-.5-.5 3.4-9.6 4.1-9.6.3 0-.5 2.3-1.6 5zm12.5-1.8c-.7 3.8-3.2 9.2-3.9 8.5-.3-.3.1-1.8.9-3.4.8-1.5 1.7-4 2.1-5.6.9-3.8 1.7-3.4.9.5zm70.4 7c-.3.7-.5.2-.5-1.2s.2-1.9.5-1.3c.2.7.2 1.9 0 2.5zm-50.3 6.3c-2.3 6.1-2.8 5.1-.8-1.6.9-3 1.9-4.8 2.1-4.2.3.7-.3 3.3-1.3 5.8zm2.2 2.4c-2 3.9-3.6 7.7-3.6 8.6 0 1.7-6.7 9.5-8.2 9.5-.6 0 .8-2 3.1-4.5 2.2-2.4 4.1-4.9 4.1-5.5 0-1.6 7.1-16.2 7.6-15.7.3.3-1.1 3.7-3 7.6zm47.1-2.7c-.3.7-.5.2-.5-1.2s.2-1.9.5-1.3c.2.7.2 1.9 0 2.5zM381.6 334c.2.8-1.6-2.6-4-7.5-2.5-5-4.5-9.9-4.5-11 0-1.7 7 13.7 8.5 18.5zM94.4 320.4c-.3.8-2.4 5-4.7 9.3-8.9 17.1-12.6 25.4-14.7 32.7-1.2 4.2-2 8.2-1.8 8.7.2.6 1.9-1.9 3.8-5.5 1.9-3.5 3.6-6.3 3.8-6.1.6.6-2.7 7.5-5.2 10.8-1.5 1.9-2.6 4.7-2.6 6.3 0 1.6-.5 3.6-1 4.4-1.6 2.5-1.2-10.8.5-17.5.9-3.3 3.1-8.9 4.9-12.5 1.8-3.6 3.7-7.6 4.1-9 .4-1.4 1.8-4.1 3-6 1.2-1.9 3.9-6.5 5.9-10.3 3.4-6.2 5.3-8.7 4-5.3zm23.3 1.8c-.3.7-.5.2-.5-1.2s.2-1.9.5-1.3c.2.7.2 1.9 0 2.5zm9.1 4.8c-1.7 3.6-3.6 7.2-4.3 8-.7.8-1.2 2.2-1.2 3 0 .8-1.9 4.7-4.2 8.6-2.2 3.9-4.1 7.4-4.1 7.8 0 1.8 2.2-1 5.1-6.5 1.8-3.2 3.4-5.7 3.6-5.5.8.8-5.6 12.3-7.1 12.9-.8.3-2.5 2.5-3.7 4.9-4.4 8.7-12.5 22.5-17 28.8-2.6 3.6-5 7.6-5.4 8.8-.4 1.3-2 4.4-3.7 6.8-1.6 2.4-4.9 8.7-7.4 13.9-2.4 5.2-4.6 9.5-4.9 9.5-.8 0 6.3-15.9 9.2-20.6 1.5-2.5 4.4-7.4 6.3-11 1.9-3.5 6.7-11.7 10.6-18.2 7.8-12.6 14.8-26.1 14.1-26.9-.3-.2-3.5 5.4-7.2 12.4s-7.3 13.5-8.2 14.3c-1.8 1.9 8.9-21.2 12.2-26.2 1.4-2.1 2.5-4.2 2.5-4.6 0-.5 2.9-4.9 6.5-9.7 3.6-4.9 6.5-9.3 6.5-9.8 0-1.2 4.1-7.9 4.5-7.5.2.2-1 3.3-2.7 6.8zm-22.3 3c-2.7 7.8-3.1 10.4-1.4 8 .7-1.1.8-.6.4 2-.8 4.1-3.6 8.9-6.7 11.6l-2.2 1.9 1.7-2.5c3.6-5.3 5.8-10.2 5.3-11.8-.6-1.6 2.4-13.8 3.9-16.2 1.7-2.8 1.3.3-1 7zm-10.9-2.3c-.8 1.5-1.5 2.5-1.6 2.1 0-1.2 2.3-5.8 2.7-5.4.3.2-.2 1.7-1.1 3.3zm35.9 14.8c-2.4 7.7-4.4 13.3-4.5 12.5-.1-1.9 8.4-28.4 8.7-27.3.2.4-1.7 7.1-4.2 14.8zm-16.1-9.6c-2.9 4.4-4.2 5.5-2.3 1.8 2.2-4 4.2-6.8 4.6-6.3.3.2-.8 2.3-2.3 4.5zm8.7-3.2c-1.5 2.8-4 5.9-4.1 5 0-.8 4.1-6.7 4.7-6.7.2 0-.1.8-.6 1.7zm210.6 5.5c-.3.8-.6.5-.6-.6-.1-1.1.2-1.7.5-1.3.3.3.4 1.2.1 1.9zm55.8 2.8c1.4 2.7 2.3 5 2 5-.2 0-1.6-2.3-3-5-1.4-2.8-2.3-5-2-5 .2 0 1.6 2.2 3 5zm-245.8.2c-.3.8-.6.5-.6-.6-.1-1.1.2-1.7.5-1.3.3.3.4 1.2.1 1.9zm-4 3c-.3.8-.6.5-.6-.6-.1-1.1.2-1.7.5-1.3.3.3.4 1.2.1 1.9zm26.8 8.7c-.4 3.1-1 5-1.2 4.3-.3-.8-.2-4.4.3-8 .4-3.7 1-5.6 1.2-4.3.2 1.4.1 5-.3 8zm276-8.9c.3.5.2 1-.4 1-.5 0-1.3-.5-1.6-1-.3-.6-.2-1 .4-1 .5 0 1.3.4 1.6 1zm-134.9 7.8c0 5.7-.1 6.2-.9 3.3-.7-2.8-.3-10.1.6-10.1.1 0 .2 3 .3 6.8zm-168.9-3.6c-.3.8-.6.5-.6-.6-.1-1.1.2-1.7.5-1.3.3.3.4 1.2.1 1.9zm-110.8 3.9c-1.9 1.1-2 .6-.6-2.4 1.1-2.5 1.2-2.5 1.5-.6.2 1.2-.2 2.5-.9 3zm304.8-2.9c-.3.8-.6.5-.6-.6-.1-1.1.2-1.7.5-1.3.3.3.4 1.2.1 1.9zm-160.8 10.3c1.1 6.1 2.7 14.2 3.5 18 1 4.6 1.6 14 1.8 26.5.3 17 .1 19.9-1.5 23-.9 1.9-1.5 2.6-1.1 1.5 3.1-10.5 2-36.6-2.6-61.5-1.6-9-3-17.1-3-17.9 0-3.5 1 .2 2.9 10.4zm-87.8-8.2c-1 .9-1.1.8-.5-.6.3-1 .9-1.5 1.2-1.2.3.3 0 1.1-.7 1.8zm59.6 2.4c-.3 1-.5.2-.5-1.7s.2-2.7.5-1.8c.2 1 .2 2.6 0 3.5zm31.6 8.3c.3 5.2.2 7-.3 4.5-1.1-5.8-2-18.5-1.1-15.5.4 1.4 1 6.3 1.4 11zm11.6-4.4c1.8 4.8 3 9.2 2.8 9.7-.2.6-1.5-2.3-2.9-6.4-3.4-9.7-4-11.9-3.5-11.9.3 0 1.9 3.9 3.6 8.6zm-49.2-4.4c-.3.7-.5.2-.5-1.2s.2-1.9.5-1.3c.2.7.2 1.9 0 2.5zm164 1c-.3.7-.5.2-.5-1.2s.2-1.9.5-1.3c.2.7.2 1.9 0 2.5zM192 353.4c0 2.6-.6 1.8-1.4-1.9-.5-2.2-.4-2.6.4-1.5.5.8 1 2.4 1 3.4zm-110.7-1.9c-.3.9-.8 1.4-1 1.1-.3-.3-.2-.9.2-1.5.9-1.6 1.5-1.3.8.4zm95.4.7c-.3.8-.6.5-.6-.6-.1-1.1.2-1.7.5-1.3.3.3.4 1.2.1 1.9zm241.6-1.5c-.7.2-1.9.2-2.5 0-.7-.3-.2-.5 1.2-.5s1.9.2 1.3.5zm-346.8 7.9c-1.4 3.8-2.5 6.2-2.5 5.3 0-1.4 1.1-5.2 3.5-11.8.3-.8.7-1.2 1-.9.2.2-.7 3.5-2 7.4zm33.4-1.9c-4 7.2-16.8 27.5-20.6 32.7-1.5 2.1-4.8 6.6-7.1 10-4.9 6.8-10.1 12.6-11.5 12.6-.5 0 1.5-2.6 4.3-5.8 2.8-3.1 5.9-7.1 6.7-8.7.9-1.7 3-4.6 4.7-6.5 1.7-1.9 5.8-8.2 9-14 5.8-10.1 16.3-26 17.3-26 .2 0-1 2.6-2.8 5.7zm-69.8-2c1.3 1.5 1.2 1.5-.8.4-2.4-1.2-2.9-2.1-1.4-2.1.5 0 1.5.7 2.2 1.7zm106.2 17.2c-.4 12.1-.9 17.7-1.5 16.6-.6-1-.6-7.3.1-16.6.6-8.2 1.1-15.9 1.1-17.1 0-1.2.2-1.9.4-1.7.3.3.2 8.7-.1 18.8zm37.5-11.4c0 1.6-.2 1.5-.8-.5-.4-1.4-.8-3.4-.8-4.5 0-1.6.2-1.5.8.5.4 1.4.8 3.4.8 4.5zm-137.3-4.7c-4.9 4.2-15.1 10.9-14 9.2 1-1.6 12.7-10 13.9-10 .6 0 .6.3.1.8zM23.1 364c-1.1 2.2-1.7 4-1.3 4 .8 0 5.2-6.2 5.2-7.4 0-.9 4.2-4.5 5.3-4.6 1.6 0-8.6 12-13.9 16.6-4.8 4-5.7 4.4-8.9 3.8-4.8-.9-4.6-2.8.3-2.1 3.2.5 4.2.1 7.7-3 2.2-2 3.2-3.3 2.2-2.9-1.6.5-1.4.1.6-2.3 1.3-1.6 2.8-4.7 3.3-6.8.6-3 .8-3.3 1.2-1.5.2 1.3-.6 4.1-1.7 6.2zm67.9-3.8c-1.8 2.4-5.6 8-8.6 12.4-3 4.5-6.2 8.8-7.1 9.5-1.7 1.5 10-16.1 14.9-22.4 4.1-5.1 4.7-4.7.8.5zm-31.9 1.2c-1.2 1.2-2.2 3.7-2.3 5.7l-.1 3.4-.4-3.1c-.3-2.1.4-4.3 1.9-6.6 1.3-1.9 2.5-3.1 2.7-2.6.2.5-.6 2-1.8 3.2zm65.6-2.2c-.3.8-.6.5-.6-.6-.1-1.1.2-1.7.5-1.3.3.3.4 1.2.1 1.9zm356.8-.2l3 .8H481c-1.9 0-4.8-.4-6.5-.8l-3-.8h3.5c1.9 0 4.9.4 6.5.8zm-102.4 5.2c3.1 4.3 1.7 3.4-2.1-1.5-1.9-2.3-2.6-3.6-1.7-2.8 1 .8 2.7 2.7 3.8 4.3zm-271.4 8.2c-3.1 6.3-6.1 11.7-6.6 12.1-1.3.8.6-3.6 4.6-10.5 1.7-3 3.9-7.4 4.8-9.8 1-2.4 2-4 2.3-3.7.3.3-2 5.6-5.1 11.9zm62.1-4.4c.1 2.3 0 2.3-.8.5-.5-1.1-.8-3.4-.8-5 0-2.9 0-2.9.8-.5.4 1.4.8 3.6.8 5zm-9.1 1.7c-.2 1.6-.4.5-.4-2.2 0-2.8.2-4 .4-2.8.2 1.3.2 3.5 0 5zm19-3c-.3 1-.5.4-.5-1.2 0-1.7.2-2.4.5-1.8.2.7.2 2.1 0 3zm-96.3-1.5c-3.4 5.7-7.6 11.8-8 11.8-.2 0 .1-1 .7-2.3 1.8-3.3 6.9-10.7 7.5-10.7.3 0 .2.6-.2 1.2zm31.2 4.5c-.6 4.9-4.2 13.4-7 16.8-.9 1.1-.4-.7 1.2-4s3.5-8.6 4.2-11.8c1.6-6.9 2.5-7.5 1.6-1zm18.1 17.5c-.1 4-.3.8-.3-7.2s.2-11.2.3-7.3c.2 4 .2 10.6 0 14.5zm320.6-20.5c-.7.2-2.1.2-3 0-1-.3-.4-.5 1.2-.5 1.7 0 2.4.2 1.8.5zM127 391c-.6 3.6-1.3 11.9-1.5 18.5-.5 13.6-1.7 22.1-3.4 23.8-1.4 1.4-1.4-.3 0-5.8 1.1-4 2.5-22.5 3.6-47.5l.7-13.5.8 9c.5 5.5.4 11.5-.2 15.5zm37.8 21c-.7 12.3-4.2 27.5-6 26.4-.4-.3.1-2.8 1.2-5.7 2.8-7.2 3.9-19.4 4.2-44.7l.2-21.5.6 16.5c.3 9.1.2 22.1-.2 29zm235.7-42.9c1.5 1.4-.7 1-3.5-.7l-2.5-1.5 2.5.7c1.4.3 2.9 1 3.5 1.5zm-351.4 2.2c-1 .9-1.1.8-.5-.6.3-1 .9-1.5 1.2-1.2.3.3 0 1.1-.7 1.8zm79.6.9c-.3.7-.5.2-.5-1.2s.2-1.9.5-1.3c.2.7.2 1.9 0 2.5zm52 0c-.3.7-.5.2-.5-1.2s.2-1.9.5-1.3c.2.7.2 1.9 0 2.5zm238.3-1.1c2.4.7 2.4.7-.5.7-1.6 0-4.6-.6-6.5-1.3l-3.5-1.4 4 .6c2.2.3 5.1 1 6.5 1.4zm-358.4 26c-.8 4.5-2.4 9.9-3.6 12-1.1 2.2-1.6 3.9-1 3.9.5 0 1.2-.5 1.5-1 1.3-2.2 2.3-.8 3.3 4.7l1 5.8-.1-7.2c0-4 .3-7.6.6-8 .4-.3.7 1.4.7 3.8 0 2.5 1.1 9.9 2.4 16.5 2.2 11.5 2.5 20.4.5 17.3-.5-.9-.9 1.3-.9 5.5 0 5.1-.5 7.8-2.1 10.5l-2.1 3.6 2.1-2.3c2.2-2.5 2.5-3.7 6.2-18.7 2.5-10.5 16.1-38.9 24.7-51.8 3-4.5 4.2-4.1 1.4.5-2.1 3.5-7.2 13.1-15.7 29.3-5 9.7-10.5 24.8-12 33-1.1 6.5-3.2 9.2-11.2 15.2-8.9 6.6-15.4 9.3-22.3 9.3-5.6 0-6.8 1.6-1.7 2.3 1.7.2 1.2.3-1.3.2-2.8-.2-6.7-1.5-10.2-3.5-5-2.7-5.8-3.6-5.8-6 0-8.6 13.9-34.6 24.7-46.3 2.9-3.3 5.9-7.2 6.6-8.9 1.2-2.9 1.2-2.9 1.4 2.2.3 6.3 3.8 14.1 8.7 19.4 4.6 5 4.7 3.5.1-2.2-3.7-4.7-5.2-10.9-4.1-16.5.4-1.8 2-10.6 3.6-19.6 1.6-9 3.2-16.7 3.6-17 .8-.8-.6 11.8-1.7 14.7-.5 1.3-.9 3.3-.8 4.5 0 1.2.9-1.2 2-5.3 1.5-5.7 1.8-9.7 1.5-16.5l-.5-9 1 8.7c.8 6.9.7 10.3-.5 16.9zm-4.1-10.6c-.7 5.7-5.3 31.3-6.1 33.4-.2.8-.6 1.2-.9 1-.2-.3.3-3.6 1.1-7.4.8-3.9 1.7-12 2-18 .2-6.1.7-13.5 1.1-16.5l.6-5.5 1.4 4c.9 2.6 1.2 5.7.8 9zm261-9.9c.9 1.5 1.2 2.3.6 2-1.1-.7-3.5-4.6-2.8-4.6.3 0 1.2 1.2 2.2 2.6zm78.9 4.6c2.8 1.6 4 2.6 2.6 2.2-3.9-1-7.2-3-11-6.4l-3.5-3.2 3.4 2.3c1.8 1.2 5.6 3.5 8.5 5.1zm-273.6 12.3l-.1 5-.8-4.5c-.4-2.5-.7-7.9-.7-12l.1-7.5.7 7c.4 3.8.8 9.2.8 12zm292.1-6.1c1.4 1.3 4 3.1 5.6 3.9 1.7.9 5.3 3.7 8 6.2l5 4.7-6-4.5c-3.3-2.4-7.1-5-8.4-5.7-1.3-.7-5-3.3-8.2-5.8-3.3-2.5-6.2-4.3-6.5-4-.2.3 1.8 2.2 4.6 4.3 2.7 2 5 3.9 5 4.1 0 1.2-9.3-5.4-15-10.5l-4.5-4 8.9 4.4c4.9 2.4 10.1 5.5 11.5 6.9zM51 396.9c-.6 7.4-1.5 14.1-2.1 15-.8 1.3-.9 1.3-.5-.4.2-1.1.7-6.7 1.1-12.5.3-5.8.9-13.2 1.3-16.5 1.2-11 1.4-.1.2 14.4zm78.7-14.2c-.3 1-.5.4-.5-1.2 0-1.7.2-2.4.5-1.8.2.7.2 2.1 0 3zm180.3 5.9c-1 2.7-1.9 4.3-2 3.7 0-1.6 3.1-9.5 3.6-9 .2.2-.5 2.5-1.6 5.3zm-196.5 3.6c-1.2 11.6-5 27.7-6.2 26.4-.2-.2.2-2.8 1.1-5.8 1.8-6.4 3.6-15.3 3.6-17.6 0-.9-1.5 1.9-3.3 6.3-3.2 7.7-13.7 26.9-13.7 25 0-.5 2.5-5.9 5.6-11.9 3.1-6.1 6.7-13.7 7.9-17.1 2.8-7.3 4.7-11.5 5.2-11.5.2 0 .1 2.8-.2 6.2zm294-3.2c2.8 1.6 4.6 3 4 2.9-1.7 0-12.1-5.8-10.5-5.8.8-.1 3.8 1.3 6.5 2.9zm-61.4 16.7c.8 1-.9-.2-3.7-2.7-2.8-2.5-7.4-6.4-10.2-8.8-2.9-2.4-5.2-4.8-5.2-5.4 0-1 16.5 13.6 19.1 16.9zm66-8.5c1.3.9-2.2-.5-7.8-3.2-5.7-2.8-10.3-5.2-10.3-5.4 0-.7 15.4 6.6 18.1 8.6zm-266.4-2c-.2 1.3-.4.3-.4-2.2s.2-3.5.4-2.3c.2 1.3.2 3.3 0 4.5zm-6.5 16.8c-.6 11.8-.9 14.7-1.1 8.9-.1-9.2 1.1-31.8 1.6-28.4.2 1.1-.1 9.9-.5 19.5zm261.7-16.8c2.5 1.5 3.9 2.8 3.2 2.8-1.1 0-7.1-3.9-9.6-6.3-1.2-1.2.4-.3 6.4 3.5zm-217.2-1c-.3.8-.6.5-.6-.6-.1-1.1.2-1.7.5-1.3.3.3.4 1.2.1 1.9zm8 1.5c-.3 1-.5.4-.5-1.2 0-1.7.2-2.4.5-1.8.2.7.2 2.1 0 3zm219.6-2.1c4.2 2.2 21.5 14.2 22.3 15.5.8 1.3-6.9-3.5-11.6-7.2-1.9-1.5-6.2-4.4-9.4-6.3-6.2-3.7-6.9-4.8-1.3-2zm20.7 3.7c3.1 4 2 3.3-2.5-1.5-2.2-2.2-3-3.4-1.8-2.6 1.2.8 3.2 2.6 4.3 4.1zm-369.5 2.6c-.4 3.3-1.3 6.8-2.1 7.8-1.3 1.6-1.3 1.6-.5-.8.5-1.4 1.2-5.1 1.6-8.3.4-3.1 1-5.5 1.2-5.2.3.3.2 3.2-.2 6.5zm19.5-.7c-1.2 2.9-4.2 9.7-6.6 15.1-2.4 5.3-4.4 10.5-4.5 11.5 0 1-.3 1.2-.6.5-.5-1.4 2.5-10.1 5.8-16.4 2.9-5.8 1.8-5.9-2-.2-1.7 2.6-3.1 4.4-3.1 4 0-1.4 2.2-5.1 5-8.3 1.5-1.7 3.7-5.2 5-7.8 3-6.3 3.7-5.2 1 1.6zm343.6.5c3.8 3.3 3.7 3.3-2.3-.6-3.4-2.3-6.5-4.6-6.9-5.2-1.1-1.8 4.9 2 9.2 5.8zm-239.7 14.2c.2 10.7-.6 6.4-1.2-6.4-.3-8.1-.2-10 .3-6 .4 3.3.8 8.9.9 12.4zm172.5-16.3c.3.8.2 1.2-.4.9-.6-.3-1-1-1-1.6 0-1.4.7-1.1 1.4.7zM95 403.2c-1.8 2.9-4.7 7.1-6.5 9.3-1.8 2.2-5.6 8.5-8.4 14-2.8 5.5-5.1 9.4-5.1 8.8 0-2.5 9-19 14-25.8 2.9-3.9 5.9-8.3 6.7-9.8.8-1.6 1.7-2.6 2-2.3.3.3-.9 2.9-2.7 5.8zm99.6-2.1c-.6 3.6-4.1 11.9-5 11.9-.2 0 .7-2.6 2-5.8 1.3-3.1 2.4-6.7 2.4-8 0-1.2.3-2.2.6-2.2.4 0 .4 1.8 0 4.1zm116.4-3.8c0 .2-1 1.2-2.2 2.3l-2.3 1.9 1.9-2.3c1.8-2.1 2.6-2.7 2.6-1.9zm150.1 1.4c1.3 1.6 1.2 1.7-.3.4-1-.7-1.8-1.5-1.8-1.7 0-.8.8-.3 2.1 1.3zM191 400.8c0 1-.6 2.7-1.4 3.8-1.3 1.7-1.3 1.5-.3-1.9 1.3-4.1 1.7-4.6 1.7-1.9zm-54.3 4.4c-.3.7-.5.2-.5-1.2s.2-1.9.5-1.3c.2.7.2 1.9 0 2.5zm272.6 5.3l3.1 4-4.8-4.5c-5.3-5-9.1-10.5-4.1-6 1.5 1.4 4.1 4.3 5.8 6.5zm11.5 3l3.4 5-4-4.5c-2.2-2.5-6-6.3-8.4-8.4l-4.3-3.9 5 3.4c2.7 1.9 6.4 5.7 8.3 8.4zm-317.7-7.8c-1.2 2-1.4 1.4-.5-1.2.4-.9.9-1.4 1.1-1.1.3.2 0 1.3-.6 2.3zm282.5 4.5c5.5 5.7 10.2 12.8 8.5 12.8-.5 0-2.3-1.9-4-4.3-1.6-2.3-4.3-5.6-6.1-7.2-1.7-1.7-4.1-4.3-5.2-5.9-2-2.6-2-2.8-.2-1.8 1 .6 4.2 3.4 7 6.4zm-254.9 1c-.2 1.3-.4.5-.4-1.7-.1-2.2.1-3.2.4-2.3.2 1 .2 2.8 0 4zm287.5 3c1.4 1.8 3 4.4 3.7 5.8l1.2 2.5-1.8-2.5c-1-1.4-4-4.9-6.8-7.9-3.8-4.2-4.3-5-1.9-3.3 1.7 1.2 4.2 3.6 5.6 5.4zm64.4 2.6c1.4 2.4 2.4 4.5 2.2 4.8-.4.4-9-12.2-9.6-14.1-.6-1.9 4.8 5 7.4 9.3zm-339.1-1.3c-.4 3.1-.9 5.4-1.2 5.1-.3-.2-.1-3 .2-6.1.4-3.1.9-5.4 1.2-5.1.3.2.1 3-.2 6.1zm231.4-1c0 .5-.6-.1-1.4-1.5-.8-1.4-1.4-3-1.4-3.5 0-.6.6.1 1.4 1.5.8 1.4 1.4 2.9 1.4 3.5zm-204.8 1.9c-2.7 6.2-3.5 5.9-.9-.4 1.1-2.8 2.3-4.8 2.5-4.6.3.2-.4 2.5-1.6 5zm117.4.1c-5.5 2.6-14.6 5.7-15.2 5.1-.4-.4 17.8-7.5 19.2-7.5.6 0-1.2 1.1-4 2.4zm98.5 0c1.1 1 2 2.3 2 2.9 0 .6-1.1-.3-2.5-1.9-1.3-1.7-2.4-2.6-2.4-2 0 1 2.3 4.2 8 11.6 1.5 1.9 3 4.5 3.4 5.9.5 2 .2 1.8-1.6-1-1.2-1.9-3.4-5-5-6.8-4.1-4.6-7.3-11.1-5.4-10.8.8.1 2.3 1 3.5 2.1zm-4.4 1.7c.9 1.8 4.6 7.7 8.2 13.1 3.6 5.3 6.3 9.9 6.1 10.2-.3.2-3.2-3.7-6.5-8.8-6.1-9.2-10.9-17.7-9.9-17.7.2 0 1.2 1.5 2.1 3.2zm-220.9 1c-.3.7-.5.2-.5-1.2s.2-1.9.5-1.3c.2.7.2 1.9 0 2.5zM211 426c24.4 12.3 51.2 15.8 69.3 9 3.1-1.2 5.7-2.5 5.7-3 0-1-2-.8-3.8.4-2.7 1.7-2.3-.4.8-4.4 1.8-2.2 2.9-4.7 2.6-5.5-.3-.8-.2-1.4.3-1.2.5.1 1.8-.9 3-2.3l2.1-2.5-1 2.8c-1.4 3.9-1.3 11 .1 10.1.8-.4.9 0 .4 1.5-.5 1.6-.3 2 .9 1.5 2.8-1.1 1.7.5-1.6 2.2-4.8 2.5-20.4 5.4-29.1 5.4-8.5 0-24.3-2.8-34.7-6.2-8.8-2.8-22.7-9.9-27-13.8l-3.5-3.1 4.5 2.9c2.5 1.6 7.4 4.4 11 6.2zm-105.5.6c-1.5 2.5-2.9 4.3-3.2 4-.3-.3.6-2.4 2.1-4.6 1.4-2.2 2.6-4.5 2.7-5.2 0-1 .2-1 .6 0 .2.7-.7 3.3-2.2 5.8zm60.6-1.9c-1.2 2-1.4 1.4-.5-1.2.4-.9.9-1.4 1.1-1.1.3.2 0 1.3-.6 2.3zm41.4 4.2c-.5.4-8.5-4.6-8.5-5.4 0-.2 2 .8 4.5 2.2 2.4 1.5 4.2 2.9 4 3.2zm110 7.6c13.1 14.8 13.9 16.1 3.1 5.1-5.3-5.4-10.4-11.3-11.3-13-.8-1.7-1.3-2.9-1.1-2.6.3.3 4.4 5 9.3 10.5zm71.7 9.7c2.2 6 2.3 6.2 2.6 2.9.5-4.7-.2-6.9-3.9-12.4-1.7-2.6-2.9-5-2.6-5.3.9-.9 10 14 10.9 18 1.1 4.6-.9 19.8-2.3 17.4-.4-.7-1.6-5.1-2.7-9.8-1.2-4.7-3.9-13-6.1-18.4-2.3-5.5-4.1-10.2-4-10.5.1-1 5.5 11.2 8.1 18.1zm-280.2-9c-1.1 3-2.7 6.3-3.5 7.4-.9 1-.5-.5.8-3.6 1.3-3 2.7-6.9 3.2-8.5.4-1.7.9-2.5 1.2-1.9.2.6-.5 3.6-1.7 6.6zm62.7 6c-.2 2.4-.4.5-.4-4.2s.2-6.6.4-4.3c.2 2.4.2 6.2 0 8.5zm-73.8-6.5c-1.2 2.1-3.3 5.9-4.6 8.5-1.3 2.7-2.5 4.8-2.8 4.8-.8 0 2.7-7.5 5.7-12.3 3.6-5.6 5-6.4 1.7-1zm128.8-.2c3.2 1.3 4.9 2.4 3.8 2.4-1.1 0-4.7-1.4-8-3-6.8-3.3-4.4-3 4.2.6zm-199.7-1c-1.4 1.7-4.6 2-5.4.6-.4-.5.2-.7 1.3-.4 1 .3 2.2 0 2.5-.6.4-.6 1.2-1.1 1.8-1.1.7 0 .6.6-.2 1.5zm72.5 4.5c-1.5 2.2-3 4-3.3 4-.2 0 .3-1 1.2-2.3.9-1.2 2.1-3.2 2.8-4.5.6-1.2 1.3-2 1.6-1.7.3.2-.8 2.3-2.3 4.5zm-9.4-1.7c-1 .9-1.1.8-.5-.6.3-1 .9-1.5 1.2-1.2.3.3 0 1.1-.7 1.8zm88.6 9.9c-.2 2.4-.4.5-.4-4.2s.2-6.6.4-4.3c.2 2.4.2 6.2 0 8.5zm226.4-8.5c1.3 1.6 1.2 1.7-.3.4-1-.7-1.8-1.5-1.8-1.7 0-.8.8-.3 2.1 1.3zm-331.2 4.5c-2.4 6.3-4.3 9.6-3.3 5.8 1-3.7 4.2-11 4.8-11 .3 0-.4 2.3-1.5 5.2zm92 6.3c-.1 6.9-.2 7.5-1 4-1.2-5.8-1.1-15.4.1-13.5.5.8.9 5.1.9 9.5zm-21.9-9.2c0 .1-2.5 2.7-5.6 5.7-3.1 3-5.1 4.5-4.5 3.3 1.2-2.3 10.1-10.3 10.1-9zm12.7 7.4c-.2 1.6-.4.3-.4-2.7s.2-4.3.4-2.8c.2 1.6.2 4 0 5.5zm5.8 26.2c.9 7.2 1.5 13.9 1.3 14.8-.2 1-.9-2.7-1.6-8.2-.7-5.5-1.7-13.2-2.2-17-.5-3.9-.9-10.8-.8-15.5l.1-8.5.8 10.7c.4 5.9 1.5 16.5 2.4 23.7zm20.2-29.2c-.3 1-.5.2-.5-1.7s.2-2.7.5-1.8c.2 1 .2 2.6 0 3.5zm8 2.2c-.4 4.6-1.6 9.4-3.6 14-1.9 4.2-3.1 8.6-3.1 11.2 0 2.3-.3 4-.6 3.7-1.5-1.6-.3-9.1 2.5-15.6 2-4.4 3.4-9.7 3.8-13.7.3-3.6.8-6.5 1.1-6.5.3 0 .2 3.1-.1 6.9zm-53.6-3.6c-1 .9-1.1.8-.5-.6.3-1 .9-1.5 1.2-1.2.3.3 0 1.1-.7 1.8zm268.1 5.5c3.7 9 5.6 14.2 5.3 14.2-.6 0-4.5-7.2-8-14.7-3.2-7-3.3-7.5-1.2-5.4 1.4 1.2 3.1 3.9 3.9 5.9zm-155.8-3.1c.8.9 1.4 1 4.9 1.2 1.6.1 2.3.7 2.3 2.1 0 1.5-.5 1.9-1.6 1.4-.8-.3-2.8-1-4.5-1.4-1.6-.4-4.8-1.5-7-2.3l-4-1.6h4.6c2.5-.1 4.9.2 5.3.6zm182 13.9c.4 5.4.3 13-.2 16.9-.8 6.2-1 5.2-1.1-9.5-.1-9.1-.4-17.6-.6-19-.5-2.2-.5-2.3.4-.4.5 1.1 1.2 6.5 1.5 12zm-302-5.1c-.9 1.4-1.9 2.4-2.1 2.1-.3-.3.2-1.5 1.1-2.8.9-1.2 1.7-3.2 1.7-4.3.2-1.8.2-1.8.6.2.2 1.2-.3 3.3-1.3 4.8zm-28.4-.1c-.6 2-1.5 3.8-1.9 4.1-.5.2-.1-1.5.8-4 1.8-5.2 2.8-5.3 1.1-.1zm-10.7.1c-.3.9-.8 1.4-1 1.1-.3-.3-.2-.9.2-1.5.9-1.6 1.5-1.3.8.4zm18.8 6.7c-2.2 6.6-5.8 13.4-6.7 12.5-.3-.3.8-3.1 2.4-6.3 1.6-3.3 3.5-7.6 4.2-9.7.6-2.1 1.4-3.6 1.7-3.3.3.2-.4 3.3-1.6 6.8zm68.6-4c-.3.8-.6.5-.6-.6-.1-1.1.2-1.7.5-1.3.3.3.4 1.2.1 1.9zm-77.7 6.5c-1.6 3.4-3.4 6.4-3.9 6.8-1.1.6 2.5-7.4 4.9-11.2 2.4-3.8 2-2-1 4.4zm-38.1 3.9C58.1 472.5 50 478 48 478c-.7 0 1.3-1.8 4.6-3.9 3.2-2.2 7.3-5.1 8.9-6.5 4.3-3.6 4.5-3.2.4 1zm31.7 1.1c-.8 1.5-1.5 2.5-1.6 2.1 0-1.2 2.3-5.8 2.7-5.4.3.2-.2 1.7-1.1 3.3zm-25.8 6c-.1 4.8-.2 5.3-.8 2.6-.7-2.9-.3-8.3.5-8.3.2 0 .3 2.6.3 5.7zm119.5 7.3c.6 3.4.6 3.4-.8-.5-.7-2.2-1.3-6-1.3-8.5v-4.5l.8 5c.4 2.7 1 6.6 1.3 8.5zm205.4-8.3c-.3 1-.5.2-.5-1.7s.2-2.7.5-1.8c.2 1 .2 2.6 0 3.5zm-302.1 3c-.8 1.6-3.2 5.1-5.3 8-2.1 2.8-4.4 5.9-5 7-1.1 1.5-1.1 1.4-.3-.8.8-2.5 10.8-16.9 11.6-16.9.3 0-.2 1.2-1 2.7zm39.4-.3c0 .2-.8 1-1.7 1.7-1.6 1.3-1.7 1.2-.4-.4 1.3-1.6 2.1-2.1 2.1-1.3zm-37.7 3.7c-1 1.7-2.7 3.8-3.7 4.7-1.1.9-.5-.4 1.3-3.1 3.6-5.3 5.2-6.4 2.4-1.6zm39.8-1.4c-.5 1-2.2 2.9-3.7 4.3-2.3 2.1-2.2 1.8.7-1.7 3.7-4.6 4.5-5.3 3-2.6zm49.6 2c-.3 1-.5.4-.5-1.2 0-1.7.2-2.4.5-1.8.2.7.2 2.1 0 3zm-154.3 6.2c2.6 2.3 4.5 4.1 4.2 4.1-2.1 0-8.6-3.6-11.3-6.2-7-6.8-1.6-5.1 7.1 2.1zm18.6-5.4c3.1 1.8 1.6 1.8-3 0-2.3-.9-2.8-1.4-1.5-1.4 1.1 0 3.1.6 4.5 1.4zm8.5.5c-.4.6-2.4 1.9-4.5 3-4.6 2.4-12.2 2.6-16.5.5l-3-1.5 3.5.5c1.9.2 5.3.7 7.5 1 3.1.4 4.9 0 8-1.9 4.4-2.6 6-3.2 5-1.6zm-12 1c2.5 1.1-.1 1.1-3.5 0-2-.6-2.1-.8-.5-.8 1.1 0 2.9.3 4 .8zm-22.4 3.7c2.6 2.8 2.8 3.3 1 2.2-2.2-1.4-6-5.9-4.9-5.9.2 0 2 1.7 3.9 3.7zm120.9-3.4c0 .2-1.7 1.9-3.7 3.8l-3.8 3.4 3.4-3.8c3.3-3.4 4.1-4.2 4.1-3.4zm41.7 5.9c-.2 1.3-.4.3-.4-2.2s.2-3.5.4-2.3c.2 1.3.2 3.3 0 4.5zm-74.2-1.3c-2.1 4.3-2.9 3.9-.8-.4.9-1.9 1.8-3.3 2.1-3.1.2.2-.4 1.8-1.3 3.5zm54.5 3.9c0 .5-.7 1.7-1.5 2.8-1.4 1.8-1.4 1.7-.4-.9 1.2-2.7 1.9-3.4 1.9-1.9zm-95.9 5.9c-1.7 2.6-3.1 4.4-3.1 4 0-1.4 5.2-9.8 5.8-9.3.2.3-.9 2.7-2.7 5.3zm118.6-3.5c-.3.8-.6.5-.6-.6-.1-1.1.2-1.7.5-1.3.3.3.4 1.2.1 1.9z"/><path d="M177.4 152.8c-8.8 3-14.5 6.7-17.5 11.6-1.7 2.6-1.9 4.5-1.7 11.7.3 7.5.7 9.4 4.1 16.2 4.1 8.2 8.9 13.1 16.6 16.9 6.5 3.2 21.5 3.3 28.2.2 6.4-3 11.6-8.6 15.2-16.3 2.7-5.6 3.2-8 3.4-16.1.4-9.1.3-9.7-2.6-14.1-6-9.6-13-12.8-27.6-12.8-8.3-.1-11.4.4-18.1 2.7zm33.2 1c2.2 1.1 4.8 3 5.9 4.2 1.7 2 1.4 1.9-2.4-.6-8.6-5.6-26.5-3.9-33.7 3.3-4 4-4.4 3.3-.9-1.3 4.1-5.3 3.1-5.6-5.8-2-3.5 1.5-5.3 1.9-4.7 1 1.3-1.5 10.6-5.2 16.5-6.4 6.6-1.5 20.7-.4 25.1 1.8zm3.1 5.8c6.7 3.5 10.3 6.5 10.3 8.7 0 .6-1.5-.3-3.2-1.9-4-3.7-9.2-6.9-14.4-8.8-2.7-1-3.2-1.5-1.7-1.5 1.2-.1 5.2 1.5 9 3.5zm-23.2-1.6c-2.7 1.2-4.3 1.2-2.5 0 .8-.5 2.2-.9 3-.9 1 0 .8.3-.5.9zm13.1 5.5c-1.1.8-2.5 1.5-3 1.5-.6-.1 0-.7 1.4-1.5 3.2-1.9 4-1.8 1.6 0zm5.9.6c-1 1.5-2.5 1-1.9-.6.4-.8 1-1.2 1.5-.9.5.3.7 1 .4 1.5zm13.1 6.2c3 3.5 3.1 5.7.2 3.1-3.3-2.7-6.5-4.4-8.5-4.4-1.4 0-1.5.2-.4.9.7.5.9 1.1.5 1.4-1.8 1-16 6.6-17.9 7-1.1.3.3.3 3 0 2.8-.2 8.3-1.5 12.3-2.9 4-1.3 7.7-2.4 8.2-2.4.5 0 1.9 1.4 3.1 3.1 2.1 3 2.1 3.2.5 9.7-4.1 16.7-17.5 26.5-33.9 24.8-9.6-1-19.1-6.7-22.8-13.8l-1.2-2.3 2.4 2.2 2.5 2.2 2.4-7.2c1.4-3.9 2.5-7.6 2.5-8.2.1-3.1 2.3-5.9 7.8-10.2 7.3-5.6 10-6.2 25.5-6 11.1.2 11.4.3 13.8 3zM111.7 339.7c-.4.3-.7 1.1-.7 1.7 0 .6.5.5 1.2-.2.6-.6.9-1.4.7-1.7-.3-.3-.9-.2-1.2.2zM306.1 411.4c-.1 2.6.8 5.5 2.6 8.5 3.3 5.7 6.3 9.7 6.3 8.3 0-2.8 13.4 12.4 25.3 28.8 1 1.4.8.6-.5-1.7-4.5-8.2-23.1-29.9-24.7-28.8-1 .6-6.2-9.2-7.7-14.4l-1.2-4.6-.1 3.9z"/><path d="M321.8 416.6c-3.8 3-6.8 5.9-6.8 6.4 0 .9 3.5-1.9 10.4-8.2 6-5.5 4.1-4.6-3.6 1.8zM352.1 426c0 .3.9 3.4 2 7 1.2 4 1.8 5.2 1.5 3-.3-2.9-3.3-11.5-3.5-10zM322 437.3c0 .2 1.5 1.6 3.3 3.3l3.2 2.9-2.9-3.3c-2.8-3-3.6-3.7-3.6-2.9zM353.6 457.5c-.9 2.6-.7 3.2.5 1.2.6-1 .9-2.1.6-2.3-.2-.3-.7.2-1.1 1.1zM350.2 465.5c-1.2 2.5-2 4.5-1.7 4.5.7 0 4.7-8.1 4.3-8.6-.3-.2-1.4 1.7-2.6 4.1zM343.7 468.2c1.8 4.7 3.3 7 3.3 5 0-1.5-3.8-9.2-4.5-9.2-.3 0 .3 1.9 1.2 4.2zM117.4 341.5c-1.5 2-2.5 3.7-2.3 3.9.2.2 1.6-1.4 3.1-3.5 3.5-4.9 2.8-5.1-.8-.4zM62.2 425c0 1.4.2 1.9.5 1.2.2-.6.2-1.8 0-2.5-.3-.6-.5-.1-.5 1.3zM36.9 430.7l-2.4 2.8 2.8-2.4c1.5-1.4 2.7-2.6 2.7-2.8 0-.8-.8-.1-3.1 2.4zM64.2 434c0 1.4.2 1.9.5 1.2.2-.6.2-1.8 0-2.5-.3-.6-.5-.1-.5 1.3zM393 446.9c0 .6.4 1.3 1 1.6.6.3.7-.1.4-.9-.7-1.8-1.4-2.1-1.4-.7zM394.2 457c0 1.9.2 2.7.5 1.7.2-.9.2-2.5 0-3.5-.3-.9-.5-.1-.5 1.8zM330 2.2c.1 1.3 1.1 3.6 2.4 5.1 2.1 2.6 2.6 2.8 7.5 2.1 4.5-.6 5.5-1.2 7.7-4.3 1.3-1.9 2.4-3.9 2.4-4.3 0-.5-4.5-.8-10-.8-9.7 0-10 .1-10 2.2zM438 1.9c0 1 .6 2.4 1.4 3.1.8.6 1.6 2 1.8 3.1.2 1.5 1 .7 3.1-3.1l2.8-5h-4.5c-3.8 0-4.6.3-4.6 1.9z"/><path d="M448.1 1.9c-.6 1-1.5 4-2.1 6.5-.6 2.6-2 6-3.1 7.6-1.2 1.5-1.8 3.3-1.4 3.9 1.1 1.8 6.8-7.6 7.5-12.3l.7-4.1.7 3.8c.7 3.3.4 4.3-3 9.2-2 3-4.2 5.5-4.9 5.5-2.4 0-3.5-2.6-3.5-8.1 0-5.2-.3-6-3.1-8.3-3.2-2.7-4.9-3.3-4.9-1.6 0 .5.5 1 1 1 2.1 0 5 6.5 5 11.1 0 2.5.7 6.7 1.6 9.3 1.4 4 1.4 5.2.4 7.2-.8 1.3-1.7 2.4-2.2 2.4-1.6 0-9.6-5.9-11.3-8.3-1.6-2.1-1.6-2-1 2.3.4 2.5 1.4 5.4 2.1 6.5 2.4 3.4 1.5 4.1-1.4 1-1.5-1.7-3.9-4.1-5.4-5.4-2.6-2.3-2.7-2.3-2.1-.2.3 1.2 1.7 3 3 4.1 1.7 1.3 2.3 2.5 1.8 3.9-.5 1.7-.1 2 2.2 1.9 5.9-.2 10.2 5.2 5.4 6.7-1.7.5-1.8 1-.9 3.6 1.4 4.1-.1 5.7-3.8 4-3.7-1.7-4.2-.6-.6 1.3 3.7 1.9 4.4 3.7 3.6 9.5-.5 4.1-.3 4.9 2.1 7.4 2.3 2.3 2.5 2.8 1.1 3.3-.9.3-2.8.4-4.2.1-2.2-.4-2.5-.2-2 1.7.3 1.1.6 2.7.6 3.4 0 .7.4 1.1 1 .7.5-.3.7-1.2.4-2-.5-1.2 0-1.4 2.7-.9 1.9.4 4 1.1 4.7 1.7 2.1 1.6 1.2 5.1-1.9 7.5l-2.9 2.4-.1-3.9-.1-3.8-1 3.4c-1.7 5.9 1.7 10.4 4.8 6.3 1.2-1.5 1.3-1.2 1.1 2.3-.2 3.3.1 4 1.6 3.9 2.1-.2 2.1.6.2 5.3-.8 1.9-1.5 4.6-1.5 5.9 0 2.1-.4 2.3-2.5 1.8-1.6-.4-3.6.1-6 1.6-2.6 1.6-4.5 2.1-6.7 1.6l-3-.6 2.8 2.9c1.6 1.5 3.9 3.9 5.1 5.3 2.5 2.8 8.1 4 11 2.4 1.2-.6.9.1-.7 1.8-4.1 4.5-5.2 4.8-11.6 2.6-7.2-2.5-7.2-2.5-4.6.3 4.8 5.1 3.7 17.7-1.5 17.7-1.4 0-2.2.4-1.8 1.1 1.2 1.9-2.6 4.9-6.4 5-3.3.2-3.4.2-.6.6 4.7.6 8.5 2.4 9.6 4.6 1.1 1.9 1 1.9-1.2.3-3.4-2.3-5.2-2-7.2 1.4l-1.8 3h3.5c4.1 0 4.3.5 1.9 3.3-1.7 2-1.7 2 .2 1.3 1.1-.5 2.9-1.1 4-1.4 1.9-.5 1.9-.4.3 1.5-2.3 2.5-2.3 4.4.2 7 1.9 2.1 3.6 2.7 12.2 3.8l4.8.6-.2 4-.1 3.9-2.9-3.2-2.9-3.3 2.8 5.5c1.5 3 3 5.9 3.2 6.4.2.6-.9 0-2.4-1.2-3.4-2.7-5.4-2.9-3.2-.4 1 1 1.7 2.4 1.7 3 0 1.8-2 1.4-2.7-.6-.4-.9-1.5-2.8-2.5-4.1-1.6-2.1-1.8-2.2-1.8-.5 0 1.1.7 2.9 1.5 4.1 1.4 2.1 1.4 2.1-3.1 1.7l-4.6-.5 2.6 3.2c1.5 1.7 2.5 3.4 2.2 3.6-.9.9-7.8-3.9-8.6-6.1-.5-1.5-1 .3-1.5 6.3l-.8 8.3-4.6-.5c-4.2-.5-4.4-.4-2.1.9 1.4.7 3.3 1.3 4.3 1.4.9 0 1.7.5 1.7 1.1 0 1.1-3.7.9-7.5-.6-1.1-.4.7 1.9 4 5.2 3.3 3.2 7 7.6 8.2 9.8 1.2 2.2 2.2 3.3 2.3 2.4 0-.9-1.1-3.3-2.5-5.3s-2.5-3.8-2.5-4c0-.2 1.8.5 4 1.6 4.4 2.2 4.6 2.6 2.6 8.1l-1.3 3.8-2.5-3.2c-2.5-3.3-2.7-3.3-7.6-.5-2.3 1.3-2.3 1.3 1.5 2.9 2.1.9 5.1 2.9 6.6 4.6 3.1 3.4 2.9 3.9-.6 1.7-1.2-.7-4.7-1.6-7.7-1.9l-5.5-.6 4.2 1.9c4.2 1.9 12.3 7 11.1 7-.3 0-3.5-1.3-7-3-3.4-1.6-7.4-3-8.8-3-1.8.1-1 .7 2.9 2.3 6.8 2.8 7.5 4.3 1.9 4-3.8-.3-4-.2-1.8.8 1.4.6 3.7.8 5.3.5 1.5-.3 2.7-.1 2.7.4 0 .6-1.4 1.3-3 1.7-2.9.5-3 .7-1.4 2.4 1.5 1.7 1.4 1.8-2.3 2.5l-3.8.8 4.7.7c2.6.4 5.7 1.4 7 2.3 2.2 1.6 2.1 1.6-2.4 1.6-5.9 0-7.1 1.6-1.7 2.3 5.6.7 7 2.3 3.6 3.8-1.5.7-2.7 1.7-2.7 2.2 0 .9 1.6.7 5.5-.9 1.9-.7 1.9-.7.3 1.3-2.9 3.2-2.3 4.2 2 3.2 2-.5 4.8-.8 6.2-.8 1.4.1.2.7-2.8 1.4-2.9.7-6.2 2.1-7.2 3-1.3 1.2-2.8 1.5-4.5 1.1-2.9-.7-3.2.6-1 4.4 1.6 2.9 1.8 4 .7 4-.4 0-1.6-1.3-2.5-3-2.3-3.8-3.8-3.8-3 0 .6 3.3-.4 3.8-4 1.8-1.9-1-2-.9-.9.4.7.9 4.5 2.6 8.5 3.8 4 1.1 9.2 2.8 11.7 3.6 2.5.9 9.7 3 16 4.8 6.3 1.8 14.9 4.6 19 6.1s9.2 3.4 11.3 4.2c2.2.7 5.5 2.2 7.5 3.2 2.1 1 5.3 2.3 7.2 2.9 5.1 1.5 14.3 5.5 17.3 7.5 1.5.9 2.9 1.7 3.2 1.7.3 0 .5-4.9.5-10.9 0-11.5-.2-12.1-5.1-12.1-2.1 0-2.7-2-.6-2 2.6-.1-10.4-6-21.8-10-2.8-.9-5-2.3-5-3.1 0-2.5 4.5-2.1 11.3 1.1 3.7 1.8 8.3 3.9 10.2 4.6l3.5 1.5-3-2.6c-1.6-1.4-4.6-3.5-6.5-4.5-6.8-3.7-1.8-1.9 7 2.5 4.9 2.5 9.2 4.5 9.5 4.5.3 0 .5-1.1.5-2.4 0-1.5-1-3-2.7-4.2-7.6-4.9-19.8-10.4-28.8-12.8-5.5-1.5-11.3-3.4-13-4.2-3.7-1.8-13.7-3.1-11.5-1.5.8.6 2.6 1.1 3.9 1.1 2.4 0 9.5 3.6 14.1 7.3l2.5 1.9-2.5-.7c-1.4-.4-3-1.1-3.6-1.6-.6-.5-4.5-2.1-8.5-3.5-7.1-2.4-9.9-4.4-9.9-7 0-.9 2.3-1.2 8.3-1.1 7.4.2 9 .6 15.7 4 4.1 2.1 6.4 3 5 1.9-1.3-1.1-5-3.3-8.2-4.8-4.3-2-6-3.5-6.8-5.8-1.9-5-2.6-6.1-4.4-6.4-1.6-.4-1.6-.2-.1 2.8 1.3 2.4 1.3 3.1.3 2.8-1.2-.4-4.6-6.2-4.8-8 0-1.5 6-3.8 9.8-3.8 2.1 0 4.7.7 5.8 1.5 1.8 1.4 1.8 1.4-.7 1.5-1.4 0-3.4 1-4.5 2.2-1 1.2-1.3 1.8-.6 1.4.7-.4 2.5 0 4 .9l2.7 1.6-2.4-2c-2.6-2.3-1.6-2.8 1.4-.8 2.5 1.8 5.1 2.5 15 4.2 7.6 1.2 13.9 3.1 21.3 6.1l3.2 1.4v-24.5l-4.9-1.8c-2.7-.9-5.7-1.5-6.8-1.1-1 .3-.7-.1.7-1 1.4-.8 4.4-1.5 6.8-1.6h4.2v-13.3c0-12.9-.1-13.4-2.2-14.5l-2.3-1.1h2.3c1.8-.1 2.2-.7 2.2-3.6 0-2.8-.3-3.3-1.7-2.9-1.7.5-1.7.5-.1-.5 1.5-1 1.7-3.7 1.8-23.1 0-20.3-.4-24.4-2.5-21-.3.5-1.3 1-2.1 1-1.2 0-1.2-.4-.4-2 .6-1.1 2-2 3-2 1.9 0 2-.8 2-14.5 0-8-.2-14.5-.5-14.5-.4 0-1.8.6-3.3 1.4-2.8 1.4-10.2 3-10.2 2.2 0-.2 3.2-1.6 7-3.1l7-2.7v-7c0-6.7-.1-6.9-2.2-6.3l-2.3.7 2.3-1.7c1.2-.9 2.2-2.4 2.2-3.3-.1-1.2-.7-.9-2.3 1.2-1.2 1.7-2.2 3.6-2.4 4.5-.5 4-1.4 5.9-2.9 6.5-1.3.5-1.4.3-.6-.7.6-.7 1.2-4.4 1.4-8.2.3-6.8.4-7 3.5-8.5 1.8-.8 3.3-1.8 3.3-2.3 0-1.2-2.4-.8-4.8.9-1.3.9-2.5 1.4-2.8 1.1-.7-.7 4.6-4.7 6.2-4.7.8 0 1.4-.7 1.4-1.5 0-2.8-4.3-1.2-9.4 3.4-2.6 2.4-2.7 2.4-1.5.3.8-1.2 3.5-3.3 6.1-4.5l4.7-2.2V74.7c-.1-11.4-.2-11.9-2.1-11.4-2 .6-2 .5.1-1.7 1.1-1.2 2.1-3.3 2.1-4.6v-2.3l-2.3 2.1c-1.3 1.2-3.2 2.2-4.3 2.2-1.1 0-4.6 1.6-7.9 3.5-3.2 2-6 3.4-6.2 3.1-.5-.5 9.2-7.6 10.4-7.6.5 0 1.9-1.4 3.2-3.1 1.2-1.6 3.3-3.5 4.7-4.1 2.4-1.1 2.4-1.2 2.4-16.5 0-15-.1-15.3-2-14.3-1 .6-2.7 2.6-3.6 4.5-2 4.2-2.7 4.5-1.8.7 1.1-4.3 3.7-8.2 5.6-8.2 1.4 0 1.8-.8 1.8-3.3l-.1-3.2-1.7 2.4c-.9 1.4-3.4 4.1-5.4 6.2-2.6 2.6-3.5 4.3-3.1 5.7.4 1.6-.4 2.5-3.9 4.3-3.9 2-12.9 4.9-15.3 4.9-1.1 0 4.4-2.7 11.3-5.5 4.8-2 6-5.5 1.8-5.5-3.2 0-4.8-2.2-4.4-6.2.2-2.7-.2-3.5-2.4-4.6-3.1-1.5-3.6-4.2-1.3-8.2.8-1.4 1.4-2.8 1.5-3.3 0-.4-3.8-.7-8.5-.7h-8.4l-.3 5.7c-.2 3.7-.8 5.8-1.7 6.1-.8.3-1.1 0-.7-.7.4-.6.3-1.1-.2-1.1s-1.5 1.3-2.2 3c-.7 1.8-2 3-3 3s-2.8 1.2-3.9 2.6c-2.7 3.4-2.7 1.9-.1-2.1 2-3.1 2.5-7.7 1.4-13.4-.7-3.5-1.9-4-3.3-1.2zm12.6 24.5c-1.2 1.4-2.4 2.3-2.6 2-.5-.5 3-4.4 4-4.4.4 0-.2 1.1-1.4 2.4zm20.8-1.5c-.3.5.3 1.2 1.2 1.4 1 .3-.6.5-3.6.6-5.8.1-6.2-.7-.9-1.9 1.8-.4 3.4-.8 3.6-.9.2-.1.1.3-.3.8zm-12.8 2.8c.6 1.6-4.5 2.9-5.9 1.5-.6-.6-.7-1.5-.3-2.2.9-1.4 5.7-.9 6.2.7zm-3.5 5.2c-.7.4-1.9 3-2.6 5.6-.8 3.5-1.8 5-3.5 5.7-1.9.6-2.2.5-1.7-.7.3-.8 0-1.4-.7-1.2-.7.1-1.3-1.1-1.5-2.6-.3-2.6-.2-2.7 1.7-1.8 2.8 1.5 2.8 1.5 4.1-2.4.9-2.6 1.7-3.5 3.3-3.5 1.6 0 1.8.3.9.9zm-17.6 14.9c-1.8 3.4-4 5.4-2.9 2.6.4-1.2.3-1.5-.5-1-2.1 1.3-1.3-.4 1.5-3 3.3-3 3.9-2.5 1.9 1.4zm43.4 3.8c0 1.5-1.7 2.8-2.3 1.7-.3-.5-.8-2.4-1.1-4.3l-.7-3.5 2.1 2.4c1.1 1.3 2 2.9 2 3.7zM438 48c0 .5-1.3 1.6-3 2.5-2.6 1.4-3 1.4-3 .1 0-1.6 2.6-3.5 4.8-3.6.6 0 1.2.4 1.2 1zm37.4 4.2c-1.8 3.2-1.9 3.2-2.2.9-.2-1.6.3-3 1.4-3.8 2.5-1.9 2.8-.9.8 2.9zm6.3 1.4c-.8 1.5-1.7 2.2-2 1.7-.7-1 2.2-5.8 3-5 .2.3-.2 1.8-1 3.3zm-30.1 2.9c-.9 2.1-1.6 4.7-1.6 6 0 1.2-.9 3-2 4-1 .9-2.5 3.4-3.1 5.4-1.3 4-2.7 6.1-4.1 6.1-.5 0-.6-.6-.1-1.3.4-.6 1.3-2.6 1.9-4.3l1.1-3.1-2.8 1.1c-1.6.5-3.2.7-3.6.2-1.1-1 2.6-3.6 5.2-3.6 4 0 6.4-5.3 3-6.6-2.3-.9-1.8-1.9 2-3.7 2-.9 3.8-2.4 4.2-3.2.3-.9.7-1.4 1-1.2.2.3-.3 2.2-1.1 4.2zm-11.6-.2c0 1.8-.2 1.9-1 .7-1.3-2-1.3-4.3 0-3.5.6.3 1 1.6 1 2.8zm-4.4-.6c-.2 1-1.2 4.4-2.1 7.7-.9 3.2-1.9 5.6-2.2 5.2-.5-.5.4-4.2 3.3-13.4.6-1.9 1.6-1.4 1 .5zM461 72.5l-2.1 5 .6-5.2c.3-2.8 1.1-6.6 1.8-8.5l1.2-3.3.3 3.5c.1 1.9-.7 5.7-1.8 8.5zm18.1-9.2c-1 .9-1.1.8-.5-.6.3-1 .9-1.5 1.2-1.2.3.3 0 1.1-.7 1.8zm7 14c-.8.8-1.1.7-1.1-.4 0-2 1.3-3.4 1.8-1.9.3.7-.1 1.7-.7 2.3zm8.1 6.9c-1.2 1.2-2.4 1.9-2.7 1.6-.4-.3.4-1.5 1.6-2.7 2.9-2.7 3.9-1.7 1.1 1.1zM481 85.4c0 2.3-2 2.9-4.7 1.5l-2.5-1.4 2.3-.6c3.9-1.1 4.9-1 4.9.5zM446.3 95c2.4 2.9 2.2 3.8-1.8 6.1-1.9 1.1-4.4 3.6-5.6 5.5-2.9 4.7-3.4 3.7-.9-1.7 1.1-2.4 2-5.5 2-6.8 0-2 2.3-5 4-5.1.3 0 1.3.9 2.3 2zm10.3 11.5c-.9 1.4-2.2 2.5-2.8 2.5-.6 0-.4-.8.5-1.8 1-1 1.7-3.2 1.8-4.8 0-2.8.1-2.8 1.1-.7.8 1.7.7 2.8-.6 4.8zm24.6-3.9c-.7 1.2-.6 2.5.1 4.1.8 1.9.5 2.9-2.4 6.7-1.9 2.4-3.5 4.3-3.7 4.1-.6-.6 2.5-7 4.1-8.3 1.3-1.1 1.4-1.8.5-3.7-.8-1.9-.8-2.8.2-4 1.6-2 2.5-1.2 1.2 1.1zM444 110c-.6 1.2-.8 3.1-.5 4.3.5 2 .5 2-.6.3-.8-1.3-.8-2.5 0-4.2.6-1.3 1.3-2.4 1.6-2.4.3 0 .1.9-.5 2zm-5.1 20.6c-1.9 2.3-6.8 4.6-8.1 3.8-.6-.4.7-1.6 3.3-3 5.2-2.7 6.6-3 4.8-.8zm37.9.8c-.4 1.7-.1 2.3.9 1.9 1.7-.7 1.7.7-.2 3.4-2.1 3-2.9 13-1.4 17.5l1.2 3.7 4.5-3.9c2.4-2.2 6.6-7 9.2-10.7 2.6-3.8 5.7-7.6 6.8-8.6 1.9-1.7 1.9-1.6-.2 2.5-1.1 2.4-2.9 5.5-3.9 6.9-1.4 2.1-1.5 3.2-.8 5.3.7 1.7.7 2.6.1 2.6s-1-.9-1-2c0-2.6-.6-2.5-3.8.5-11.2 10.2-15.7 12.5-24.4 12.5-2.7 0-6.3-.7-7.9-1.6-3.7-1.9-3.3-2.9.5-1.4 3.9 1.4 11.9 1.2 14.1-.3 1.2-1 1.4-1.6.7-2.1-.7-.4-1.2-1.5-1.2-2.5s-.8-2.9-1.8-4.2c-1-1.3-2.5-4.4-3.4-6.9-.8-2.5-1.9-5.4-2.4-6.5-.4-1.1 1.4.2 4 2.9l4.9 4.9-.7-3.4c-.4-1.9-1-5.3-1.3-7.6-.5-4.4 0-4.9 5.6-5.2 1.9-.1 2.3.3 1.9 2.3zm-36.5 9c-4.8 4.2-13.7 8.8-15.7 8-1.9-.7-1.9-.7-.5-3.7 1.7-3.7 9.5-7.6 15.2-7.7h4.7l-3.7 3.4zm18.3 13.1c-.9 1.4-2.1 2.5-2.6 2.5s.1-1.5 1.3-3.4c1.2-1.8 2.4-2.9 2.5-2.4.2.5-.3 2-1.2 3.3zM423 164c.8.5 1.2 1.1.9 1.4-.3.3-1.4-.1-2.5-.9-2.1-1.6-.8-2 1.6-.5zm11.7 4.8c-1.7 1.8-4.6 3.3-7.5 4-2.6.6-5.6 1.4-6.7 1.8-2 .7-2 .7-.2-1.4 1.1-1.1 4.1-2.6 6.9-3.1 2.7-.6 5.9-1.8 7.1-2.6 3.2-2.3 3.4-1.8.4 1.3zm27 .2c3.7 0 5.3 1.6 5.3 5.2 0 2.2-.5 2.8-2.1 2.8-3.3 0-5.5-1.7-7.8-6-2-3.9-2-4-.2-3 1.1.5 3.3 1 4.8 1zm17.3 5.3c.9.7 2.3 2.3 3.2 3.6l1.6 2.3 1.4-2.7 1.5-2.7 2.9 2.6c2.1 1.8 2.5 2.5 1.3 2.6-.9 0-2.2-.7-2.9-1.6-1.2-1.3-1.5-1.1-2.6 1.6-1.7 3.8-6.3 10-7.6 10-.6 0 .1-1.5 1.6-3.4 3.3-4.4 3.3-5.6-.4-9.1-4-3.8-3.9-6.4 0-3.2zm-10.5 14.8c-.5 1.5-.1 1.9 1.4 1.9 2.7 0 2.7 2.1.1 3.8-1.3.8-2 2.3-2 4.2 0 3.7 1.5 3.8 3.4.2l1.5-2.7v2.5c.1 3.4-3.5 11.2-6.1 13.1-1.4 1.1-2.2 3.1-2.5 6.6l-.5 5.1-2.9-5.5c-1.6-3-2.9-6.9-2.8-8.7l.1-3.1 1.5 3.5c1.5 3.4 1.6 3.4 2.6 1.2.7-1.6.6-3.8-.3-7.6-.7-2.9-1-5.9-.6-6.5.4-.6.3-1.1-.3-1.1s-1.5 1.9-2.2 4.2c-.6 2.4-1.3 4.8-1.4 5.5-.2.6-2.5 2.6-5.2 4.4l-4.8 3.3 4.7-5.4c4.9-5.6 5.7-8.1 1.3-4-2.8 2.6-3 2.4-1.4-1.7.7-1.5 1.3-4.9 1.3-7.6.1-2.6.8-5.3 1.6-6 1-1 1.1-.9.5.1-1 1.8.3 8.4 1.6 7.7.5-.4.9-2.6.9-5 0-4.4.1-4.4 2.9-3.9 1.6.3 3.7.2 4.7-.4 2.4-1.3 3.6-.5 2.9 1.9zm26.2-2.5c-.3.3-1.2.4-1.9.1-.8-.3-.5-.6.6-.6 1.1-.1 1.7.2 1.3.5zm3.8 2.4c1 1.1 1.6 2 1.3 2-.3 0-1.3-.9-2.3-2-1-1.1-1.6-2-1.3-2 .3 0 1.3.9 2.3 2zm-9.6 5.5c0 .5-.6.1-1.4-.9-.8-1.1-1.5-2.7-1.5-3.5.1-1.7 2.9 2.6 2.9 4.4zm-68.6 14.1c-.8 2-1 1.8-3.3-2.6-2.7-5.2-2.5-5.5.9-1.9 1.7 1.7 2.7 3.7 2.4 4.5zm62.2-4.6c-1 1.1-2.2 2-2.6 2-.5 0 .2-1 1.4-2.3 2.7-2.8 3.8-2.5 1.2.3zm-52.8 1.7c.5 1.1-.5 2.6-3 4.8-2.3 2-3.7 4.1-3.7 5.6-.1 2.2-.2 2.2-1.1.5-1.7-2.8 2.8-12.6 5.8-12.6.7 0 1.7.8 2 1.7zm7.3 3.8c-2 1.9-13 8.5-13 7.7 0-1.5 5.6-6.2 7.5-6.2 1.2 0 3-.7 4.1-1.5 2.5-1.9 3.2-1.9 1.4 0zm-2 9.6c-1.4 3.3-2 3.8-2 2.1 0-2.2 2.9-7.7 3.7-6.9.2.2-.6 2.4-1.7 4.8zm-23.3-2.5c-.3.3-1.2.4-1.9.1-.8-.3-.5-.6.6-.6 1.1-.1 1.7.2 1.3.5zm34.7.7c-.5 1.5 3.2 6.7 4.8 6.7.6 0 .3-1-.8-2.1-1.3-1.5-1.4-2-.5-1.7 1.9.6 3.7 3.5 2.8 4.4-.4.4-2.5-.1-4.7-1.1-2.9-1.3-4-2.4-4-4 0-2.3.8-3.5 2.1-3.5.5 0 .6.6.3 1.3zM452 243c-.8.5-2.2 1-3 1-1.3 0-1.3-.1 0-1 .8-.5 2.2-1 3-1 1.3 0 1.3.1 0 1zm-27.9 8c-2.4 1.1-4.8 2-5.5 2-1.9-.1 5.8-3.9 7.9-3.9 1.2 0 .2.8-2.4 1.9zm33.8 24.9c1 .7.8.9-1 .9-1.3 0-5.5.2-9.4.6l-7 .5 5.5-1.3c6.7-1.7 10-1.9 11.9-.7zm-39.5 4.5c-.3.8-.1 1.7.5 2.1.6.3 1.1 1.7 1.1 3.1 0 3.5 2.5 4 7.9 1.5l4.6-2.1-3 2.5c-3.9 3.3-7.8 3.2-10.4-.1-2.1-2.6-2.8-6.4-1.4-7.7 1-1.1 1.3-.8.7.7zm49.4 24.1c1.5.8 2.4 1.4 2 1.5-1.2 0-18.3-6.2-19.2-7-1.2-1.2 13.9 3.7 17.2 5.5z"/><path d="M445 48.1c0 .5.5.7 1 .4.6-.3 1-.8 1-1.1 0-.2-.4-.4-1-.4-.5 0-1 .5-1 1.1zM471 152.8c0 .5 1 1.7 2.1 2.8 2.2 1.9 2.2 1.9 1-.3-1.2-2.4-3.1-3.9-3.1-2.5zM431.9 141c-6 3.1-9.3 6-6.7 6 .8 0 4.6-2 8.4-4.5 7.7-5.1 6.8-5.9-1.7-1.5zM454 1.7c.1 1 .8 2.9 1.6 4.3l1.5 2.5-.5-2.5c-.3-1.4-.6-3.3-.6-4.3 0-.9-.4-1.7-1-1.7-.5 0-1 .8-1 1.7zM484.4 3.4c.5 2.4.2 3.9-.9 4.9-.8.9-1.5 1.8-1.5 2.1 0 1 3.6.6 4.7-.5.8-.8 1.7-.5 3.4 1.2 2.1 2.1 2.3 2.2 3.3.5 2.9-4.8 5-6.7 6.7-6.3 1.5.4 1.9-.1 1.9-2.4 0-3.2-.2-3.4-3.2-1.8-1.4.8-2.3.8-3.1 0-.6-.6-3.5-1.1-6.5-1.1h-5.4l.6 3.4z"/><path d="M485.5 13c-1.6 1.1-2.5 2-2 2 .6 0 2.4-.9 4-2 1.7-1.1 2.6-2 2-2-.5 0-2.3.9-4 2zM208 17.9c-8.7 2.9-17.8 6.8-22.4 9.5C181.4 29.9 164 47.3 164 49c0 .5 4.4-3.4 9.7-8.7 13.4-13.2 14.6-13.9 35.8-21.4 8.7-3.1 7.4-3.9-1.5-1zM232.5 18c-8.6.8-18.7 3.3-21.9 5.6-2.6 1.8-1.7 1.8 2.8-.1 6.1-2.6 17.3-4.5 26-4.5s16.6 1.9 24.5 5.9c5.4 2.8 5.3 1.9-.1-1.3-4.9-2.8-17.4-6.7-20.9-6.5-1.3.1-6 .5-10.4.9zM432 18.9c0 .6.4 1.3 1 1.6.6.3.7-.1.4-.9-.7-1.8-1.4-2.1-1.4-.7zM206.9 23.3c-2.4 1.8-6.5 4.5-9.1 6-6 3.5-18 16.5-22.3 24.3-5 9.2-8.6 14.7-9.2 14.1-.2-.3.7-2.7 2.2-5.4 1.9-3.4 2.1-4.1.7-2.3-1.2 1.4-2.9 4.3-3.8 6.5-.9 2.2-3 6.9-4.6 10.4-1.5 3.5-2.7 6.5-2.5 6.7.2.2 1.4-1.5 2.8-3.7 1.3-2.2 3.9-6.4 5.8-9.2 1.8-2.9 5.1-8.4 7.2-12.2 2.1-3.9 3.9-6.6 3.9-6.1 0 1.3 4.4-2.9 9.3-8.9l4.1-5-5.2 5c-2.9 2.7-5.2 4.4-5.2 3.8 0-1.3 15.2-14.9 22-19.8 8.6-6.1 10.3-7.5 9.3-7.5-.6 0-3 1.5-5.4 3.3zM180 50.5c-.7.9-1.5 1.3-1.8 1-.3-.2.1-1.1.8-2 .7-.9 1.5-1.3 1.8-1 .3.2-.1 1.1-.8 2z"/><path d="M219.5 22.9c-13.8 4-23.2 10.8-33.5 24.1-1.9 2.5.8.1 6-5.2 7.8-7.9 10.8-10.3 17-13.2 10.6-5 17.8-6.6 29.6-6.6 7.5 0 11.6.5 15.9 2 3.3 1.1 6.4 1.9 7 1.7.5-.2-2.1-1.4-5.9-2.6-8.8-2.7-27-2.9-36.1-.2z"/><path d="M223 24.7c-13.5 5.2-17 6.8-19.5 9.2-1.6 1.5-4.6 3.9-6.6 5.3-1.9 1.4-5.1 4.7-7 7.3-1.9 2.5-5.1 6.7-7.1 9.2-3.6 4.5-10.4 16.3-9.4 16.3.2 0 2.3-3 4.7-6.8 6.6-10.4 17.6-22.7 25.9-28.9 10.5-7.9 18.6-10.6 31.5-10.7 5.5-.1 12.7.3 16 .7 5.1.7 5.7.6 4-.5-2.1-1.3-29.5-2.3-32.5-1.1z"/><path d="M189.2 29c-4.1 2.7-23.6 21.8-23.7 23.2 0 1.3-4.6 6.8-5.5 6.5-.5-.1-1.6.7-2.5 1.8-1.4 1.7-1.4 1.5.1-1.5 1-1.9 1.9-2.9 2.1-2.2.3.6.9 1 1.4.6 1.5-.9 1-2.2-.8-2-1 .1-2.8 2.2-4 4.7-1.2 2.4-5.8 11.7-10.2 20.5-4.4 8.9-9 18.8-10.2 21.9-1.2 3.2-4.5 9.2-7.3 13.4-2.8 4.2-6.2 10-7.5 12.8-1.4 2.9-2.6 5.1-2.8 5-.6-.6 5.8-14 8.1-17.2 3.7-4.9 10.1-17.1 8.3-15.7-.9.8-3.3 4.3-5.3 7.9-2 3.5-3.8 6.3-4 6-.5-.5 7.9-15.2 10.1-17.7 1.9-2.1 16-29.8 17.3-34 .7-2 5.7-9.3 11.2-16.3 5.5-7 9.1-12.3 8.1-11.7-1.1.5-3 2.3-4.3 4-1.2 1.7-4.2 5.3-6.5 8.2-2.4 2.8-5.3 6.7-6.7 8.7-6.9 10.3-11.7 18.4-15.1 25.1-2 4.1-5.3 10.1-7.2 13.3-1.9 3.2-3.3 6-3 6.3.7.7 6.3-8.5 11.2-18.5 4.7-9.7 6.7-12.2 3.4-4.4-2.5 6-7.7 15.5-15.2 27.7-3.2 5.2-6.9 12.1-8.3 15.3-1.3 3.2-2.4 4.9-2.4 3.8 0-2.5 8.4-21.9 14-32.1 2.2-4.2 3.9-7.8 3.7-8-1-1-8.7 11.5-12 19.6-5.1 12.5-16.3 44.6-17.1 49-.3 1.9.5.4 1.9-3.4s2.7-7.2 3.1-7.5c.9-.9-.5 4.4-4.7 17.4-3.9 12.1-7.8 27.4-8.5 33-.3 2.7-1.8 9.4-3.8 16.5-.6 2.4-.6 2.4.6.5 1.9-3 10-13.5 10.4-13.5.2 0-2 3.7-4.9 8.2-2.9 4.6-6.5 12.1-8.1 16.8-1.6 4.7-4 10.7-5.3 13.3-1.3 2.7-2.2 5.1-2 5.3.7.7 4.1-5.4 6.2-10.9 1-2.6 2-4.5 2.2-4.3 1.1 1.1-3.4 13.6-6.4 17.5-4.4 5.8-4.2 7.1.3 2.1 4.2-4.6 9.3-16.9 10.4-25.3 1.2-8 5.1-15.6 9.5-18.4 2.1-1.4 4.5-4.4 6.1-7.5 2.8-5.5 9.4-14.8 9.4-13.2 0 .5-1.5 3.2-3.4 6s-4.1 6.7-4.9 8.7c-.9 2.1-3.2 4.7-5.7 6.3-2.3 1.5-4.9 4.4-5.9 6.3-1.8 3.5-2.3 5.6-5.6 19.6-.9 3.8-4.1 12.1-7.1 18.4-3 6.2-5.3 11.5-5.1 11.8.3.2 2.2-2.4 4.3-5.9 2.1-3.5 5.3-8.1 7.2-10.4 3.9-4.7 9-13.2 13.2-22.2 1.6-3.4 3.3-6.2 3.9-6.2.5 0 1.2-1.9 1.6-4.3 1-5.6 2.9-10.2 7-16.2 1.9-2.8 3.7-6.4 4-8 .4-2.4 0-2-1.9 1.9-1.4 2.7-3.2 5.6-4 6.5-1.8 2.1-6.6 11.7-6.6 13.3 0 1.3-7.8 17.8-8.5 17.8-.2 0 .8-2.8 2.2-6.3 1.4-3.4 3.3-8.2 4.1-10.7.9-2.5 3.8-8.8 6.5-14 5.7-11.1 7.1-14.4 5.7-13.5-2.3 1.4-.7-1.5 4.5-8 3-3.8 5.5-7 5.5-7.3 0-.6-15.6 13.5-22.3 20.3-3.3 3.3-6.8 7.9-7.9 10.2-1 2.4-2.1 4.3-2.2 4.3-1.1 0 1.5-7.5 3.2-9.3 2.3-2.6 11.2-18.8 11.2-20.6 0-1.8 20.8-39.8 25.5-46.6 2.3-3.3 4.5-6.7 4.9-7.5 1.3-2.5-6.2 6.3-9 10.5-2.6 4-7.1 8.1-8 7.2-.3-.2 1.1-2.4 3.1-4.7 2-2.3 5.1-7.6 7-11.7 4.9-10.6 10.5-18.5 20-28.3 6.7-7 9.1-10.3 13.1-18.5 2.7-5.5 6.2-11.5 7.9-13.4 2.6-2.9 2.7-3.2.6-2-2.4 1.4-9.1 11.1-9.1 13 0 .7-1.4 3.7-3.2 6.8-3 5.2-7 10-15.8 19.1-1.9 2-4.3 4.7-5.2 6l-1.7 2.5 1.1-3.3c.6-1.8 2.6-4.8 4.4-6.6 1.9-1.8 3.4-4.2 3.4-5.4 0-1.1 1.7-5.3 3.8-9.4 2.1-4 4.5-8.9 5.2-10.8 1.9-5.1 9-14.2 19.9-25.4 5.3-5.4 8.3-9 6.6-7.8-4 2.7-14.8 14.1-21.6 22.7-7.4 9.4-10.8 14.3-8.6 12.6 2.4-1.9 2.2-1.2-2.2 7.1-2.1 4-4.2 8.4-4.6 9.7-.4 1.3-2.3 4.4-4.2 7-1.9 2.5-3.9 5.6-4.4 7-.6 1.3-2.6 4.6-4.5 7.2-1.9 2.6-5.9 9.9-8.9 16.1-2.9 6.2-6.1 12.2-7 13.3-.9 1.2-.6-.1.8-3 1.4-2.8 2.8-6.1 3.2-7.5.4-1.4 2.8-6.1 5.2-10.5 2.5-4.4 4.6-9.3 4.9-10.8.3-2.9 3.2-9.3 7.9-17.7 1.3-2.5 2.7-5.6 3-7 .3-1.4 1.4-3.6 2.6-5 1.7-2 1.9-2.1 1.4-.5-.5 1.1-1.6 4.5-2.7 7.5-1 3-2.7 6.3-3.8 7.5-2.3 2.4-8.5 15.4-7.7 16.1.3.4 1.8-1.8 3.3-4.8 1.5-2.9 3.8-6.7 5.1-8.4 2.9-3.8 11.6-21.5 10.9-22.2-2.6-2.5 21.7-31.1 33.9-40 4.4-3.1 1.7-2.5-3.3.8zm-25.9 35.5c-.3.9-.8 1.4-1 1.1-.3-.3-.2-.9.2-1.5.9-1.6 1.5-1.3.8.4zM156 67c-1.2 1.6-2.4 3-2.6 3-.7 0 .5-2 2.4-4.3 2.4-2.7 2.5-2 .2 1.3zm-15.7 42.9c-1.5 2.8-2.9 4.8-3.1 4.6-.5-.5 4.7-9.5 5.4-9.5.3 0-.7 2.2-2.3 4.9zm-23.8 21.8c-.9 1.5-1.3 1.9-1 .8.4-1.1 1-2.9 1.3-4 .3-1.1.7-1.4.9-.8.3.7-.3 2.4-1.2 4zm3.8 22.8c-.3.9-.8 1.4-1 1.1-.3-.3-.2-.9.2-1.5.9-1.6 1.5-1.3.8.4zm-16.3 23c-.7 2.5-1.5 4.4-1.7 4.2-.2-.3.2-2.5.9-5 .6-2.6 1.4-4.4 1.6-4.2.3.2-.1 2.5-.8 5zm6.1-.8c-3.9 6.9-10.1 15.5-10.1 14.2 0-.9 2.3-4.8 5.2-8.7 4.9-6.9 7-9.2 4.9-5.5zm10.2 2.5c-1.1 1.3-2.5 3.2-3.1 4.3-1 1.8-1.1 1.8-1.2.2 0-1 1.2-2.9 2.6-4.2 3.4-3.1 4.4-3.3 1.7-.3zm-12.5 26c-1.9 3-5.2 13.6-6.7 21.8-1.2 6.3-3.7 11.8-4.8 10.6-.3-.3-.1-1.1.4-1.8 1-1.2 1.8-3.9 5.8-19.9 1.5-6.2 4.7-12.9 6.1-12.9.3 0 0 1-.8 2.2zM228.7 28.1c-12.5 3-22 8.3-30.7 16.8-7.7 7.6-6.4 7.1 2.6-1.1 2.8-2.5 7.4-5.8 10.3-7.2 8.2-4.2 22.5-8.6 27.7-8.6 3.5 0 4.5-.3 3.4-1-2.1-1.3-4.3-1.2-13.3 1.1zM435.5 28c2.1 2.4 2.6 2.5 1.9.6-.3-.8-1.3-1.7-2.2-2.1-1.3-.5-1.3-.2.3 1.5zM280.5 27.8c1.7 1.6 13.9 11.6 16 13.1 1.1.7-.9-1.5-4.5-4.9-3.6-3.4-7.8-6.9-9.5-7.7-1.6-.8-2.5-1.1-2-.5z"/><path d="M227.3 32.4c-10 3.3-22.3 9.7-25.9 13.7-1.7 1.9-1.6 1.9 3.2-.2 2.7-1.2 6-3.2 7.4-4.5 2.8-2.5 3.7-2.9 19.5-8.5 13.4-4.7 10-5.1-4.2-.5zM294.5 31c1 1.1 2 2 2.3 2 .3 0-.3-.9-1.3-2s-2-2-2.3-2c-.3 0 .3.9 1.3 2zM245.5 30.7c-6.6.9-24.5 7.3-24.5 8.8 0 1 11.3-.5 19.2-2.4 7-1.8 10.5-2.1 18-1.7 5.2.3 10.3.8 11.3 1.1 1.1.3.5-.2-1.3-1-3.1-1.5-7.8-2.1-17.6-2.4-4-.1-4.1-1.4-.1-2.4l2-.5-2 .1c-1.1 0-3.3.2-5 .4zM238 35c0 .5-.9 1-2 1-1.2 0-3.5.7-5.1 1.6-1.7.8-3.6 1.3-4.2 1.1-.7-.2 1.3-1.3 4.3-2.5 6.4-2.4 7-2.5 7-1.2z"/><path d="M255 32c3.4 1.1 6 1.1 3.5 0-1.1-.5-2.9-.8-4-.8-1.6 0-1.5.2.5.8zM281 33.4c0 .2.7.7 1.6 1 .8.3 1.2.2.9-.4-.6-1-2.5-1.4-2.5-.6zM236.8 39.7c.7.3 1.6.2 1.9-.1.4-.3-.2-.6-1.3-.5-1.1 0-1.4.3-.6.6z"/><path d="M245.2 40.1c-3.5.4-7.8 1.3-9.6 1.9-2.2.7-4.8.7-8.5 0-7-1.3-9.4-1.3-11.4.2-1.4 1.1.3 1.3 9.5 1.2 6.2-.1 13.7-.7 16.7-1.3 9.1-1.9 22.2-1.4 28.8 1 6.7 2.5 12.6 6.3 16.8 11 2.3 2.5 1.4 2-3.6-1.9-12.1-9.4-23.7-11.9-40.4-8.7-4.9 1-11.2 1.7-13.8 1.7-3.6-.2-6.5.6-12 3.4-4 1.9-7.9 4.2-8.7 5.1-1.4 1.4-1.3 1.4.8.3 1.3-.6 2.6-.9 2.9-.7.7.8-7.3 4.7-9.6 4.7C201 58 188 69.4 188 71.2c0 .5 2.4-1.1 5.2-3.6 2.9-2.5 5.6-4.6 6.1-4.6.4 0 .5-.5.1-1.2s-.3-.8.5-.4c.6.4 4.5-1.2 8.9-3.8 14.9-8.7 26.8-12.6 38.8-12.6 3.4 0 5.3-.4 4.9-1-1.2-1.9 4.1-1 11.9 2.2 6.3 2.5 9.3 4.5 14.3 9.4 3.6 3.6 6.3 5.5 6.3 4.6 0-2.4-7.3-8.7-14.1-12.1-6.6-3.3-6.1-4.3.6-1.2 4.9 2.2 15 9.8 15 11.2 0 .5 1.1 1.9 2.5 2.9 2.3 1.7 2.6 1.7 4.2.3 1.7-1.5 1.6-1.8-1.4-5.5-7.8-10-21.9-16.8-33.8-16.7-3.6.1-9.3.5-12.8 1zM227 47.2c-1.4.6-4.9 2.2-7.9 3.5-3 1.3-5.6 2.1-5.9 1.9-.8-.8 11.3-6.5 13.8-6.5h2.5l-2.5 1.1zM303.6 40.9c-.4.7-.5 1.5-.2 1.8.9.9 1.9-.4 1.4-1.8-.4-1.1-.6-1.1-1.2 0zM300.1 42.4c-.2 2.6 4.9 10.2 7.8 11.6 1.7.8 1.2-.2-2.2-4-2.5-2.8-4.8-6.1-5-7.3-.3-1.7-.5-1.8-.6-.3z"/><path d="M212 46.7c-4.3.4-5.1.9-18.9 15.1C182.2 73 176.8 79.5 170.5 89c-4.6 6.9-10.6 15.2-13.5 18.5-2.8 3.3-6 7.6-7 9.6-1 1.9-3.6 5.8-5.7 8.5-2.2 2.7-5.6 8.1-7.7 12-4.2 7.8-8.1 13.4-6.9 9.9.3-1.1 2-4.4 3.6-7.3 1.6-2.9 2.7-5.5 2.4-5.8-.2-.3-5.8 9.9-12.2 22.7l-11.8 23.3 4.4-3.5c9.8-7.6 24.1-23 22.7-24.5-.3-.2-1.7 1.4-3.2 3.6-1.4 2.2-3.1 4-3.6 4-1.6 0-1.3-.7 3.3-6.9 2.3-3.2 6.4-10.3 9.1-15.7 2.7-5.5 5.6-11 6.3-12.4.8-1.4 2.9-5.8 4.8-9.8 3.8-8.1 7.4-13.6 8.3-12.7.3.3 1.1-.7 1.7-2.2 4.1-9.6 19.4-29.4 33-42.7 7.3-7.1 11.1-9.6 14.7-9.6 1.5 0 3-.5 3.3-1 .3-.6.5-.9.3-.8-.2.1-2.3.3-4.8.5zm-60.4 72.8c-3.1 5.7-5.6 10.9-5.6 11.5 0 1.5-9.1 18.2-9.7 17.7-.2-.3 1.4-4.2 3.7-8.7 2.3-4.5 4-8.4 3.8-8.6-.6-.5-8.8 14.1-8.8 15.7 0 .8-1.1 3.8-2.5 6.7-1.4 3-2.3 5.7-2 6.1.2.4-2.3 3.4-5.6 6.7l-6 5.9 3.3-5.2c6.9-10.7 9.8-15.8 9.8-17.3.1-3 23-41 24.8-41 .2 0-2.1 4.7-5.2 10.5zm-21.5 32.8c-1 .9-1.1.8-.5-.6.3-1 .9-1.5 1.2-1.2.3.3 0 1.1-.7 1.8zM243 46.9c-2.7.5-1.5.8 5.5 1.3 13.5.8 21.2 3.7 28.6 10.6 3.4 3.1 7.1 7.5 8.1 9.7l1.9 4-.5-3.4c-.6-3.6-7.6-12.6-12.4-15.9-3.3-2.3-10.6-4.7-18.6-6.1-6.4-1.2-7.3-1.2-12.6-.2z"/><path d="M200.5 49.8c-1.7 1-4.5 3.6-6.4 5.8-1.9 2.1-4.1 4.3-5 4.8-.9.5.4-1.2 2.8-3.7 2.5-2.6 4.2-4.9 3.9-5.2-.3-.3-4.3 3.6-8.9 8.7-7.9 8.6-8.8 10.4-2.9 5.4 1.4-1.2-.4 1.1-4 5-7.6 8.3-13.1 15.5-14.2 18.4-.4 1.2-2.1 4-3.6 6.3-1.6 2.3-3.5 5.3-4.1 6.7-2.2 4.5 5.6-5.1 8.5-10.5 4.7-8.5 17.7-24.1 29.8-35.7 4.5-4.3 7.9-7.8 7.6-7.8-.3 0-1.9.8-3.5 1.8zM161.7 51.8c-2.1 2.3-2.1 3.1-.2 2.8 2.3-.3 3.5-2 2.6-3.4-.6-.9-1.1-.8-2.4.6zM422 50.5c0 .2 1 1 2.3 1.6 2 1.1 2.1 1.1.8-.4-1.3-1.6-3.1-2.3-3.1-1.2zM119.9 53.5c-15.3 2.7-29.9 6.1-31.2 7.4-.9.9 6.8-.4 22.8-3.8 5.5-1.2 14.5-3 20-4 6.6-1.2 8.6-1.9 6-1.9-2.2 0-10.1 1-17.6 2.3zM151.8 54.7c-6.5 7-14.8 17.3-14.8 18.6 0 .6.6.3 1.2-.8s4.3-5.6 8.1-10c9.2-10.4 10.1-11.5 9.6-11.5-.3 0-2.1 1.7-4.1 3.7zM218.5 54.3c-10.9 5.2-24.6 14.1-29.1 18.9-5.1 5.4-17.1 22.8-19.6 28.5-1.8 4.1-3.7 6.2-2.4 2.5.6-1.5.5-1.5-.8-.2-1.8 1.8-13 23-12.4 23.5.2.2 3-4.6 6.2-10.6 3.2-6.1 6-10.8 6.3-10.6.2.3-.3 1.9-1.1 3.6-.9 1.6-1.6 3.4-1.6 3.8 0 .4 2.4-3.5 5.3-8.8 7-12.5 12.3-19.3 24-30.6 9.9-9.6 22-18.3 28.4-20.4 3.5-1.1 20-.7 26.3.7 2.3.5 2.2.4-.5-1.2-2.1-1.2-5.9-1.8-12.5-2.1-9.1-.3-9.8-.2-16.5 3zM192 73.5c-2.4 2.5-4.9 4.5-5.5 4.5-.9-.1 8.4-9 9.4-9 .3 0-1.5 2-3.9 4.5zM497.6 53.6c-1.7 1.2-1.7 1.4-.4 1.4.9 0 2-.5 2.3-1.1 1.1-1.7.2-1.8-1.9-.3zM186.1 57.2c-2.2 2.4-4.1 4.7-4.1 5.2 0 .6.3.6.9 0 5.3-5.8 8.2-9.4 7.8-9.4-.3 0-2.4 1.9-4.6 4.2zM310.7 70.5c2.5 3.6 6.3 7.2 6.3 5.9 0-.6-1.9-2.8-4.2-4.9-3.6-3.5-3.8-3.6-2.1-1zM289.1 70.6c0 1.1.3 1.4.6.6.3-.7.2-1.6-.1-1.9-.3-.4-.6.2-.5 1.3zM133 81c-2.8 5.5-4.4 9.8-3.1 8.5 1.1-1.2 6.2-12.5 5.6-12.5-.3 0-1.4 1.8-2.5 4zM7.6 80.5c-1.1.8-2.8 1.5-3.8 1.5C2.2 82 2 83.1 2 92.9v11l3.4-.6c2.4-.4 3.5-.1 3.9 1 .5 1.2-.2 1.4-3.6 1l-4.2-.4 2.7 1.6c3.1 1.7 9.9 2 17.8.7l5.5-.9-4.3-.8c-2.8-.5-4-1.1-3.3-1.8 1-1 6.2-.5 12.6 1.2 2.2.6 7.4 1.1 11.6 1.1 6.3 0 8.1-.4 10.3-2.1 2-1.6 3.5-2 5.9-1.5 5.6 1.2 8 1.1 8.4-.2.3-.7-2.9-4.6-7-8.7L54.2 86h5.2c5.8 0 8.9-1.3 6-2.4-3.1-1.2-20.7-2.5-25.1-1.9-2.4.3-6.9.1-10.1-.5-10.5-2-20.5-2.3-22.6-.7zm12.2 2.2c-1 .2-2.6.2-3.5 0-1-.3-.2-.5 1.7-.5s2.7.2 1.8.5zm-2 15.6c.3 3.2 0 3.7-2.3 4.3-1.9.5-3.2.1-5-1.6-1.4-1.3-2.2-2.7-1.9-3.1.9-1.5 4.4-1 5 .6.4.8 1.1 1.5 1.6 1.5.7 0 .6-.5-.1-1.4-1.3-1.6-.4-4.9 1.3-4.3.6.2 1.2 2 1.4 4zm33 1.7c1 3-4.7-.2-7.8-4.4-1.2-1.6-.7-1.5 3 .7 2.5 1.4 4.6 3.1 4.8 3.7zM165.9 83.7c-3 3.3-13.9 21.4-11.6 19.3 1-1 7.9-11.6 9.4-14.5.9-1.7 2.5-4 3.6-5.3 1.1-1.2 1.8-2.2 1.6-2.2-.3 0-1.6 1.2-3 2.7zM304.5 83c1 1.1 2 2 2.3 2 .3 0-.3-.9-1.3-2s-2-2-2.3-2c-.3 0 .3.9 1.3 2zM421 82.7c0 .5.9 1.8 2 2.8 1.1 1 2 1.4 2 .8 0-.5-.9-1.8-2-2.8-1.1-1-2-1.4-2-.8zM154.9 94.7c-4.2 4.4-14.9 20.7-14.9 22.7 0 1.7 6.3-7 9.1-12.7 1.6-3.1 3.2-5.7 3.5-5.7.3 0 .4.7 0 1.5-.8 2.2.2 1.8 1.5-.6.8-1.5.8-1.9 0-1.5-2.3 1.5-.9-1 2.6-4.6 2-2.1 3.5-3.8 3.2-3.8-.3 0-2.5 2.1-5 4.7zM74.4 91.8c1.2 2 5.8 3.9 11.1 4.6l5 .6-3.5-1.6c-1.9-.9-4.8-2-6.5-2.4-1.6-.4-3.9-1.1-4.9-1.6-1.4-.5-1.7-.4-1.2.4z"/><path d="M65 95c1.4 1.1 3.7 2.5 5.3 3.1 1.5.6 3 2.2 3.3 3.6.6 2.1 1.1 2.4 3.3 1.8 2.9-.7 7.4-4.5 5.3-4.5-.8 0-2.2.5-3.4 1.1-1.6.9-2.5.6-4.7-1.4C71.2 96 65.8 93 63.8 93c-.7 0-.2.9 1.2 2zM322 93.5c0 1.5 6.9 9.2 7 7.7 0-.7-1.6-2.9-3.5-5-1.9-2-3.5-3.3-3.5-2.7zM119.6 99.5c-.9 2.6-.7 3.2.5 1.2.6-1 .9-2.1.6-2.3-.2-.3-.7.2-1.1 1.1zM159.4 110.6c-2 3.6-3.4 6.7-3.2 7 .3.2 2.2-2.7 4.2-6.6 4.7-8.8 3.9-9.2-1-.4zM431.2 108c.7 1 1.4 1.8 1.5 1.6.6-.6-.9-3.6-1.8-3.6-.5 0-.4.9.3 2zM149.4 112.2c-1.5 2.4-4.4 6.9-6.5 10-2.2 3.2-3.7 5.8-3.4 5.8.7 0 8-10.1 11-15.3 3.3-5.8 2.5-6.2-1.1-.5zM162.3 116.9c-1.6 2.6-4.3 9.1-3.8 9.1.7 0 5.7-10.1 5.3-10.6-.2-.1-.9.5-1.5 1.5zM417.4 120.5c2.2 1.7 4 2 3.2.6-.3-.5-1.6-1.1-2.8-1.4-2.2-.6-2.2-.5-.4.8zM21 122c-4 .8-2.9 1.1 5.2 1.3 4.9.2 5.4 0 3.5-1-2.4-1.4-3.5-1.4-8.7-.3zM34 125c0 .5 1.2 1 2.8 1 2.1 0 2.4-.2 1.2-1-2-1.3-4-1.3-4 0zM53.1 126.6c-2.4 1.3-3.6 2.4-2.7 2.4.9 0 3.8-1.1 6.4-2.5 2.8-1.5 3.9-2.5 2.7-2.4-1.1 0-4 1.1-6.4 2.5zM9.5 127c-1.1.5-3.2.9-4.7.9-1.6.1-2.8.5-2.8 1.1 0 1.8 5.7 1.1 8.1-1 2.6-2.1 2.5-2.3-.6-1zM279 129.1c-17.1 3.4-19 4.1-21.5 7.1-1.4 1.6-2.5 3.3-2.6 3.6 0 .4-.2 1.9-.4 3.3-.3 2.6-.2 2.6 3.3 1.8 2-.5 5.8-1.4 8.5-1.9 2.6-.5 5.5-1.4 6.5-1.9 3-1.6 17.5-6.2 22.5-7.2 3.7-.7 5.7-.5 8.5.6l3.7 1.5-2.4-2c-1.3-1.1-3.5-2.3-5-2.7-1.4-.3-2.8-.9-3.1-1.3-.9-1.3-13.3-1.9-18-.9zm-18.8 9.3c-2.8 4.6-4.3 5.5-2.2 1.4 1.2-2.3 4-5.8 4.6-5.8.2 0-.9 2-2.4 4.4zM26.5 130.2c-6.2 2.1-7.2 2.9-3.1 2.4 2.2-.3 4.7-1.2 5.5-2.1 1.7-1.7 1.7-1.7-2.4-.3zM36.8 130.4c-2 .6-4 1.5-4.5 1.9-.9 1 3.5 0 8.7-1.9 4.4-1.6.9-1.6-4.2 0zM152 131c-.6 1.1-.8 2-.6 2 .3 0 1-.9 1.6-2 .6-1.1.8-2 .6-2-.3 0-1 .9-1.6 2zM284.5 143.1c-17.6 2.9-25.5 11.1-25.5 26.6 0 13.5 6.8 25.3 17.9 31 5.4 2.8 7.2 3.3 12.9 3.2l6.7-.2-7-.7c-12.6-1.3-20.9-7.3-26.4-19-3.1-6.5-3.4-14.3-.8-18.3 1-1.5 3.3-3 5.4-3.6 5.1-1.5 27.9-1.4 31.9.1 1.7.6 3.9.8 4.8.5 1.5-.6 1.5-.9.2-3.6-2.3-4.4-7.1-7.9-13.3-9.7-7.3-2.1-14.1-1.2-21.3 2.8l-5.5 3 2.5-2.7c3.7-4 8.7-6.2 18.5-8.1 7.3-1.5 9.8-1.6 16.2-.6 9.3 1.5 10.9.9 2-.7-7.2-1.2-11.9-1.2-19.2 0zm13.9 11.9c5.2 3.9 3.8 3.9-1.6 0-2.2-1.7-3.7-3-3.2-3s2.7 1.4 4.8 3zm-25.4-1.6c0 .2-2.2 2-4.8 4-2.6 1.9-5.4 4.6-6.2 6-.7 1.4-1.5 2.4-1.7 2.2-1.2-1.2 3.4-7 7.5-9.6 5-3.1 5.2-3.2 5.2-2.6zm15.5 4.6c.4.6-.6 1-2.2 1-2.2 0-2.5-.2-1.3-1 1.9-1.2 2.7-1.2 3.5 0zM144.2 151.2c-4.9 7.3-8.6 13.8-7.8 13.8.4 0 10.7-15.4 12.5-18.8 2.4-4.5 0-2-4.7 5zM260.9 146.3c-.8.7-2.4 2.7-3.5 4.5-1.6 2.9-2.3 3.3-4.9 2.8-2.8-.5-2.9-.5-1.1.9 3 2.3 3.8 1.9 8.3-4 4.1-5.3 4.6-6.8 1.2-4.2z"/><path d="M314.2 147.2c4.3 2.5 5.7 5.2 7 13.3 1.3 8.1 1 16.7-.8 21.8-1.2 3.8-1.2 4 .1 2.2 2.5-3.2 4.5-11.4 4.5-17.9-.1-7.7-3.9-16.1-8.9-19.4-1.9-1.2-3.9-2.2-4.5-2.2-.6 0 .5 1 2.6 2.2zM147.5 151.7c-1.5 2.6-4.2 7.1-6 9.9-1.8 2.8-4.5 7.4-5.9 10.2-2.6 5.1-4.1 6.8-3 3.4.5-1.4.4-1.4-.4-.2-.6.8-.9 1.7-.6 2.1.2.4-.7 2.7-2.1 5.1-3 5.2-3.3 7.5-.4 3.3 6.4-9.5 22.2-37.5 21.5-38.2-.2-.3-1.6 1.7-3.1 4.4zM24 149.4c0 1.4 7.1 3.6 11.5 3.6 6.4 0 4.8-1.7-2.2-2.2-3.2-.3-6.6-.9-7.5-1.3-1-.4-1.8-.4-1.8-.1zM66.5 150c-1.1.5-3.8.9-6 .9-5.4.2-2.6 2.1 3.1 2.1 3.7 0 6.4-1.3 6.4-3.2 0-1-.9-.9-3.5.2z"/><path d="M7.8 151.6c2.3 1 3.8 1.1 5.2.4 2.6-1.4 4.3-1.3 6.6.4 2.9 2.2.9 3.1-2.2 1.1-2.5-1.6-2.8-1.6-3.9-.1-1.5 2-4.2 2-7.5.1-1.4-.8-2.8-1.4-3.2-1.5-.5 0-.8 3.8-.8 8.4v8.5l3.3-1.1c1.7-.5 5.9-1.4 9.2-2 3.3-.5 8.4-1.8 11.3-2.9 6.3-2.3 6.8-2.3 5.3-.5-2.3 2.8 1.5 2.4 6.4-.6 3.6-2.3 5.3-2.8 6.8-2.1 1.9.8 1.7 1.1-1.8 3.1-4.6 2.8-4.1 3.9.8 1.6 4.4-2.1 5.3-4 2.7-5.4-3.4-1.8-2.3-3.1 2-2.4 3.5.6 4.1.4 4.9-1.7.5-1.6.5-2.6-.3-3.1-1.9-1.3-7-.8-9 .7-1.4 1.1-4.6 1.5-10.6 1.5-7.4 0-9-.3-10.5-2s-3-2-9.9-1.9c-7.9.1-8 .1-4.8 1.5zm7.7 7.4c-.3.5-1.2 1-1.8 1-.7 0-.6-.4.3-1 1.9-1.2 2.3-1.2 1.5 0zM70.9 155.7c-.6.6-2.3 1.4-3.7 1.6-2.2.3-2 .4.8.5 1.9.1 5.8-.5 8.5-1.2l5-1.3-4.8-.4c-3-.3-5.2 0-5.8.8zM52 160.7l-2.5 1.5 2.5-.6c1.4-.3 3.9-.6 5.5-.6 2.3 0 2.7-.3 1.5-1-2-1.3-4-1.1-7 .7zM275.8 162.7c.7.3 1.6.2 1.9-.1.4-.3-.2-.6-1.3-.5-1.1 0-1.4.3-.6.6zM266.3 165c-5.3 3.2-4.3 4.6 4.2 5.9 4.2.6 8.5 1.1 9.7 1.1 2.1 0 2.1 0 .2-1.5-1-.8-1.5-1.5-1-1.5 1.4 0-2.6-4-4.1-4-.7 0-1.3-.5-1.3-1 0-1.7-4.3-1.1-7.7 1zM231.8 169.6c-.5.4-.8 2.1-.7 3.8 0 3 0 3 1 .7 1.1-2.7.8-5.7-.3-4.5zM421 180.4c0 1.8 2.8 2.1 5 .5 1.2-.8 1.2-.9-.5-.7-1.1.1-2.6-.1-3.2-.5-.9-.5-1.3-.3-1.3.7zM90 189.1c-.6 2.4-1.3 5.1-1.6 5.9-.3 1-.2 1.2.5.5 1.1-1.1 3.2-9.7 2.6-10.3-.2-.2-.9 1.6-1.5 3.9zM21.2 188.6c.2 1.5-.4 2-2.7 2.2-1.6.2-3.4.8-4 1.3-.5.5-2.6.9-4.8.9-6.4 0-7.7 1.3-7.7 7.5 0 5.6 1.2 6.9 3.7 4.4.9-.9 2.1-.7 4.8.6 6.1 2.8 17.6 0 19.1-4.7.3-1 1.4-1.8 2.4-1.8 3.2 0 3.3 1.9.1 3.8-1.7.9-3.1 2-3.1 2.4 0 1.1 3.8 1 6-.2 1.4-.7 4.8-.7 11 .2 8.4 1.1 9.1 1 10.4-.7 1.2-1.6 1.7-1.7 5.7-.5 2.4.7 6.4 1.4 8.9 1.6 4.4.3 4.4.3 1-.6-2-.5-5.6-1.8-8.2-2.9-4.6-2-4.7-2-7.1 0-4.8 3.7-11.1 1.8-14.2-4.1-1.8-3.6-1.9-4-.2-4 .8 0 2.5 1.7 3.8 3.7 1.3 2.1 3.2 3.9 4.2 4.1 1.8.4 1.8.3.1-2.5-1-1.5-3.1-4.3-4.8-6.1-1.7-1.8-3-3.6-2.8-3.9.1-.3-3.5-.6-8-.7-4.6-.2-9.6-.6-11.1-1-2.5-.7-2.8-.6-2.5 1zm18.2 7.6c2.1 3 2 5.5-.2 6-1.5.4-1.7 0-1.4-2.9.4-3 .2-3.3-2.4-3.4-2.5 0-2.6-.1-.9-.9 3-1.3 3.2-1.2 4.9 1.2zm-10.7 2.4c-.3.3-1.2.4-1.9.1-.8-.3-.5-.6.6-.6 1.1-.1 1.7.2 1.3.5zm-15 5c-.3.3-1.2.4-1.9.1-.8-.3-.5-.6.6-.6 1.1-.1 1.7.2 1.3.5z"/><path d="M45 190.6c0 .3 4.1 2.4 8.5 4.2.6.2.3-.3-.5-1.2-1.5-1.5-8-4-8-3zM130.6 199.9c-2.5 5-5.2 11.5-6 14.3-5 17.5-6.3 26.2-1.6 11.1 1.5-5.1 3.7-10.9 4.9-12.8 2.1-3.6 3-6.4 1.1-3.5-.8 1.3-1 1.3-1-.2 0-.9 1.8-5.2 4-9.4 2.2-4.3 3.8-7.9 3.6-8.1-.2-.3-2.5 3.6-5 8.6zM57.4 193.7c-.3 1-1 2.6-1.5 3.5-1.4 2.7-1.1 4.6.5 2.6.7-1 1.6-1.5 1.9-1.1.4.3.7-.8.7-2.5 0-1.6.6-3.3 1.3-3.5.7-.3.5-.6-.6-.6-1-.1-2 .7-2.3 1.6zM268.2 202c1.4 1.9 3.5 5.5 4.7 7.8 2.9 5.8 9.2 12.5 14.6 15.6 2.4 1.4 5.3 4.2 6.6 6.2 2 3.3 2.1 4.4 1.5 13.4-.3 5.4-.9 10.7-1.2 11.7-.5 1.2-.4 1.5.4.8 1.7-1.6 4.6-17.7 3.8-21.6-.4-2.2-2.8-6.1-6.5-10.5-3.2-3.8-6.7-8.5-7.8-10.4-1.1-1.9-4.1-4.9-6.7-6.7-2.7-1.7-6.5-4.6-8.4-6.5l-3.6-3.3 2.6 3.5zM86.1 203.6c0 1.1.3 1.4.6.6.3-.7.2-1.6-.1-1.9-.3-.4-.6.2-.5 1.3zM84.1 209.1c-.6 1.8-1.1 3.7-1 4.3 0 .6.7-.7 1.5-2.8.8-2.2 1.2-4.1 1-4.3-.2-.2-.9 1-1.5 2.8zM232.3 209.8c.1.5-1.1 2.1-2.8 3.6-2.2 2-2.4 2.4-.8 1.7 3.1-1.5 6.9-1.4 10.4.5 3.6 1.8 4 1.7 2.8-1.4-1.1-2.8-10.5-7.1-9.6-4.4zM253.8 212.6c-1.6.8-2.8 2-2.8 2.6 0 .6.8.3 1.9-.6 1-.9 3.2-2.1 4.7-2.6 2-.6 2.3-.8.9-.9-1.1 0-3.2.7-4.7 1.5zM91.7 216.2c-2 5.6-3.1 9.4-2.4 8.8.7-.7 4.6-12.4 4.2-12.8-.1-.2-1 1.6-1.8 4zM329.2 215c0 1.4.2 1.9.5 1.2.2-.6.2-1.8 0-2.5-.3-.6-.5-.1-.5 1.3zM254 216.5c-2.7 2.8-2.1 3.2 1.5.9 2.9-1.9 7.1-1.5 6.7.6-.3 1.2-.1 1.3 1 .2s1-1.6-.6-2.8c-2.9-2.1-6-1.7-8.6 1.1z"/><path d="M228.4 217.5c-1 .8-3 1.5-4.4 1.5l-2.5.1 2.8 2.4c1.5 1.4 4 2.5 5.5 2.5 2.7 0 13.2-4 13.2-5s-6.5-3-9.6-3c-1.7 0-3.9.7-5 1.5zm10.1 1.5c1.4.6.2.8-4 .8-5.2-.1-5.5-.2-2.5-.8 4.6-1 4.2-1 6.5 0zM77 231c-2.3 4.5-4.8 8.4-5.5 8.6-.7.3-3.3.1-5.7-.4l-4.3-.9 3.9-1.7c4.5-1.9 4-3.3-1.7-4.3-2.4-.4-3.7-.2-3.7.6 0 1.8-4 1.3-6.8-1-2.3-1.8-2.7-1.9-3-.5-.2.9-1.2 1.6-2.3 1.6-1 0-1.9.4-1.9.9 0 1.1 2.5 2.1 5.1 2.1 1 0 1.9.5 1.9 1.1 0 .7-2.8.9-8.2.7-7.2-.2-8.8 0-11.9 2-2 1.2-4.2 2.2-4.8 2.2-1.5 0 4.5-5.2 8.4-7.3 1.7-.9 2.3-1.6 1.4-1.7-.9 0-3.8 1.2-6.5 2.6-4.3 2.3-4.9 2.4-6 1-.6-.9-1.6-1.6-2.2-1.6-.6 0-3.1-1-5.6-2.1l-4.4-2.2-3.5 2.2C7.8 234 5.3 235 4.1 235c-1.8 0-2.1.6-2.1 3.7.1 3.5.2 3.7 1.5 1.9.8-1 1.6-2.2 1.7-2.5.2-.4 1.8-1.7 3.6-3 4.7-3.3 6.3-2 1.7 1.5-6.7 5-8.4 7.5-8.5 12.2 0 4.1.1 4.2 2.8 3.6 1.5-.3 4-1 5.6-1.5 4.4-1.4 10.2-1.1 11.6.6 1.4 1.7 6.2 2 9.1.5 1-.6 4-1.1 6.7-1.1 2.6 0 6.5-.3 8.7-.6l4-.6-4.7-1.3-4.6-1.4 2.6-3c2.7-3.1 4.7-4 3.9-1.8-.2.7 1.1 2.3 2.9 3.5 3.5 2.4 8.9 3 11.4 1.2 1.1-.8.6-.9-2.1-.6-2.3.3-4.9-.1-7.5-1.4-3.3-1.5-3.4-1.7-.9-1.1 1.7.4 7.2.7 12.4.7h9.4l1.7-5c.9-2.8 2.9-7.4 4.4-10.3 1.5-3 2.5-5.6 2.3-5.8-.2-.3-2.3 3.2-4.7 7.6zm-52.4 14.7c1 .6 2.5.8 3.2.6 2.5-.9 1.1.7-2 2.3-2.2 1.1-3.3 1.3-3.6.5-.2-.6-1.2-1.1-2.2-1.1-1 0-2.2-.5-2.6-1.1-.4-.8-2.6-1-6.3-.6l-5.6.6 2.6-2.3c2.5-2.2 3-2.2 8.6-1.1 3.3.7 6.8 1.7 7.9 2.2zm39.7-3c-.7.2-2.1.2-3 0-1-.3-.4-.5 1.2-.5 1.7 0 2.4.2 1.8.5zM199.8 231.5c-6.1 4.6-9 10.6-8.2 16.8.4 2.6 1.1 4.4 1.5 4.1.5-.3.6-1.6.3-3-1.2-4.9.5-9.2 6.3-15.4 3-3.3 5.3-6 5.1-6-.3 0-2.6 1.6-5 3.5zM306.2 230.5c0 1.6.2 2.2.5 1.2.2-.9.2-2.3 0-3-.3-.6-.5.1-.5 1.8zM300.3 238c0 3 .2 4.3.4 2.7.2-1.5.2-3.9 0-5.5-.2-1.5-.4-.2-.4 2.8z"/><path d="M289.7 236c-.4 1.4-1 1.9-1.8 1.4-.8-.4-1-.3-.5.4 1 1.6-.9 1.5-9.1-.4-5.2-1.2-9.4-1.4-17.8-.9-6 .4-14.6.6-19 .6s-11.4.6-15.5 1.4c-12.6 2.4-21.9 2.9-24.7 1.4-2.2-1.2-2.7-1.1-3.9.6-.8 1-1.4 2.6-1.3 3.4 0 1.2.2 1.2.6.3.5-1.3.9-.9 5.5 6.2 11.3 17.3 10.4 16.3 19.1 20.6 9.8 4.9 18.2 6 30.4 4.1 13.8-2.2 23.1-8.2 28.1-18.1 1-1.9 3.8-6.9 6.2-11 4.1-6.8 4.5-7.2 4.8-4.7.2 1.5.8 2.5 1.3 2.2 1.4-.9 1.1-5.9-.4-8-1.3-1.7-1.4-1.7-2 .5zm-11.7 8.6c-1.2 5.1-8.3 12.3-11.6 11.6-1.3-.2-3 0-3.7.5-4.9 3.8-21.4 6.1-27.5 3.9-6.7-2.4-10.8-3.6-12.3-3.6-1.3 0-11.3-9-10.7-9.5.7-.6 16.6 1.6 18.6 2.5 1.6.7 2.1.7 1.7 0-1.1-1.8 5.6-1.1 9 1 3.2 1.9 3.2 1.9 7 0 2.2-1.1 3.3-2 2.6-2-.7 0-2.1.5-3.2 1.1-1.1.5-2.8.9-3.7.6-3.3-.7 12.8-5 16.8-4.4 2.7.3 4.3.1 5.1-.9 1.4-1.7 4.9-1.9 4.9-.2 0 .6 1.1.1 2.4-1.1l2.3-2.2-.3 2.8c-.4 2.8-.4 2.7 1.1-.5 2-4.2 2.5-4.1 1.5.4zm2 5.8c0 .2-2.1 2-4.7 4.1l-4.8 3.7 4.5-4.1c4.5-4.1 5-4.5 5-3.7zM234 262c1.1.8.7.9-1.5.4-3.7-.8-4.5-1.4-1.9-1.4 1 0 2.6.5 3.4 1zm21 1c-1.3.9-1.3 1 0 .9.8 0 3.4-.4 5.8-.8 3.2-.6 4.1-.6 3.3.2-1.2 1.2-5.8 1.4-19.6.7l-9-.4 9.5-.6c5.2-.3 10-.7 10.5-.8.6-.1.3.3-.5.8zm-18 1.9c9.6 1.6 10.6 1.9 6.3 2-4.8.1-10.8-.9-17.3-3-4-1.2-1.3-1 11 1z"/><path d="M254.5 250.1c.7 1.1 3.5 1.2 3.5.1 0-.4-.9-.8-2-.9-1.1-.1-1.8.2-1.5.8zM2 255.6c0 1.4.9 1.6 5.1 1.2 2.7-.3 5.5-1 6.1-1.6.9-.9.4-.9-1.8-.3-1.6.4-3.8.5-4.9 0-3.2-1.2-4.5-1-4.5.7zM467 257.6c1.9 2.1 3.9 4.3 4.4 4.9.5.5.1-.5-1-2.4-1-1.8-3-4.1-4.4-4.9-2.1-1.3-1.9-.9 1 2.4zM78.9 257.6c-.5 1.5-.8 2.9-.5 3.1.2.2.8-1 1.4-2.6 1.3-3.8.5-4.1-.9-.5zM473 259.7c1.2 2.3 2.9 4.8 3.8 5.5 1.1.9.8 0-.7-2.7-3.4-5.7-5.7-7.8-3.1-2.8zM80.3 261.9c-1.2 2.5-2.1 4.6-1.9 4.8.5.5 4.8-7.7 4.4-8.5-.2-.5-1.3 1.2-2.5 3.7zM477.5 260.6c4.4 5.9 5 6.3 2.4 1.5-1.3-2.5-3-4.7-3.8-4.9-.8-.3-.1 1.3 1.4 3.4zM127.1 265.3c-.7 2-4.1 6.3-8.2 10.3-3.9 3.8-7.8 8.5-8.8 10.4-1 1.9-3 5.7-4.6 8.5-1.9 3.6-2.1 4.3-.6 2.5 1.1-1.4 3.2-4.8 4.7-7.5 1.5-2.8 6.2-8.4 10.4-12.5 6-5.9 7.9-8.3 8.3-11 .6-4.7.2-4.9-1.2-.7zM467.4 262.9c.7 1.2 11.9 7.6 15.1 8.7 1.1.3-.7-1-4-3.1-8-4.9-11.9-6.9-11.1-5.6zM489.9 275.9c1.3 1.2 2.8 2.1 3.5 2.1 1.2 0-.5-1.4-3.9-3.1-1.6-.8-1.5-.6.4 1zM93.6 282.1c-.9 2.3-1.5 4.3-1.3 4.6.3.2 1.2-1.5 2.1-3.8.9-2.3 1.5-4.3 1.3-4.6-.3-.2-1.2 1.5-2.1 3.8zM67 287.1c-.6 1.1-1 2.5-.7 3.2.2.6.9-.3 1.5-2.1 1.2-3.6.8-4.2-.8-1.1zM393.5 287.4c1.7.7 4.6 3.4 6.5 5.9 1.9 2.5 4.4 5 5.5 5.6 1.1.5 1.4 1 .7 1-.7.1-3.5-2.3-6.3-5.2l-5-5.2 3.5 5.1c4.5 6.5 5.2 7 10.1 7.9 2.1.3 5.6 1.5 7.7 2.6 2 1 4.3 1.9 5 1.9.7 0 3.3 1.4 5.7 3 6.5 4.4 2.6 3.6-8.3-1.6-5.3-2.6-9.9-4.4-10.2-4.1-.3.3 1.3 1.5 3.7 2.8 2.4 1.2 6.6 3.6 9.3 5.5 2.8 1.8 7.5 4 10.5 5s7.9 3.2 11 5.1c3.1 1.9 6.7 3.6 8.1 3.9 1.4.2 4.5.9 7 1.5 2.5.7 6.5 1.5 9 1.9 2.5.5 6.2 1.6 8.2 2.4 2.1.9 4.5 1.6 5.5 1.6s6 1.8 11.2 4c5.1 2.3 9.5 3.9 9.8 3.7.6-.7-5.9-4.5-10.6-6.2-2.3-.8-5.6-2.5-7.4-3.8-2.9-2.2-7.7-4.1-7.7-3.1 0 .2 1.2 1 2.8 1.8 1.8 1 2.1 1.5 1 1.6-.9 0-3.8-1.7-6.5-3.7-2.6-2-6.9-4.7-9.5-6-3.5-1.7-6.1-4.2-10.2-9.7-3.2-4.3-7-8.2-8.8-9.1l-3.3-1.6 3.1 2.8c3.9 3.5 8.9 10.2 8.1 10.9-.2.3-2.4-1.8-4.8-4.7-4-4.7-14.8-12.9-17.2-12.9-.5 0 2 2.9 5.5 6.5 3.6 3.6 6.2 6.5 5.9 6.5-1.3 0-5.3-3.3-9.9-8.2-4.4-4.8-10.6-8.8-13.4-8.8-.7 0 .7 1.3 3.2 2.9 4.6 2.9 9 7.1 7.5 7.1-.5 0-2-1-3.3-2.3-2.6-2.2-2.1-.7.6 2.5.8 1 1 1.8.5 1.8-.6 0-3.5-2.8-6.4-6.2-5.3-6-11.2-9.7-15.7-9.8-1.2 0-4-.9-6.2-2s-5-2-6.2-2c-2 .1-2 .2.7 1.4zm14.8 5c1.8.7 4.3 2.6 5.7 4.2l2.5 2.9-2.5-2.1c-4.2-3.5-5.4-4-4.6-1.8.5 1.4-.1 1.1-2.3-1-4.3-4.1-4.1-4.5 1.2-2.2zM418 303c.8.5 1.1 1 .5 1-.5 0-1.7-.5-2.5-1s-1-1-.5-1c.6 0 1.7.5 2.5 1zm18.2 7.8c3.4 1.6 7.8 3.2 9.6 3.5 2.8.6 12.2 6.1 12.2 7.2 0 .2-1.9-.6-4.1-1.7-2.3-1.1-7.3-3-11.3-4.3-7.7-2.5-16.6-6.3-16.6-7 0-1.3 4.4-.2 10.2 2.3zm14 10c2.6 1 5.1 2.1 5.5 2.6 1.2 1.2-4.9-.5-7.4-2-2.8-1.7-3.6-1.8-2.7-.2.5.9.2.9-.9-.1-3.4-2.7-1.2-2.9 5.5-.3zM387.7 291.5c1.7 2.2 4.4 5.1 5.9 6.5 1.8 1.6 1.3.7-1.4-2.6-5-6.2-8.9-9.5-4.5-3.9zM297.9 291.7c-1.3 1.6-1.2 1.7.4.4 1.6-1.3 2.1-2.1 1.3-2.1-.2 0-1 .8-1.7 1.7zM373.1 292.8c1.2 3.5 2.9 5.2 2.9 2.9 0-.8-.9-2.5-2-3.8l-2-2.4 1.1 3.3zM64.1 294.7c-5 10.9-12.4 33-14.2 42.1-1.1 5.9-2.4 11-2.7 11.4-.4.3-2.5.9-4.7 1.2-3.8.6-3.8.5-1.4-.6 3.3-1.6 5.9-3.8 5.9-5 0-.5-.9 0-2.1 1-1.1 1.1-3.4 2.3-5.1 2.6-2.6.5-2.9.8-1.8 2.1 1.5 1.8 7 2 9.3.2 1.2-.8 2.6-5.1 4.2-12.7 3-14.1 3-14.3 9.4-30.9 2.8-7.4 5-13.6 4.8-13.7-.2-.2-.9.8-1.6 2.3zM89.3 297.9c-1.3 2.5-2.7 5.8-3.2 7.2-.5 1.5-3 5.7-5.6 9.4-2.6 3.9-4.4 7.4-4 8.3.3.8-.6 3.4-2 5.8-3.4 5.9-4.4 5.6-1.1-.2 2.9-5.1 3.1-5.8 1.6-4.9-1.4.9-1.3.4 1-5.2 1.2-2.8 1.4-4.1.6-3-1.3 1.7-4.6 9.7-9.1 22.2-1 2.7-1.9 7.2-2.1 10l-.3 5 1.2-5.5c1.1-4.7 5-13 6.2-13 .2 0-.5 1.9-1.5 4.2-1.1 2.4-2 5.3-2 6.6 0 1.3-.5 3.2-1 4.3-1.2 2.2-1 2.3 2.5.7 3.6-1.6 6-6 8.4-15.3 2.1-8.1 6.1-22.3 8-28.3.5-1.8 1.9-4.8 3.1-6.7 1.2-1.9 2-4.1 1.8-4.8-.2-.8-1.3.7-2.5 3.2zm-7.3 19c-.5 1.1-1 2.8-1 3.9 0 2.1-3.8 12-7.6 19.6-3.8 7.8-2.8 3.6 1.7-7.1 2.2-5.4 4.4-11.2 4.9-12.9.8-3.3 1.8-5.4 2.6-5.4.3 0 0 .9-.6 1.9zM285.5 301.2c-2.2 1.1-6.4 4.2-9.2 6.9-5.4 4.9-13.1 8.2-23.1 9.9l-4.7.8 4 .1c6.6.2 18.7-4.6 25.9-10.3 3.5-2.8 7.7-6.1 9.2-7.3 3.6-2.8 3-2.8-2.1-.1zM376.6 301c.5.4 4.2 2 8.2 3.4 4.1 1.4 9.3 3.7 11.5 5 2.3 1.3 5.8 2.7 7.7 3.1 1.9.4 4.6 1.4 6 2.2 1.8 1 2 1.2.5.9-5.7-1.5-12.9-2.9-20.3-4.1-4.6-.8-9.5-2.1-10.9-3-2.4-1.6-2.4-1.6-1.4.4 1.3 2.2 2.2 2.6 11.1 4.1 9.2 1.5 28.3 5.8 31.5 7 1.4.5 3.8 1 5.1 1 2.6 0 9.4 3.5 15.2 7.8 4.8 3.6 3 3.9-2.5.5-10.6-6.6-13.2-7-20.2-3.3-3.1 1.7-3.3 1.9-1.3 2 1.3 0 3.4.8 4.7 1.8 2.3 1.8 2.3 1.8-3.1 1.4-5-.4-5.9-.9-11-5.8-8-7.8-8.1-6.6-.2 1.6l6.8 7.1 8.8.1c4.8.1 12.3-.2 16.7-.6 6-.6 9.1-.4 12.3.7 2.3.8 4.2 1.2 4.2.8 0-.7-9.8-6.4-12-7-.8-.2-4.4-2.1-8-4.2-3.6-2.1-9-4.3-11.9-4.9-3-.6-6.8-1.9-8.5-3-3.2-2-9.8-5.3-17.4-8.5-2.3-1-4.1-1.9-3.9-2.1.6-.6 14.5 4.7 20.7 8 3.6 1.8 7.6 3.6 9 4l2.5.7-2.5-2.1c-7.8-6.5-20.5-11.5-34-13.1-3.6-.4-8.2-1.2-10.4-1.8-2.1-.5-3.5-.6-3-.1zm51 26.6c1.8 1.4 1.8 1.4-.6.3-3.1-1.4-3.6-1.9-2.4-1.9.6 0 1.9.7 3 1.6zM56.6 307c-2.2 5.6-1.9 6.5.5 1.1 1.1-2.4 1.8-4.6 1.5-4.8-.2-.2-1.1 1.4-2 3.7z"/><path d="M376.5 304c1.3 2.1 15.2 7.7 16.3 6.5.5-.5-2.1-1.8-9.7-4.9-7.3-2.9-7.5-3-6.6-1.6zM80.4 309.7c-2.3 3.1-2.4 3.4-.5 1.8 2.2-1.9 4.6-5.5 3.8-5.5-.3 0-1.7 1.7-3.3 3.7zM463.1 310.6c3 3.4 6.9 8.9 6.9 9.9 0 1.1-7.3-3.6-11.2-7.4-2.1-1.9-3.8-3.1-3.8-2.6 0 2 5.6 7.8 8.9 9.2 2 .8 7.4 3.3 12 5.5s9.5 4.4 10.8 4.9c1.4.5 4.5 2.3 7 4 4.4 3.1 4.5 3.1 3.8.8-.8-2.8-6.8-12.4-9.8-15.7-3.9-4.3-3.5-2.1.9 4.4 4.7 7 5.2 9.7.9 4.6-1.4-1.7-3.2-2.9-3.8-2.6-1.3.5-7.7-5.1-7.7-6.7 0-1.3-7.1-8.9-8.3-8.9-.6 0 .3 1.5 2 3.2 3 3.3 8.8 11.8 7.9 11.8-2.2 0-8-5.1-11-9.5-1.9-3-4.6-5.9-5.8-6.6-2.2-1.1-2.2-1 .3 1.7zM242.8 318.7c.6.2 1.8.2 2.5 0 .6-.3.1-.5-1.3-.5-1.4 0-1.9.2-1.2.5zM382.7 320.4c1.6 2.8 15.4 16.6 16.6 16.6.6 0-2.9-4.1-7.8-9-4.9-5-9.1-9-9.3-9-.2 0 .1.6.5 1.4zM392 319.3c0 .3 2.6 2.4 5.8 4.7 3.1 2.4 7.2 5.7 8.9 7.3 1.8 1.7 3.5 2.8 3.8 2.5.3-.3-2.2-2.8-5.7-5.5-7.5-5.9-12.8-9.6-12.8-9zM435.4 321.5c1.1.8 2.7 1.5 3.5 1.5 1-.1.7-.6-.9-1.5-3.3-1.9-5-1.8-2.6 0z"/><path d="M392.2 325.2c2.3 2.4 6.1 6.4 8.3 8.9l4 4.6 6-1c5.6-.9 6.5-.8 12.3 1.8 3.4 1.5 6.5 2.6 6.8 2.3.2-.3-2.5-1.8-6-3.3-5.6-2.4-7.5-2.7-12.7-2.2-6.8.6-6.5.7-13.3-7.6-2.2-2.7-5.3-5.5-6.9-6.3-2.5-1.4-2.3-1 1.5 2.8zM390 331.7c1.3 1.8 2.5 3.3 2.7 3.3.8 0-1.7-3.8-3.3-5.1-1.1-.9-.9-.2.6 1.8z"/><path d="M402.7 332.1c1.8 1.8 3.5 3 3.8 2.7.3-.3-1.1-1.8-3.2-3.3l-3.8-2.8 3.2 3.4zM454.1 331.4c.2.2 1.5.9 2.9 1.5 2.4 1.1 2.4 1.1.6-.3-1.6-1.3-4.9-2.4-3.5-1.2zM462 334c1.9 1.7 3.9 3 4.5 3 .6 0 3.5 1.8 6.5 4.1 4.3 3.2 6.1 4 8.5 3.6 3.2-.5 9.4 1.5 13.7 4.5 1.4 1 3.7 1.8 5 1.8 2.1-.1 2-.2-.7-1.4-1.7-.7-3.6-2-4.4-2.9-.7-1-1.9-1.7-2.5-1.7-.6 0-4.4-1.4-8.5-3-7.5-3.1-10.6-3.4-5.4-.6 1.5.8 2.2 1.5 1.5 1.6-.7 0-5.4-2.7-10.4-6-9.8-6.4-13.5-7.8-7.8-3zM5.8 335.6c-1.6.8-2.8 1.7-2.8 1.9 0 1.1 1.9.4 4.1-1.5 2.9-2.3 2.4-2.5-1.3-.4zM472.1 334.4c.4.4 3.7 1.8 7.5 3.2 3.8 1.3 8.1 3.3 9.7 4.5 3.5 2.5 3.6.7 0-2-2.3-1.9-5.1-2.9-15.8-5.8-1.1-.3-1.7-.2-1.4.1zM12.6 336.6c-.3.9-.2 2.2.2 3.1.6 1 .9.5.9-1.6 0-3.5-.2-3.8-1.1-1.5zM440.5 335.7c.6.4 2.2 1.9 3.7 3.2 1.7 1.5 4.7 2.6 8.5 3.1 6.7 1 8.4 1.3 9.8 2.1 4 2.3 4.3 1.3.5-2.1-4.7-4.1-7.6-5.4-4.5-2 2.6 2.9.3 2.5-2.4-.4-1.4-1.5-4-2.7-6.5-3.1-2.2-.3-5.4-.9-7.1-1.2-1.7-.3-2.6-.1-2 .4zm12.8 4.2c.6.6-.7.6-3.4 0-2.4-.6-4.6-1.3-4.9-1.6-.9-1 7.3.6 8.3 1.6z"/><path d="M465.6 342.1c5.5 4.4 8.8 5.9 12.8 5.9 5.9 0 13.2 2 16.7 4.6 3.4 2.5 6.9 3.2 6.9 1.4 0-.6-.9-1-2-1-1 0-4.8-1.6-8.3-3.5-4.5-2.5-7.6-3.5-10.6-3.5-3.4 0-5.4-.8-9.1-3.5-2.7-2-5.9-3.5-7.5-3.5h-2.8l3.9 3.1zm4.4 1.6c0 .7-3.9-1.7-4.6-2.8-.3-.6.5-.3 2 .6 1.4 1 2.6 1.9 2.6 2.2zM399 340.4c0 .2.7.7 1.6 1 .8.3 1.2.2.9-.4-.6-1-2.5-1.4-2.5-.6zM411 343c-1.1.7-.1 1 3.5 1s4.6-.3 3.5-1c-.8-.5-2.4-1-3.5-1s-2.7.5-3.5 1zM497 343.4c1.4.9 3.2 1.5 4 1.5 1.3 0 1.3-.1 0-.8-.8-.5-2.6-1.2-4-1.5l-2.5-.7 2.5 1.5zM60.9 350.2c-.7 1.3-2.5 4-4.2 6.1-1.6 2.1-2.7 4-2.4 4.3.3.3 1.6-1 3-2.8 2.7-3.6 6-9.8 5.3-9.8-.3 0-1.1 1-1.7 2.2zM47.9 357c-2.5 2.5-7.6 7.3-11.4 10.7-4 3.7-6.1 6.3-5.1 6.3 1.9 0 22.1-19.2 21.5-20.6-.2-.5-2.5 1.1-5 3.6zM411.8 359.7c1.2.2 3 .2 4 0 .9-.3-.1-.5-2.3-.4-2.2 0-3 .2-1.7.4zM407.8 361.2c2.6 2.6 30.4 3.7 33.6 1.3 1.7-1.3 1.6-1.4-1.5-1.4-1.9-.1-6.2-.3-9.6-.7-4.3-.4-6.3-.2-6.3.5 0 1.4-13.6 1.5-14.5.1-.3-.6-1.1-1-1.8-1-.8 0-.8.3.1 1.2zM300.9 375.7c-1.3 1.6-1.2 1.7.4.4 1.6-1.3 2.1-2.1 1.3-2.1-.2 0-1 .8-1.7 1.7zM441 374.4c0 .9 11.2 8.7 11.7 8.2.3-.3 1.4-.1 2.5.5s4.3 1.7 7.1 2.5c2.9.9 7.3 2.2 10 2.9 3.2 1 6 1.1 9 .6l4.2-.9-4.5-.1c-10.5-.4-22.5-4.2-26.9-8.6-2-1.9-4.6-3.5-5.8-3.5-1.2 0-3.3-.4-4.7-1-1.4-.5-2.6-.8-2.6-.6zm10.5 5.6c1 1.1 1.4 2 .8 2-.5 0-1.8-.9-2.8-2-1-1.1-1.4-2-.8-2 .5 0 1.8.9 2.8 2z"/><path d="M459 376.4c0 1.5 10.4 6.4 14.9 7 6.7.9 14.7 3.9 17.6 6.6 2 1.9 2.7 2 6.5 1 2.2-.6 4-1.6 3.8-2.1-.4-1.1-10.9-5.8-14.8-6.6l-2.5-.5 2.5 1.4c4.5 2.5 8.1 5.1 7.7 5.4-.2.2-3.3-.9-6.9-2.5-3.6-1.7-8.9-3.3-11.9-3.7-3-.4-7.7-2-10.5-3.5-4.9-2.8-6.4-3.4-6.4-2.5zM490.6 378.1c.3.5 1.7.9 3.1.9 1.3 0 3.7.9 5.2 2l2.8 1.9.1-2.9.1-3-5.9.1c-3.3.1-5.7.6-5.4 1zM455 378.5c0 .9 6.4 4.5 8 4.5.8 0-.5-1.1-2.9-2.5-4.5-2.6-5.1-2.8-5.1-2zM2.8 381.7c.6.2 1.8.2 2.5 0 .6-.3.1-.5-1.3-.5-1.4 0-1.9.2-1.2.5zM2 385.5c0 1.1 1.1 1.5 4.3 1.5h4.2l-2.9-1.5c-3.6-1.9-5.6-1.9-5.6 0z"/><path d="M460.5 389.5c2.8 2.1 7.1 5.7 9.7 8.1 4.6 4.3 4.9 4.4 11.5 4.4 4.9 0 8-.6 10.8-2 5.6-2.8 6.4-2.5 2.1.9-4.5 3.6-11.9 6.6-14.1 5.7-2.7-1-.6 1.2 2.6 2.8 2.9 1.5 3.5 1.4 11.2-1.6 4.5-1.7 7.6-3.3 6.9-3.6-.7-.2-3.8.6-6.8 1.8-3 1.3-5.8 2-6.1 1.6-.3-.3 0-.6.8-.6 1.1 0 8.3-4.3 12.9-7.8.2-.2-.2-.7-.9-1.1-1.1-.7-1.1-1 0-1.4.8-.3-.1-.6-1.9-.6-1.9-.1-4.6.8-6.2 1.9-1.6 1.1-5 2.3-7.7 2.5l-4.8.6 6.5-3.3c3.6-1.8 8.5-3.5 11-3.9l4.5-.6-4.3-.2c-2.9-.1-6.7.9-11.2 2.9-9.7 4.2-11.7 4-18.7-2.1-3.2-2.8-5.7-5.5-5.5-6 .1-.5-.7-.9-1.7-.9-1.1 0-2.8-.3-3.8-.7-1-.3.5 1.1 3.2 3.2z"/><path d="M466 389.7c1.4.9 4.2 3.1 6.3 5 2 1.8 4.5 3.3 5.5 3.3 1.4-.1 1.3-.4-.6-1.8-1.3-.9-4.1-3.2-6.3-5-2.3-1.7-4.8-3.2-5.7-3.2-1.2 0-.9.5.8 1.7zM431.2 392.3c1.8 1.8 5.1 5.6 7.3 8.6 2.2 2.9 7 8.3 10.6 11.9 7.4 7.6 37.5 47.4 45.9 60.8 5.2 8.4 5.5 9.1 5.5 15.5 0 3.7.3 7.1.8 7.5.4.4.7-2.9.7-7.3 0-7-.4-8.6-3.2-13.9-1.7-3.2-4.1-7.3-5.4-8.9-1.2-1.7-4.5-7.6-7.3-13.1-4.6-9.1-8.5-15.4-21.5-34.4-4.3-6.3-18.6-21.2-23.1-24-1.6-1-5.4-2.8-8.3-3.9l-5.4-2.1 3.4 3.3zm11.3 5.6c1.1.9 4.7 4.5 8 8.1 6.4 6.9 3.7 5-5.2-3.8-6-5.9-9.2-7.1-4.4-1.7 1.7 2 3.1 3.9 3.1 4.3-.1.4-1.6-1.1-3.5-3.3-1.8-2.2-3.2-4.1-2.9-4.4.2-.2-.2-1.1-.9-1.9-1.1-1.3-.9-1.4 1.3-.2 1.4.7 3.4 2 4.5 2.9zm27.4 32.1c4.5 6.6 9.4 14.2 11.1 16.9 1.6 2.8 3.6 6.2 4.6 7.6.9 1.4 1.3 2.5 1 2.5-.4 0-2.7-3.3-5.2-7.2-5.6-8.9-9.8-15.4-15.1-23.3-5-7.7-5.5-8.5-5-8.5.3 0 4.1 5.4 8.6 12zM463.5 396.2c4 4.5 7.3 7.2 7.6 6.6.4-.6-2-3.6-5.3-6.7-9.1-8.4-10.1-8.4-2.3.1zM475.8 392.7c.7.3 1.6.2 1.9-.1.4-.3-.2-.6-1.3-.5-1.1 0-1.4.3-.6.6zM446.6 396.7c2.3 2.1 6.1 5.8 8.4 8.3 3.8 4.1 4 4.2 1.9 1-3.3-5.2-8-10-11.4-11.7-2.7-1.3-2.6-1.1 1.1 2.4zM14.3 395c-3.6 1.4-2.7 1.9 1.5.9 5.5-1.5 6-1.7 3.2-1.8-1.4 0-3.5.4-4.7.9zM23 398c-1 .6-.2.7 2.5.3 4.9-.7 5.8-1.3 1.9-1.3-1.6 0-3.6.5-4.4 1zM34.5 401c-.4.7-2.3.8-4.8.5-3.7-.6-4.6-.3-7.7 2.5l-3.5 3.2 3.2-1.6c1.8-.9 4.6-1.6 6.2-1.6 3.3 0 8.1-1.9 8.1-3.2 0-1.1-.8-1-1.5.2zM18 402.7c-1.7.6-4 3.2-4 4.7 0 .5 1 0 2.3-1.1 1.2-1.1 3.1-2.5 4.2-3.1 2.1-1.2.4-1.5-2.5-.5zM3.4 404.4c-1 .8-1.6 1.7-1.3 2 .6.7 7.9-2.1 7.9-2.9 0-1.1-4.7-.4-6.6.9zM499 409c-1.2.8-1.1 1 .8 1 1.2 0 2.2-.5 2.2-1 0-1.3-1.1-1.3-3 0zM461.9 411.5c.5 1.1 1.7 2.9 2.6 4l1.6 2-1-2c-.5-1.1-1.7-2.9-2.6-4l-1.6-2 1 2zM30.5 412c-1.6.7-1.7.9-.3.9.9.1 2-.4 2.3-.9.7-1.1.7-1.1-2 0zM491 413.6c1.9.9 4.7 2.7 6.3 4 3 2.5 4.7 3 4.7 1.4 0-1.3-7.9-5.7-11.5-6.4-2.9-.6-2.9-.6.5 1zM25.8 413.7c.7.3 1.6.2 1.9-.1.4-.3-.2-.6-1.3-.5-1.1 0-1.4.3-.6.6zM33 416.6c-2.2 2-4 4.1-4 4.8 0 .6 1.3-.3 2.8-2.1 1.5-1.7 4.1-3.8 5.7-4.7 2-1 2.4-1.5 1.3-1.6-1 0-3.6 1.6-5.8 3.6z"/><path d="M449.1 416.9c1.3 2.4 4.8 7 7.8 10.3 7.2 7.8 17.4 20.9 26.1 33.5 3.9 5.7 7.3 10.3 7.6 10.3 1.8 0-12.9-20.7-30.3-42.8-11.6-14.7-15-18.1-11.2-11.3zM487 414.8c0 .5 1.8 2.6 4 4.6 2.2 2 3.4 3.6 2.7 3.6-.7 0-2.6-1.3-4.2-3-1.6-1.6-3-2.8-3.3-2.6-.5.6 4.9 8.6 5.9 8.6 1.9 0 9.9-2.5 9.9-3 0-.4-1.5-1.4-3.2-2.3-1.8-.8-5.2-2.8-7.5-4.2-2.4-1.4-4.3-2.2-4.3-1.7zM26.9 417l-2.4 2.1 3.3-1.6c3.1-1.5 4.1-2.5 2.3-2.5-.5 0-1.9.9-3.2 2zM2 417c0 .5.9 1 2 1 1 0 2.4.8 2.9 1.7.9 1.5 1 1.5 1.1.2 0-.8-.5-2-1.2-2.7-1.5-1.5-4.8-1.6-4.8-.2zM2 423.4c0 4.3.2 4.6 2.6 4.6 2.3 0 2.5-.2 1.3-1.6-.7-.9-1.3-2.7-1.4-4.2 0-1.4-.6-2.7-1.2-2.9-.9-.3-1.3.9-1.3 4.1zM24.5 427.5c-.3.8-.7 2.1-.9 2.9-.8 2.4 3.1.6 4.3-2 .9-2.1.8-2.4-1-2.4-1.1 0-2.2.7-2.4 1.5zm1.7 1.7c-.7.7-1.2.8-1.2.2 0-1.4 1.2-2.6 1.9-1.9.2.3-.1 1.1-.7 1.7zM479.1 436c2.9 4.5 2.9 4.5 2.9 3.4 0-.5-1.2-2.3-2.6-3.9l-2.6-3 2.3 3.5zM498 436.5c-4.2 1.5-4.1 3 .3 6.8l3.2 2.8.3-2.5c.2-1.4.2-3.9 0-5.4-.3-2.9-.4-2.9-3.8-1.7zM2 440.4c0 .2 1.5.9 3.3 1.5 2.9 1 3 .9 1.3-.4-1.8-1.4-4.6-2-4.6-1.1zM433.5 448c1.7 25.3 1.8 26.6 2.6 22.8.9-3.8-.3-18.3-2-25.3-.9-3.6-1-3.3-.6 2.5zM362 445.1c0 2.1-1.4 8.6-3.4 15.4-.4 1.1.3.2 1.3-2 2.1-4.1 3.8-14.1 2.7-15.2-.3-.4-.6.5-.6 1.8zM446.1 446.1c-2.2 3.5-3.8 8.3-6.4 18.4-3.9 15.5-4.7 20.7-4.7 29.7 0 9.8 0 9.8 2.5 9.8 1.7 0 2.5-.6 2.6-1.8.1-3.5 1.9-22.8 2.4-26.7.5-3 .4-3.6-.4-2.5s-1.1.5-1.1-2.9c0-5.8 2.6-15.6 5.7-21.4 3-5.4 2.4-7.6-.6-2.6zM2 444.8c0 .6 1 1.3 2.3 1.5l2.2.4-2.2.2c-1.3 0-2.3.8-2.3 1.6 0 1.9.4 1.9 4.1-.1 2.3-1.1 3.4-1.2 4.4-.4 1 .9 2 .7 3.9-.5 1.4-1 2.6-1.8 2.6-1.9 0-.1-1.7-.2-3.7-.2-2.1-.1-5.5-.4-7.5-.9-2.5-.5-3.8-.4-3.8.3zM468.7 448.1c1 1.7 2.4 3.6 3.2 4.2.8.7.2-.7-1.4-3.1-3.2-4.9-4.5-5.7-1.8-1.1zM490 446.7c0 1.5 5.3 14.3 5.8 13.9.2-.3-.8-3.7-2.3-7.5-2.4-6.4-3.5-8.4-3.5-6.4zM499 447c0 .6.7 1 1.5 1s1.5-.2 1.5-.4-.7-.6-1.5-1c-.8-.3-1.5-.1-1.5.4zM439.3 453.5c0 2.2.2 3 .4 1.7.2-1.2.2-3 0-4-.3-.9-.5.1-.4 2.3zM400 456.1c0 .6 1.3 2.8 2.8 4.8 1.6 2 3.4 4.5 4 5.6.6 1.1 1.2 1.5 1.2 1 0-1.1-6.9-12.5-7.6-12.5-.2 0-.4.5-.4 1.1zM7.5 460.4c-.3 1.4-.7 3.7-1 5-.3 1.3.4 5.2 1.5 8.7 1.1 3.4 1.9 6.8 1.6 7.3-.7 2-3.9-6.8-4.4-12.2-.2-2.8-.9-5.2-1.4-5.2-1.2 0-.2 9.9 1.3 13.9.6 1.3 2.6 4.2 4.5 6.3 3.2 3.6 3.4 4.2 2.8 8.7-.4 3.1-.2 5.1.5 5.5.6.4 1.1 1.8 1.1 3.2 0 2 .5 2.4 3.1 2.4 3 0 3.1-.2 2.5-3.1-.3-1.7-.6-3.9-.6-4.8 0-.9-1.6-4.1-3.5-7-2.7-4.1-3.4-6.1-3-8.1.4-1.8-.1-3.4-1.4-5.2-3.3-4.1-4-7-3-12.3.9-5 .4-7.8-.6-3.1zM399.2 461.5c0 1.6.2 2.2.5 1.2.2-.9.2-2.3 0-3-.3-.6-.5.1-.5 1.8zM3 461c-.9.6-1 1-.3 1 .6 0 1.5-.5 1.8-1 .8-1.2.4-1.2-1.5 0zM355.2 467.5c-1.2 2.5-2 4.5-1.7 4.5.7 0 4.7-8.1 4.3-8.6-.3-.2-1.4 1.7-2.6 4.1zM376.2 465.5c0 1.6.2 2.2.5 1.2.2-.9.2-2.3 0-3-.3-.6-.5.1-.5 1.8zM479.8 465.5c.6 1.1 2.7 3.6 4.8 5.5 3.6 3.3 3.6 3.3-.6-1.5-2.4-2.8-4.6-5.2-4.8-5.5-.3-.3 0 .4.6 1.5zM362 469.2c-1.3 2.2-1.8 3.8-1.1 3.4 1.3-.8 4.4-6.6 3.9-7.2-.3-.2-1.5 1.5-2.8 3.8zM337.1 493.1c-2.8 5.6-4.9 10.5-4.6 10.7.3.3.6.3.8.1 2.4-4.1 4.3-7.2 6.5-11.1 2.5-4.4 4.2-6 4.2-3.9 0 .5-2.1 3.9-4.6 7.6-2.5 3.6-4.3 6.9-3.9 7.3.3.4 1 0 1.5-.8 2.6-4.2 8.5-11.8 8.9-11.5.2.3-1.3 2.8-3.3 5.7-2 2.9-3.6 5.6-3.6 5.9 0 .4 3.4.7 7.6.8 7.4.2 7.5.1 6.9-2.1-.9-2.9-5.7-11.3-8.9-15.7l-2.5-3.3-5 10.3zM3.3 489.1c.9.5 1.7 2 1.8 3.2 0 2.2 0 2.2 1.2-.1 1.2-2.5-.2-4.2-3.3-4.2-1.2.1-1.1.3.3 1.1zM95.9 489.7c-1.3 1.6-1.2 1.7.4.4.9-.7 1.7-1.5 1.7-1.7 0-.8-.8-.3-2.1 1.3zM488.3 490.2c-1.5 1.9-7.3 12.4-7.3 13.2 0 .3 1.7.6 3.8.6 3.6 0 4-.2 5-3.9 1.4-4.5 1.6-11.1.3-11.1-.5 0-1.3.6-1.8 1.2zM333.1 495.9c-1.7 3.3-3.1 6.6-3.1 7.3.1.7 1.7-1.8 3.6-5.6 1.9-3.7 3.3-7 3-7.3-.2-.3-1.8 2.2-3.5 5.6zM357.6 494.7c.9 2.1 2.1 5.1 2.6 6.7.9 2.3 1.2 2.5 1.9 1.3.6-1.1-.1-3.1-2.2-6.6-1.8-2.8-3.4-5.1-3.6-5.1-.2 0 .4 1.7 1.3 3.7zM442.2 493c0 1.4.2 1.9.5 1.2.2-.6.2-1.8 0-2.5-.3-.6-.5-.1-.5 1.3zM469 495.6c-3.1 7.2-2.8 8.4 2.4 8.4 4.1 0 4.4-.2 5-3.1 1-5.3.7-7.8-1.3-8.9-3.2-1.7-3.9-1.2-6.1 3.6zM89.9 497.7l-2.4 2.8 2.8-2.4c2.5-2.3 3.2-3.1 2.4-3.1-.2 0-1.4 1.2-2.8 2.7zM496.2 499c-.7 2.4-1.1 4.5-.8 4.8.8.8 2.7-4.9 2.4-7.1-.2-1.2-.8-.3-1.6 2.3zM31 498c.8.5 2.8 1 4.4 1 3.9 0 3-.6-1.9-1.3-2.7-.4-3.5-.3-2.5.3zM2 500c0 .5.5 1 1.1 1 .5 0 .7-.5.4-1-.3-.6-.8-1-1.1-1-.2 0-.4.4-.4 1zM459.7 500.3c-.3.8-.1 2 .4 2.8.6 1 .9.7.9-1.4 0-2.9-.5-3.5-1.3-1.4zM94 502c-.6 1.1-.7 2-.2 2 .6 0 1.2-.9 1.5-2 .3-1.1.3-2 .1-2-.2 0-.8.9-1.4 2zM8.1 502.6c0 1.1.3 1.4.6.6.3-.7.2-1.6-.1-1.9-.3-.4-.6.2-.5 1.3z"/></svg>